{
.appVersion = "895";
DisplayStrings = (
"/.notdef  !\"#$%&'()*+,-.//0123456789:;<=>?@ABCDEFGHIJKLMNOPQRSTUVWXYZ[/backslash ]^_`abcdefghijklmnopqrstuvwxyz{|}~\U00A0\U00A1\U00A2\U00A3\U00A4\U00A5\U00A7\U00A8\U00A9\U00AA\U00AB\U00AC\U00AE\U00AF\U00B0\U00B1\U00B2\U00B3\U00B4\U00B5\U00B6\U00B7\U00B8\U00B9\U00BA\U00BB\U00BC\U00BD\U00BE\U00BF\U00C0\U00C1\U00C2\U00C3\U00C4\U00C5\U00C6\U00C7\U00C8\U00C9\U00CA\U00CB\U00CC\U00CD\U00CE\U00CF\U00D0\U00D1\U00D2\U00D3\U00D4\U00D5\U00D6\U00D7\U00D8\U00D9\U00DA\U00DB\U00DC\U00DD\U00DE\U00DF\U00E0\U00E1\U00E2\U00E3\U00E4\U00E5\U00E6\U00E7\U00E8\U00E9\U00EA\U00EB\U00EC\U00ED\U00EE\U00EF\U00F0\U00F1\U00F2\U00F3\U00F4\U00F5\U00F6\U00F7\U00F8\U00F9\U00FA\U00FB\U00FC\U00FD\U00FE/ydieresis/longs/florin/AEacute/aeacute/Oslashacute/oslashacute/Scommaaccent/scommaaccent/uni021A/uni021B/dotlessj/circumflex/caron/breve/dotaccent/ring/ogonek/tilde/hungarumlaut/uni03A9/pi/endash/emdash/quoteleft/quoteright/quotesinglbase/quotedblleft/quotedblright/quotedblbase/dagger/daggerdbl/bullet/ellipsis/guilsinglleft/guilsinglright/fraction/Euro/trademark/Omega/partialdiff/Delta/product/summation/minus/radical/infinity/integral/approxequal/notequal/lessequal/greaterequal/lozenge/f_f/f_j/fi/fl/f_f_i/f_f_l/s_t \012Abzado0fjkntrR9/alef-hb/bet-hb/gimel-hb/dalet-hb/he-hb/vav-hb/zayin-hb/het-hb/tet-hb/yod-hb/finalkaf-hb/kaf-hb/lamed-hb/finalmem-hb/mem-hb/finalnun-hb/nun-hb/samekh-hb/ayin-hb/finalpe-hb/pe-hb/pe-hb/finaltsadi-hb/tsadi-hb/qof-hb/resh-hb/shin-hb/tav-hb",
123456789ABCDEFGHIJKLMNOPQRSTUVWXYZabcdefghijklmnopqrstuvwxyz,

glyphs = (
{
glyphname = .notdef;
layers = (
{
layerId = "A99C00BB-606F-4263-964D-93C8B7F0BADD";
paths = (
{
closed = 1;
nodes = (
"72 698 LINE SMOOTH",
"43 698 OFFCURVE",
"20 674 OFFCURVE",
"20 645 CURVE SMOOTH",
"20 52 LINE SMOOTH",
"20 23 OFFCURVE",
"43 0 OFFCURVE",
"72 0 CURVE SMOOTH",
"441 0 LINE SMOOTH",
"470 0 OFFCURVE",
"494 23 OFFCURVE",
"494 52 CURVE SMOOTH",
"494 645 LINE SMOOTH",
"494 674 OFFCURVE",
"470 698 OFFCURVE",
"441 698 CURVE SMOOTH"
);
},
{
closed = 1;
nodes = (
"444 96 LINE",
"286 349 LINE",
"444 602 LINE"
);
},
{
closed = 1;
nodes = (
"413 648 LINE",
"257 397 LINE",
"100 648 LINE"
);
},
{
closed = 1;
nodes = (
"70 96 LINE",
"70 602 LINE",
"227 349 LINE"
);
},
{
closed = 1;
nodes = (
"100 50 LINE",
"257 302 LINE",
"413 50 LINE"
);
}
);
width = 514;
}
);
note = .notdef;
},
{
glyphname = exclam;
layers = (
{
layerId = "A99C00BB-606F-4263-964D-93C8B7F0BADD";
paths = (
{
closed = 1;
nodes = (
"162 193 OFFCURVE",
"173 205 OFFCURVE",
"174 222 CURVE SMOOTH",
"192 552 LINE",
"192 651 LINE SMOOTH",
"192 680 OFFCURVE",
"170 703 OFFCURVE",
"141 703 CURVE SMOOTH",
"112 703 OFFCURVE",
"89 680 OFFCURVE",
"89 651 CURVE SMOOTH",
"89 552 LINE",
"107 222 LINE SMOOTH",
"108 205 OFFCURVE",
"120 193 OFFCURVE",
"141 193 CURVE SMOOTH"
);
},
{
closed = 1;
nodes = (
"109 115 OFFCURVE",
"82 88 OFFCURVE",
"82 56 CURVE SMOOTH",
"82 23 OFFCURVE",
"109 -4 OFFCURVE",
"141 -4 CURVE SMOOTH",
"174 -4 OFFCURVE",
"201 23 OFFCURVE",
"201 56 CURVE SMOOTH",
"201 88 OFFCURVE",
"174 115 OFFCURVE",
"141 115 CURVE SMOOTH"
);
}
);
width = 281;
}
);
note = exclam;
unicode = 0021;
},
{
glyphname = quotedbl;
layers = (
{
layerId = "A99C00BB-606F-4263-964D-93C8B7F0BADD";
paths = (
{
closed = 1;
nodes = (
"57 640 OFFCURVE",
"73 561 OFFCURVE",
"82 517 CURVE SMOOTH",
"85 504 OFFCURVE",
"95 492 OFFCURVE",
"111 492 CURVE SMOOTH",
"127 492 OFFCURVE",
"137 504 OFFCURVE",
"140 517 CURVE SMOOTH",
"149 561 OFFCURVE",
"165 640 OFFCURVE",
"162 697 CURVE SMOOTH",
"161 725 OFFCURVE",
"138 747 OFFCURVE",
"111 747 CURVE SMOOTH",
"84 747 OFFCURVE",
"61 725 OFFCURVE",
"60 697 CURVE SMOOTH"
);
},
{
closed = 1;
nodes = (
"246 640 OFFCURVE",
"262 561 OFFCURVE",
"271 517 CURVE SMOOTH",
"274 504 OFFCURVE",
"284 492 OFFCURVE",
"300 492 CURVE SMOOTH",
"316 492 OFFCURVE",
"326 504 OFFCURVE",
"329 517 CURVE SMOOTH",
"338 561 OFFCURVE",
"354 640 OFFCURVE",
"351 697 CURVE SMOOTH",
"350 725 OFFCURVE",
"327 747 OFFCURVE",
"300 747 CURVE SMOOTH",
"273 747 OFFCURVE",
"250 725 OFFCURVE",
"249 697 CURVE SMOOTH"
);
}
);
width = 411;
}
);
leftKerningGroup = quotedbl;
note = quotedbl;
rightKerningGroup = quotedbl;
unicode = 0022;
},
{
glyphname = numbersign;
layers = (
{
layerId = "A99C00BB-606F-4263-964D-93C8B7F0BADD";
paths = (
{
closed = 1;
nodes = (
"463 474 LINE",
"487 618 OFFCURVE",
"487 622 OFFCURVE",
"487 625 CURVE SMOOTH",
"487 645 OFFCURVE",
"473 660 OFFCURVE",
"452 660 CURVE SMOOTH",
"433 660 OFFCURVE",
"419 647 OFFCURVE",
"417 632 CURVE SMOOTH",
"392 474 LINE",
"265 474 LINE",
"289 618 OFFCURVE",
"289 622 OFFCURVE",
"289 625 CURVE SMOOTH",
"289 645 OFFCURVE",
"275 660 OFFCURVE",
"254 660 CURVE SMOOTH",
"235 660 OFFCURVE",
"221 647 OFFCURVE",
"219 632 CURVE SMOOTH",
"194 474 LINE",
"106 474 LINE SMOOTH",
"87 474 OFFCURVE",
"71 458 OFFCURVE",
"71 439 CURVE SMOOTH",
"71 420 OFFCURVE",
"87 404 OFFCURVE",
"106 404 CURVE SMOOTH",
"183 404 LINE",
"159 252 LINE",
"71 252 LINE SMOOTH",
"52 252 OFFCURVE",
"36 236 OFFCURVE",
"36 217 CURVE SMOOTH",
"36 198 OFFCURVE",
"52 182 OFFCURVE",
"71 182 CURVE SMOOTH",
"148 182 LINE",
"124 34 OFFCURVE",
"124 32 OFFCURVE",
"124 30 CURVE SMOOTH",
"124 10 OFFCURVE",
"141 -5 OFFCURVE",
"159 -5 CURVE SMOOTH",
"177 -5 OFFCURVE",
"191 9 OFFCURVE",
"194 24 CURVE",
"219 182 LINE",
"346 182 LINE",
"322 34 OFFCURVE",
"322 32 OFFCURVE",
"322 30 CURVE SMOOTH",
"322 10 OFFCURVE",
"339 -5 OFFCURVE",
"357 -5 CURVE SMOOTH",
"375 -5 OFFCURVE",
"389 9 OFFCURVE",
"392 24 CURVE",
"417 182 LINE",
"505 182 LINE SMOOTH",
"524 182 OFFCURVE",
"540 198 OFFCURVE",
"540 217 CURVE SMOOTH",
"540 236 OFFCURVE",
"524 252 OFFCURVE",
"505 252 CURVE SMOOTH",
"429 252 LINE",
"428 252 LINE",
"452 404 LINE",
"540 404 LINE SMOOTH",
"559 404 OFFCURVE",
"575 420 OFFCURVE",
"575 439 CURVE SMOOTH",
"575 458 OFFCURVE",
"559 474 OFFCURVE",
"540 474 CURVE SMOOTH"
);
},
{
closed = 1;
nodes = (
"357 252 LINE",
"230 252 LINE",
"254 404 LINE",
"381 404 LINE"
);
}
);
width = 612;
}
);
note = numbersign;
unicode = 0023;
},
{
glyphname = dollar;
layers = (
{
layerId = "A99C00BB-606F-4263-964D-93C8B7F0BADD";
paths = (
{
closed = 1;
nodes = (
"334 625 LINE",
"390 624 OFFCURVE",
"441 613 OFFCURVE",
"484 598 CURVE",
"489 596 OFFCURVE",
"495 594 OFFCURVE",
"500 594 CURVE SMOOTH",
"525 594 OFFCURVE",
"540 615 OFFCURVE",
"540 635 CURVE SMOOTH",
"540 659 OFFCURVE",
"526 670 OFFCURVE",
"512 675 CURVE SMOOTH",
"463 693 OFFCURVE",
"403 706 OFFCURVE",
"334 708 CURVE",
"334 785 LINE SMOOTH",
"334 798 OFFCURVE",
"324 808 OFFCURVE",
"311 808 CURVE SMOOTH",
"298 808 OFFCURVE",
"289 798 OFFCURVE",
"289 785 CURVE SMOOTH",
"289 707 LINE",
"135 699 OFFCURVE",
"54 609 OFFCURVE",
"54 503 CURVE SMOOTH",
"54 371 OFFCURVE",
"176 334 OFFCURVE",
"289 304 CURVE",
"289 75 LINE",
"210 77 OFFCURVE",
"149 95 OFFCURVE",
"107 114 CURVE SMOOTH",
"100 117 OFFCURVE",
"94 118 OFFCURVE",
"88 118 CURVE SMOOTH",
"63 118 OFFCURVE",
"47 99 OFFCURVE",
"47 77 CURVE SMOOTH",
"47 59 OFFCURVE",
"60 44 OFFCURVE",
"75 38 CURVE SMOOTH",
"128 15 OFFCURVE",
"200 -6 OFFCURVE",
"289 -10 CURVE",
"289 -88 LINE SMOOTH",
"289 -101 OFFCURVE",
"298 -110 OFFCURVE",
"311 -110 CURVE SMOOTH",
"324 -110 OFFCURVE",
"334 -101 OFFCURVE",
"334 -88 CURVE SMOOTH",
"334 -10 LINE",
"477 -2 OFFCURVE",
"569 77 OFFCURVE",
"569 185 CURVE SMOOTH",
"569 326 OFFCURVE",
"447 360 OFFCURVE",
"334 387 CURVE"
);
},
{
closed = 1;
nodes = (
"144 576 OFFCURVE",
"205 615 OFFCURVE",
"289 623 CURVE",
"289 398 LINE",
"209 418 OFFCURVE",
"144 442 OFFCURVE",
"144 510 CURVE SMOOTH"
);
},
{
closed = 1;
nodes = (
"334 293 LINE",
"413 272 OFFCURVE",
"479 249 OFFCURVE",
"479 191 CURVE SMOOTH",
"479 113 OFFCURVE",
"418 82 OFFCURVE",
"334 76 CURVE"
);
}
);
width = 612;
}
);
note = dollar;
unicode = 0024;
},
{
glyphname = percent;
layers = (
{
layerId = "A99C00BB-606F-4263-964D-93C8B7F0BADD";
paths = (
{
closed = 1;
nodes = (
"98 715 OFFCURVE",
"43 636 OFFCURVE",
"43 536 CURVE SMOOTH",
"43 436 OFFCURVE",
"98 357 OFFCURVE",
"204 357 CURVE SMOOTH",
"310 357 OFFCURVE",
"365 436 OFFCURVE",
"365 536 CURVE SMOOTH",
"365 636 OFFCURVE",
"310 715 OFFCURVE",
"204 715 CURVE SMOOTH"
);
},
{
closed = 1;
nodes = (
"145 422 OFFCURVE",
"113 472 OFFCURVE",
"113 536 CURVE SMOOTH",
"113 600 OFFCURVE",
"145 650 OFFCURVE",
"204 650 CURVE SMOOTH",
"263 650 OFFCURVE",
"295 600 OFFCURVE",
"295 536 CURVE SMOOTH",
"295 472 OFFCURVE",
"263 422 OFFCURVE",
"204 422 CURVE SMOOTH"
);
},
{
closed = 1;
nodes = (
"504 340 OFFCURVE",
"449 261 OFFCURVE",
"449 161 CURVE SMOOTH",
"449 61 OFFCURVE",
"504 -18 OFFCURVE",
"610 -18 CURVE SMOOTH",
"716 -18 OFFCURVE",
"771 61 OFFCURVE",
"771 161 CURVE SMOOTH",
"771 261 OFFCURVE",
"716 340 OFFCURVE",
"610 340 CURVE SMOOTH"
);
},
{
closed = 1;
nodes = (
"551 47 OFFCURVE",
"519 97 OFFCURVE",
"519 161 CURVE SMOOTH",
"519 225 OFFCURVE",
"551 275 OFFCURVE",
"610 275 CURVE SMOOTH",
"669 275 OFFCURVE",
"701 225 OFFCURVE",
"701 161 CURVE SMOOTH",
"701 97 OFFCURVE",
"669 47 OFFCURVE",
"610 47 CURVE SMOOTH"
);
},
{
closed = 1;
nodes = (
"645 696 OFFCURVE",
"631 707 OFFCURVE",
"611 707 CURVE SMOOTH",
"599 707 OFFCURVE",
"589 701 OFFCURVE",
"583 691 CURVE SMOOTH",
"176 40 LINE SMOOTH",
"173 35 OFFCURVE",
"171 29 OFFCURVE",
"171 23 CURVE SMOOTH",
"171 4 OFFCURVE",
"187 -10 OFFCURVE",
"204 -10 CURVE SMOOTH",
"217 -10 OFFCURVE",
"228 -2 OFFCURVE",
"234 8 CURVE SMOOTH",
"638 655 LINE SMOOTH",
"643 663 OFFCURVE",
"645 671 OFFCURVE",
"645 677 CURVE SMOOTH"
);
}
);
width = 814;
}
);
note = percent;
unicode = 0025;
},
{
glyphname = ampersand;
layers = (
{
layerId = "A99C00BB-606F-4263-964D-93C8B7F0BADD";
paths = (
{
closed = 1;
nodes = (
"577 129 LINE",
"595 154 OFFCURVE",
"612 183 OFFCURVE",
"625 211 CURVE SMOOTH",
"628 217 OFFCURVE",
"630 224 OFFCURVE",
"630 231 CURVE SMOOTH",
"630 255 OFFCURVE",
"612 272 OFFCURVE",
"588 272 CURVE SMOOTH",
"571 272 OFFCURVE",
"555 261 OFFCURVE",
"549 247 CURVE",
"541 230 OFFCURVE",
"531 208 OFFCURVE",
"516 186 CURVE",
"307 383 LINE SMOOTH",
"235 451 OFFCURVE",
"207 478 OFFCURVE",
"207 538 CURVE SMOOTH",
"207 584 OFFCURVE",
"244 630 OFFCURVE",
"314 630 CURVE SMOOTH",
"351 630 OFFCURVE",
"382 618 OFFCURVE",
"408 604 CURVE SMOOTH",
"414 601 OFFCURVE",
"420 599 OFFCURVE",
"426 599 CURVE SMOOTH",
"446 599 OFFCURVE",
"461 616 OFFCURVE",
"461 634 CURVE SMOOTH",
"461 647 OFFCURVE",
"452 659 OFFCURVE",
"443 664 CURVE",
"407 688 OFFCURVE",
"361 708 OFFCURVE",
"310 708 CURVE SMOOTH",
"193 708 OFFCURVE",
"123 627 OFFCURVE",
"123 533 CURVE SMOOTH",
"123 470 OFFCURVE",
"149 430 OFFCURVE",
"184 388 CURVE",
"145 363 OFFCURVE",
"71 299 OFFCURVE",
"71 196 CURVE SMOOTH",
"71 97 OFFCURVE",
"139 -10 OFFCURVE",
"316 -10 CURVE SMOOTH",
"397 -10 OFFCURVE",
"467 22 OFFCURVE",
"521 68 CURVE",
"588 4 LINE SMOOTH",
"598 -5 OFFCURVE",
"606 -8 OFFCURVE",
"619 -8 CURVE SMOOTH",
"645 -8 OFFCURVE",
"660 12 OFFCURVE",
"660 33 CURVE SMOOTH",
"660 48 OFFCURVE",
"654 56 OFFCURVE",
"644 65 CURVE SMOOTH"
);
},
{
closed = 1;
nodes = (
"424 92 OFFCURVE",
"373 67 OFFCURVE",
"308 67 CURVE SMOOTH",
"224 67 OFFCURVE",
"157 118 OFFCURVE",
"157 193 CURVE SMOOTH",
"157 262 OFFCURVE",
"203 308 OFFCURVE",
"239 332 CURVE",
"462 123 LINE"
);
}
);
width = 732;
}
);
note = ampersand;
unicode = 0026;
},
{
glyphname = quotesingle;
layers = (
{
layerId = "A99C00BB-606F-4263-964D-93C8B7F0BADD";
paths = (
{
closed = 1;
nodes = (
"125 743 LINE SMOOTH",
"94 743 OFFCURVE",
"69 718 OFFCURVE",
"69 687 CURVE SMOOTH",
"69 681 LINE SMOOTH",
"69 650 OFFCURVE",
"94 625 OFFCURVE",
"125 625 CURVE SMOOTH",
"129 625 LINE",
"129 570 OFFCURVE",
"107 549 OFFCURVE",
"78 532 CURVE SMOOTH",
"68 526 OFFCURVE",
"63 518 OFFCURVE",
"63 507 CURVE SMOOTH",
"63 491 OFFCURVE",
"75 477 OFFCURVE",
"92 477 CURVE SMOOTH",
"99 477 OFFCURVE",
"106 480 OFFCURVE",
"109 482 CURVE",
"148 506 OFFCURVE",
"191 548 OFFCURVE",
"191 628 CURVE SMOOTH",
"191 681 LINE",
"191 687 LINE SMOOTH",
"191 718 OFFCURVE",
"166 743 OFFCURVE",
"135 743 CURVE SMOOTH"
);
}
);
width = 238;
}
);
leftKerningGroup = quotedbl;
note = quotesingle;
rightKerningGroup = quotedbl;
unicode = 0027;
},
{
glyphname = parenleft;
layers = (
{
layerId = "A99C00BB-606F-4263-964D-93C8B7F0BADD";
paths = (
{
closed = 1;
nodes = (
"265 -107 OFFCURVE",
"263 -100 OFFCURVE",
"259 -93 CURVE SMOOTH",
"190 22 OFFCURVE",
"142 159 OFFCURVE",
"142 307 CURVE SMOOTH",
"142 455 OFFCURVE",
"190 592 OFFCURVE",
"259 707 CURVE SMOOTH",
"263 714 OFFCURVE",
"265 721 OFFCURVE",
"265 729 CURVE SMOOTH",
"265 752 OFFCURVE",
"246 768 OFFCURVE",
"225 768 CURVE SMOOTH",
"208 768 OFFCURVE",
"201 761 OFFCURVE",
"192 750 CURVE SMOOTH",
"96 636 OFFCURVE",
"51 474 OFFCURVE",
"51 307 CURVE SMOOTH",
"51 140 OFFCURVE",
"96 -22 OFFCURVE",
"192 -136 CURVE SMOOTH",
"201 -147 OFFCURVE",
"208 -154 OFFCURVE",
"225 -154 CURVE SMOOTH",
"246 -154 OFFCURVE",
"265 -138 OFFCURVE",
"265 -115 CURVE SMOOTH"
);
}
);
width = 312;
}
);
note = parenleft;
unicode = 0028;
},
{
glyphname = parenright;
layers = (
{
layerId = "A99C00BB-606F-4263-964D-93C8B7F0BADD";
paths = (
{
closed = 1;
nodes = (
"48 -138 OFFCURVE",
"67 -154 OFFCURVE",
"88 -154 CURVE SMOOTH",
"105 -154 OFFCURVE",
"112 -147 OFFCURVE",
"121 -136 CURVE SMOOTH",
"217 -22 OFFCURVE",
"262 140 OFFCURVE",
"262 307 CURVE SMOOTH",
"262 474 OFFCURVE",
"217 636 OFFCURVE",
"121 750 CURVE SMOOTH",
"112 761 OFFCURVE",
"105 768 OFFCURVE",
"88 768 CURVE SMOOTH",
"67 768 OFFCURVE",
"48 752 OFFCURVE",
"48 729 CURVE SMOOTH",
"48 721 OFFCURVE",
"50 714 OFFCURVE",
"54 707 CURVE SMOOTH",
"123 592 OFFCURVE",
"171 455 OFFCURVE",
"171 307 CURVE SMOOTH",
"171 159 OFFCURVE",
"123 22 OFFCURVE",
"54 -93 CURVE SMOOTH",
"50 -100 OFFCURVE",
"48 -107 OFFCURVE",
"48 -115 CURVE SMOOTH"
);
}
);
width = 312;
}
);
note = parenright;
unicode = 0029;
},
{
glyphname = asterisk;
layers = (
{
layerId = "A99C00BB-606F-4263-964D-93C8B7F0BADD";
paths = (
{
closed = 1;
nodes = (
"334 505 OFFCURVE",
"332 506 OFFCURVE",
"236 543 CURVE",
"332 580 OFFCURVE",
"334 581 OFFCURVE",
"336 582 CURVE",
"350 591 OFFCURVE",
"353 610 OFFCURVE",
"346 623 CURVE",
"338 636 OFFCURVE",
"320 643 OFFCURVE",
"306 634 CURVE",
"304 633 OFFCURVE",
"302 632 OFFCURVE",
"222 567 CURVE",
"238 669 OFFCURVE",
"238 671 OFFCURVE",
"238 673 CURVE SMOOTH",
"238 690 OFFCURVE",
"223 702 OFFCURVE",
"208 702 CURVE SMOOTH",
"193 702 OFFCURVE",
"178 690 OFFCURVE",
"178 673 CURVE SMOOTH",
"178 671 OFFCURVE",
"178 669 OFFCURVE",
"194 567 CURVE",
"114 632 OFFCURVE",
"112 633 OFFCURVE",
"110 634 CURVE",
"95 643 OFFCURVE",
"78 636 OFFCURVE",
"70 623 CURVE",
"63 610 OFFCURVE",
"65 591 OFFCURVE",
"80 582 CURVE",
"82 581 OFFCURVE",
"84 580 OFFCURVE",
"180 543 CURVE",
"84 506 OFFCURVE",
"82 505 OFFCURVE",
"80 504 CURVE SMOOTH",
"65 496 OFFCURVE",
"63 477 OFFCURVE",
"70 464 CURVE",
"78 451 OFFCURVE",
"95 444 OFFCURVE",
"110 452 CURVE SMOOTH",
"112 453 OFFCURVE",
"114 454 OFFCURVE",
"194 519 CURVE",
"178 417 OFFCURVE",
"178 415 OFFCURVE",
"178 413 CURVE SMOOTH",
"178 396 OFFCURVE",
"193 384 OFFCURVE",
"208 384 CURVE SMOOTH",
"223 384 OFFCURVE",
"238 396 OFFCURVE",
"238 413 CURVE SMOOTH",
"238 415 OFFCURVE",
"238 417 OFFCURVE",
"222 519 CURVE",
"302 454 OFFCURVE",
"304 453 OFFCURVE",
"306 452 CURVE",
"320 444 OFFCURVE",
"338 451 OFFCURVE",
"346 464 CURVE",
"353 477 OFFCURVE",
"350 496 OFFCURVE",
"336 504 CURVE"
);
}
);
width = 417;
}
);
note = asterisk;
unicode = 002A;
},
{
glyphname = plus;
layers = (
{
layerId = "A99C00BB-606F-4263-964D-93C8B7F0BADD";
paths = (
{
closed = 1;
nodes = (
"320 384 LINE",
"320 548 LINE SMOOTH",
"320 570 OFFCURVE",
"303 587 OFFCURVE",
"281 587 CURVE SMOOTH",
"259 587 OFFCURVE",
"242 570 OFFCURVE",
"242 548 CURVE SMOOTH",
"242 384 LINE",
"78 384 LINE SMOOTH",
"56 384 OFFCURVE",
"40 367 OFFCURVE",
"40 345 CURVE SMOOTH",
"40 323 OFFCURVE",
"56 307 OFFCURVE",
"78 307 CURVE SMOOTH",
"242 307 LINE",
"242 143 LINE SMOOTH",
"242 121 OFFCURVE",
"259 104 OFFCURVE",
"281 104 CURVE SMOOTH",
"303 104 OFFCURVE",
"320 121 OFFCURVE",
"320 143 CURVE SMOOTH",
"320 307 LINE",
"483 307 LINE SMOOTH",
"505 307 OFFCURVE",
"522 323 OFFCURVE",
"522 345 CURVE SMOOTH",
"522 367 OFFCURVE",
"505 384 OFFCURVE",
"483 384 CURVE SMOOTH"
);
}
);
width = 562;
}
);
note = plus;
unicode = 002B;
},
{
glyphname = comma;
layers = (
{
layerId = "A99C00BB-606F-4263-964D-93C8B7F0BADD";
paths = (
{
closed = 1;
nodes = (
"125 115 LINE SMOOTH",
"94 115 OFFCURVE",
"69 90 OFFCURVE",
"69 59 CURVE SMOOTH",
"69 53 LINE SMOOTH",
"69 22 OFFCURVE",
"94 -3 OFFCURVE",
"125 -3 CURVE SMOOTH",
"129 -3 LINE",
"129 -58 OFFCURVE",
"107 -79 OFFCURVE",
"78 -96 CURVE SMOOTH",
"68 -102 OFFCURVE",
"63 -110 OFFCURVE",
"63 -121 CURVE SMOOTH",
"63 -137 OFFCURVE",
"75 -151 OFFCURVE",
"92 -151 CURVE SMOOTH",
"99 -151 OFFCURVE",
"106 -148 OFFCURVE",
"109 -146 CURVE",
"148 -122 OFFCURVE",
"191 -80 OFFCURVE",
"191 0 CURVE SMOOTH",
"191 53 LINE",
"191 59 LINE SMOOTH",
"191 90 OFFCURVE",
"166 115 OFFCURVE",
"135 115 CURVE SMOOTH"
);
}
);
width = 260;
}
);
leftKerningGroup = comma;
note = comma;
rightKerningGroup = comma;
unicode = 002C;
},
{
glyphname = hyphen;
layers = (
{
layerId = "A99C00BB-606F-4263-964D-93C8B7F0BADD";
paths = (
{
closed = 1;
nodes = (
"109 321 LINE SMOOTH",
"86 321 OFFCURVE",
"69 303 OFFCURVE",
"69 280 CURVE SMOOTH",
"69 257 OFFCURVE",
"86 240 OFFCURVE",
"109 240 CURVE SMOOTH",
"298 240 LINE SMOOTH",
"321 240 OFFCURVE",
"339 257 OFFCURVE",
"339 280 CURVE SMOOTH",
"339 303 OFFCURVE",
"321 321 OFFCURVE",
"298 321 CURVE SMOOTH"
);
}
);
width = 408;
}
);
leftKerningGroup = hyphen;
note = hyphen;
rightKerningGroup = hyphen;
unicode = 002D;
},
{
glyphname = period;
layers = (
{
layerId = "A99C00BB-606F-4263-964D-93C8B7F0BADD";
paths = (
{
closed = 1;
nodes = (
"125 115 LINE SMOOTH",
"94 115 OFFCURVE",
"69 90 OFFCURVE",
"69 59 CURVE SMOOTH",
"69 53 LINE SMOOTH",
"69 22 OFFCURVE",
"94 -3 OFFCURVE",
"125 -3 CURVE SMOOTH",
"135 -3 LINE SMOOTH",
"166 -3 OFFCURVE",
"191 22 OFFCURVE",
"191 53 CURVE SMOOTH",
"191 59 LINE SMOOTH",
"191 90 OFFCURVE",
"166 115 OFFCURVE",
"135 115 CURVE SMOOTH"
);
}
);
width = 260;
}
);
leftKerningGroup = comma;
note = period;
rightKerningGroup = comma;
unicode = 002E;
},
{
glyphname = slash;
layers = (
{
layerId = "A99C00BB-606F-4263-964D-93C8B7F0BADD";
paths = (
{
closed = 1;
nodes = (
"335 764 OFFCURVE",
"321 752 OFFCURVE",
"316 736 CURVE SMOOTH",
"51 -39 LINE SMOOTH",
"50 -42 OFFCURVE",
"48 -49 OFFCURVE",
"48 -54 CURVE SMOOTH",
"48 -77 OFFCURVE",
"65 -95 OFFCURVE",
"89 -95 CURVE SMOOTH",
"109 -95 OFFCURVE",
"123 -83 OFFCURVE",
"128 -67 CURVE SMOOTH",
"393 708 LINE SMOOTH",
"394 711 OFFCURVE",
"396 718 OFFCURVE",
"396 723 CURVE SMOOTH",
"396 746 OFFCURVE",
"379 764 OFFCURVE",
"355 764 CURVE SMOOTH"
);
}
);
width = 443;
}
);
note = slash;
unicode = 002F;
},
{
glyphname = zero;
layers = (
{
layerId = "A99C00BB-606F-4263-964D-93C8B7F0BADD";
paths = (
{
closed = 1;
nodes = (
"134 708 OFFCURVE",
"43 563 OFFCURVE",
"43 349 CURVE SMOOTH",
"43 135 OFFCURVE",
"134 -10 OFFCURVE",
"314 -10 CURVE SMOOTH",
"493 -10 OFFCURVE",
"585 135 OFFCURVE",
"585 349 CURVE SMOOTH",
"585 563 OFFCURVE",
"493 708 OFFCURVE",
"314 708 CURVE SMOOTH"
);
},
{
closed = 1;
nodes = (
"196 74 OFFCURVE",
"134 180 OFFCURVE",
"134 349 CURVE SMOOTH",
"134 517 OFFCURVE",
"196 623 OFFCURVE",
"314 623 CURVE SMOOTH",
"432 623 OFFCURVE",
"494 517 OFFCURVE",
"494 349 CURVE SMOOTH",
"494 180 OFFCURVE",
"432 74 OFFCURVE",
"314 74 CURVE SMOOTH"
);
}
);
width = 628;
}
);
note = zero;
unicode = 0030;
},
{
glyphname = one;
layers = (
{
layerId = "A99C00BB-606F-4263-964D-93C8B7F0BADD";
paths = (
{
closed = 1;
nodes = (
"387 85 LINE",
"387 650 LINE SMOOTH",
"387 676 OFFCURVE",
"365 698 OFFCURVE",
"339 698 CURVE SMOOTH",
"318 698 LINE SMOOTH",
"308 698 OFFCURVE",
"298 695 OFFCURVE",
"290 691 CURVE SMOOTH",
"154 620 LINE SMOOTH",
"136 611 OFFCURVE",
"128 598 OFFCURVE",
"128 579 CURVE SMOOTH",
"128 554 OFFCURVE",
"146 536 OFFCURVE",
"171 536 CURVE SMOOTH",
"181 536 OFFCURVE",
"187 539 OFFCURVE",
"194 542 CURVE",
"296 592 LINE",
"296 85 LINE",
"177 85 LINE SMOOTH",
"153 85 OFFCURVE",
"135 66 OFFCURVE",
"135 42 CURVE SMOOTH",
"135 18 OFFCURVE",
"153 0 OFFCURVE",
"177 0 CURVE SMOOTH",
"486 0 LINE SMOOTH",
"510 0 OFFCURVE",
"529 18 OFFCURVE",
"529 42 CURVE SMOOTH",
"529 66 OFFCURVE",
"510 85 OFFCURVE",
"486 85 CURVE SMOOTH"
);
}
);
width = 628;
}
);
note = one;
unicode = 0031;
},
{
glyphname = two;
layers = (
{
layerId = "A99C00BB-606F-4263-964D-93C8B7F0BADD";
paths = (
{
closed = 1;
nodes = (
"156 85 LINE",
"210 202 OFFCURVE",
"553 299 OFFCURVE",
"553 505 CURVE SMOOTH",
"553 627 OFFCURVE",
"451 708 OFFCURVE",
"323 708 CURVE SMOOTH",
"231 708 OFFCURVE",
"157 685 OFFCURVE",
"101 657 CURVE SMOOTH",
"86 649 OFFCURVE",
"79 637 OFFCURVE",
"79 620 CURVE SMOOTH",
"79 598 OFFCURVE",
"95 581 OFFCURVE",
"117 581 CURVE SMOOTH",
"125 581 OFFCURVE",
"134 585 OFFCURVE",
"136 586 CURVE",
"181 606 OFFCURVE",
"239 622 OFFCURVE",
"307 622 CURVE SMOOTH",
"423 622 OFFCURVE",
"465 569 OFFCURVE",
"465 498 CURVE SMOOTH",
"465 335 OFFCURVE",
"65 263 OFFCURVE",
"65 52 CURVE SMOOTH",
"65 21 OFFCURVE",
"87 0 OFFCURVE",
"118 0 CURVE SMOOTH",
"504 0 LINE SMOOTH",
"528 0 OFFCURVE",
"547 18 OFFCURVE",
"547 42 CURVE SMOOTH",
"547 66 OFFCURVE",
"528 85 OFFCURVE",
"504 85 CURVE SMOOTH"
);
}
);
width = 628;
}
);
note = two;
unicode = 0032;
},
{
glyphname = three;
layers = (
{
layerId = "A99C00BB-606F-4263-964D-93C8B7F0BADD";
paths = (
{
closed = 1;
nodes = (
"464 382 OFFCURVE",
"528 427 OFFCURVE",
"528 528 CURVE SMOOTH",
"528 642 OFFCURVE",
"441 708 OFFCURVE",
"287 708 CURVE SMOOTH",
"203 708 OFFCURVE",
"136 682 OFFCURVE",
"89 657 CURVE SMOOTH",
"76 650 OFFCURVE",
"69 637 OFFCURVE",
"69 623 CURVE SMOOTH",
"69 601 OFFCURVE",
"86 586 OFFCURVE",
"106 586 CURVE SMOOTH",
"114 586 OFFCURVE",
"119 588 OFFCURVE",
"124 590 CURVE",
"165 609 OFFCURVE",
"216 623 OFFCURVE",
"279 623 CURVE SMOOTH",
"386 623 OFFCURVE",
"437 581 OFFCURVE",
"437 519 CURVE SMOOTH",
"437 438 OFFCURVE",
"362 398 OFFCURVE",
"231 398 CURVE SMOOTH",
"225 398 LINE SMOOTH",
"202 398 OFFCURVE",
"183 379 OFFCURVE",
"183 356 CURVE SMOOTH",
"183 333 OFFCURVE",
"202 314 OFFCURVE",
"225 314 CURVE SMOOTH",
"241 314 LINE SMOOTH",
"406 314 OFFCURVE",
"462 262 OFFCURVE",
"462 188 CURVE SMOOTH",
"462 100 OFFCURVE",
"364 77 OFFCURVE",
"277 77 CURVE SMOOTH",
"212 77 OFFCURVE",
"158 90 OFFCURVE",
"118 106 CURVE SMOOTH",
"113 108 OFFCURVE",
"105 110 OFFCURVE",
"99 110 CURVE SMOOTH",
"75 110 OFFCURVE",
"59 89 OFFCURVE",
"59 68 CURVE SMOOTH",
"59 49 OFFCURVE",
"70 36 OFFCURVE",
"85 30 CURVE SMOOTH",
"134 10 OFFCURVE",
"205 -10 OFFCURVE",
"294 -10 CURVE SMOOTH",
"440 -10 OFFCURVE",
"553 56 OFFCURVE",
"553 183 CURVE SMOOTH",
"553 306 OFFCURVE",
"463 348 OFFCURVE",
"407 361 CURVE"
);
}
);
width = 628;
}
);
note = three;
unicode = 0033;
},
{
glyphname = four;
layers = (
{
layerId = "A99C00BB-606F-4263-964D-93C8B7F0BADD";
paths = (
{
closed = 1;
nodes = (
"479 257 LINE",
"479 645 LINE SMOOTH",
"479 677 OFFCURVE",
"456 703 OFFCURVE",
"421 703 CURVE SMOOTH",
"401 703 LINE SMOOTH",
"381 703 OFFCURVE",
"362 693 OFFCURVE",
"351 679 CURVE SMOOTH",
"37 278 LINE SMOOTH",
"30 269 OFFCURVE",
"25 255 OFFCURVE",
"25 242 CURVE SMOOTH",
"25 233 LINE SMOOTH",
"25 201 OFFCURVE",
"51 176 OFFCURVE",
"83 176 CURVE SMOOTH",
"388 176 LINE",
"388 40 LINE SMOOTH",
"388 15 OFFCURVE",
"408 -5 OFFCURVE",
"433 -5 CURVE SMOOTH",
"458 -5 OFFCURVE",
"479 15 OFFCURVE",
"479 40 CURVE SMOOTH",
"479 176 LINE",
"555 176 LINE SMOOTH",
"578 176 OFFCURVE",
"596 193 OFFCURVE",
"596 216 CURVE SMOOTH",
"596 239 OFFCURVE",
"578 257 OFFCURVE",
"555 257 CURVE SMOOTH"
);
},
{
closed = 1;
nodes = (
"122 257 LINE",
"388 600 LINE",
"388 257 LINE"
);
}
);
width = 628;
}
);
note = four;
unicode = 0034;
},
{
glyphname = five;
layers = (
{
layerId = "A99C00BB-606F-4263-964D-93C8B7F0BADD";
paths = (
{
closed = 1;
nodes = (
"264 442 OFFCURVE",
"210 423 OFFCURVE",
"169 401 CURVE",
"201 613 LINE",
"491 613 LINE SMOOTH",
"515 613 OFFCURVE",
"534 631 OFFCURVE",
"534 655 CURVE SMOOTH",
"534 679 OFFCURVE",
"515 698 OFFCURVE",
"491 698 CURVE SMOOTH",
"170 698 LINE SMOOTH",
"142 698 OFFCURVE",
"121 679 OFFCURVE",
"117 648 CURVE",
"72 382 LINE SMOOTH",
"71 376 OFFCURVE",
"70 365 OFFCURVE",
"70 358 CURVE SMOOTH",
"70 322 OFFCURVE",
"99 300 OFFCURVE",
"136 300 CURVE SMOOTH",
"152 300 OFFCURVE",
"162 307 OFFCURVE",
"171 312 CURVE",
"204 332 OFFCURVE",
"257 355 OFFCURVE",
"325 355 CURVE SMOOTH",
"421 355 OFFCURVE",
"480 303 OFFCURVE",
"480 221 CURVE SMOOTH",
"480 113 OFFCURVE",
"403 80 OFFCURVE",
"285 80 CURVE SMOOTH",
"222 80 OFFCURVE",
"168 99 OFFCURVE",
"125 122 CURVE SMOOTH",
"119 125 OFFCURVE",
"112 127 OFFCURVE",
"104 127 CURVE SMOOTH",
"80 127 OFFCURVE",
"64 107 OFFCURVE",
"64 84 CURVE SMOOTH",
"64 63 OFFCURVE",
"74 55 OFFCURVE",
"84 48 CURVE",
"134 16 OFFCURVE",
"204 -10 OFFCURVE",
"297 -10 CURVE SMOOTH",
"487 -10 OFFCURVE",
"571 88 OFFCURVE",
"571 216 CURVE SMOOTH",
"571 346 OFFCURVE",
"489 442 OFFCURVE",
"338 442 CURVE SMOOTH"
);
}
);
width = 628;
}
);
note = five;
unicode = 0035;
},
{
glyphname = six;
layers = (
{
layerId = "A99C00BB-606F-4263-964D-93C8B7F0BADD";
paths = (
{
closed = 1;
nodes = (
"241 452 OFFCURVE",
"179 406 OFFCURVE",
"146 364 CURVE",
"151 454 OFFCURVE",
"184 620 OFFCURVE",
"356 620 CURVE SMOOTH",
"411 620 OFFCURVE",
"455 607 OFFCURVE",
"489 591 CURVE",
"494 589 OFFCURVE",
"500 588 OFFCURVE",
"506 588 CURVE SMOOTH",
"531 588 OFFCURVE",
"547 608 OFFCURVE",
"547 629 CURVE SMOOTH",
"547 644 OFFCURVE",
"538 659 OFFCURVE",
"526 665 CURVE SMOOTH",
"486 686 OFFCURVE",
"432 708 OFFCURVE",
"349 708 CURVE SMOOTH",
"129 708 OFFCURVE",
"59 504 OFFCURVE",
"59 348 CURVE SMOOTH",
"59 211 OFFCURVE",
"86 -10 OFFCURVE",
"333 -10 CURVE SMOOTH",
"486 -10 OFFCURVE",
"580 91 OFFCURVE",
"580 217 CURVE SMOOTH",
"580 360 OFFCURVE",
"487 452 OFFCURVE",
"351 452 CURVE SMOOTH"
);
},
{
closed = 1;
nodes = (
"209 75 OFFCURVE",
"165 162 OFFCURVE",
"151 259 CURVE",
"172 298 OFFCURVE",
"222 369 OFFCURVE",
"340 369 CURVE SMOOTH",
"440 369 OFFCURVE",
"489 307 OFFCURVE",
"489 219 CURVE SMOOTH",
"489 142 OFFCURVE",
"429 75 OFFCURVE",
"334 75 CURVE SMOOTH"
);
}
);
width = 628;
}
);
note = six;
unicode = 0036;
},
{
glyphname = seven;
layers = (
{
layerId = "A99C00BB-606F-4263-964D-93C8B7F0BADD";
paths = (
{
closed = 1;
nodes = (
"567 675 OFFCURVE",
"543 698 OFFCURVE",
"511 698 CURVE SMOOTH",
"103 698 LINE SMOOTH",
"79 698 OFFCURVE",
"60 678 OFFCURVE",
"60 654 CURVE SMOOTH",
"60 630 OFFCURVE",
"79 611 OFFCURVE",
"103 611 CURVE SMOOTH",
"466 611 LINE",
"191 64 LINE SMOOTH",
"187 56 OFFCURVE",
"185 48 OFFCURVE",
"185 40 CURVE SMOOTH",
"185 14 OFFCURVE",
"204 -5 OFFCURVE",
"230 -5 CURVE SMOOTH",
"248 -5 OFFCURVE",
"265 5 OFFCURVE",
"273 20 CURVE",
"557 601 LINE SMOOTH",
"563 614 OFFCURVE",
"567 629 OFFCURVE",
"567 645 CURVE SMOOTH"
);
}
);
width = 628;
}
);
note = seven;
unicode = 0037;
},
{
glyphname = eight;
layers = (
{
layerId = "A99C00BB-606F-4263-964D-93C8B7F0BADD";
paths = (
{
closed = 1;
nodes = (
"548 604 OFFCURVE",
"489 708 OFFCURVE",
"314 708 CURVE SMOOTH",
"139 708 OFFCURVE",
"80 604 OFFCURVE",
"80 526 CURVE SMOOTH",
"80 444 OFFCURVE",
"134 395 OFFCURVE",
"196 374 CURVE",
"107 344 OFFCURVE",
"47 287 OFFCURVE",
"47 185 CURVE SMOOTH",
"47 96 OFFCURVE",
"115 -10 OFFCURVE",
"314 -10 CURVE SMOOTH",
"513 -10 OFFCURVE",
"581 96 OFFCURVE",
"581 185 CURVE SMOOTH",
"581 287 OFFCURVE",
"521 344 OFFCURVE",
"432 374 CURVE",
"494 395 OFFCURVE",
"548 444 OFFCURVE",
"548 526 CURVE SMOOTH"
);
},
{
closed = 1;
nodes = (
"180 70 OFFCURVE",
"138 150 OFFCURVE",
"138 195 CURVE SMOOTH",
"138 285 OFFCURVE",
"222 330 OFFCURVE",
"314 330 CURVE SMOOTH",
"406 330 OFFCURVE",
"490 285 OFFCURVE",
"490 195 CURVE SMOOTH",
"490 150 OFFCURVE",
"448 70 OFFCURVE",
"314 70 CURVE SMOOTH"
);
},
{
closed = 1;
nodes = (
"171 579 OFFCURVE",
"217 628 OFFCURVE",
"314 628 CURVE SMOOTH",
"411 628 OFFCURVE",
"457 579 OFFCURVE",
"457 520 CURVE SMOOTH",
"457 474 OFFCURVE",
"423 412 OFFCURVE",
"314 412 CURVE SMOOTH",
"205 412 OFFCURVE",
"171 474 OFFCURVE",
"171 520 CURVE SMOOTH"
);
}
);
width = 628;
}
);
note = eight;
unicode = 0038;
},
{
glyphname = nine;
layers = (
{
layerId = "A99C00BB-606F-4263-964D-93C8B7F0BADD";
paths = (
{
closed = 1;
nodes = (
"387 246 OFFCURVE",
"449 292 OFFCURVE",
"482 334 CURVE",
"477 244 OFFCURVE",
"444 78 OFFCURVE",
"272 78 CURVE SMOOTH",
"217 78 OFFCURVE",
"173 91 OFFCURVE",
"139 107 CURVE",
"134 109 OFFCURVE",
"128 110 OFFCURVE",
"122 110 CURVE SMOOTH",
"97 110 OFFCURVE",
"81 90 OFFCURVE",
"81 69 CURVE SMOOTH",
"81 54 OFFCURVE",
"90 39 OFFCURVE",
"102 33 CURVE SMOOTH",
"142 12 OFFCURVE",
"196 -10 OFFCURVE",
"279 -10 CURVE SMOOTH",
"499 -10 OFFCURVE",
"569 194 OFFCURVE",
"569 350 CURVE SMOOTH",
"569 487 OFFCURVE",
"542 708 OFFCURVE",
"295 708 CURVE SMOOTH",
"142 708 OFFCURVE",
"48 607 OFFCURVE",
"48 481 CURVE SMOOTH",
"48 338 OFFCURVE",
"141 246 OFFCURVE",
"277 246 CURVE SMOOTH"
);
},
{
closed = 1;
nodes = (
"419 623 OFFCURVE",
"463 536 OFFCURVE",
"477 439 CURVE",
"456 400 OFFCURVE",
"406 329 OFFCURVE",
"288 329 CURVE SMOOTH",
"188 329 OFFCURVE",
"139 391 OFFCURVE",
"139 479 CURVE SMOOTH",
"139 556 OFFCURVE",
"199 623 OFFCURVE",
"294 623 CURVE SMOOTH"
);
}
);
width = 628;
}
);
note = nine;
unicode = 0039;
},
{
glyphname = colon;
layers = (
{
layerId = "A99C00BB-606F-4263-964D-93C8B7F0BADD";
paths = (
{
closed = 1;
nodes = (
"125 115 LINE SMOOTH",
"94 115 OFFCURVE",
"69 90 OFFCURVE",
"69 59 CURVE SMOOTH",
"69 53 LINE SMOOTH",
"69 22 OFFCURVE",
"94 -3 OFFCURVE",
"125 -3 CURVE SMOOTH",
"135 -3 LINE SMOOTH",
"166 -3 OFFCURVE",
"191 22 OFFCURVE",
"191 53 CURVE SMOOTH",
"191 59 LINE SMOOTH",
"191 90 OFFCURVE",
"166 115 OFFCURVE",
"135 115 CURVE SMOOTH"
);
},
{
closed = 1;
nodes = (
"125 513 LINE SMOOTH",
"94 513 OFFCURVE",
"69 488 OFFCURVE",
"69 457 CURVE SMOOTH",
"69 451 LINE SMOOTH",
"69 420 OFFCURVE",
"94 395 OFFCURVE",
"125 395 CURVE SMOOTH",
"135 395 LINE SMOOTH",
"166 395 OFFCURVE",
"191 420 OFFCURVE",
"191 451 CURVE SMOOTH",
"191 457 LINE SMOOTH",
"191 488 OFFCURVE",
"166 513 OFFCURVE",
"135 513 CURVE SMOOTH"
);
}
);
width = 260;
}
);
leftKerningGroup = colon;
note = colon;
rightKerningGroup = colon;
unicode = 003A;
},
{
glyphname = semicolon;
layers = (
{
layerId = "A99C00BB-606F-4263-964D-93C8B7F0BADD";
paths = (
{
closed = 1;
nodes = (
"125 115 LINE SMOOTH",
"94 115 OFFCURVE",
"69 90 OFFCURVE",
"69 59 CURVE SMOOTH",
"69 53 LINE SMOOTH",
"69 22 OFFCURVE",
"94 -3 OFFCURVE",
"125 -3 CURVE SMOOTH",
"129 -3 LINE",
"129 -58 OFFCURVE",
"107 -79 OFFCURVE",
"78 -96 CURVE SMOOTH",
"68 -102 OFFCURVE",
"63 -110 OFFCURVE",
"63 -121 CURVE SMOOTH",
"63 -137 OFFCURVE",
"75 -151 OFFCURVE",
"92 -151 CURVE SMOOTH",
"99 -151 OFFCURVE",
"106 -148 OFFCURVE",
"109 -146 CURVE",
"148 -122 OFFCURVE",
"191 -80 OFFCURVE",
"191 0 CURVE SMOOTH",
"191 53 LINE",
"191 59 LINE SMOOTH",
"191 90 OFFCURVE",
"166 115 OFFCURVE",
"135 115 CURVE SMOOTH"
);
},
{
closed = 1;
nodes = (
"125 513 LINE SMOOTH",
"94 513 OFFCURVE",
"69 488 OFFCURVE",
"69 457 CURVE SMOOTH",
"69 451 LINE SMOOTH",
"69 420 OFFCURVE",
"94 395 OFFCURVE",
"125 395 CURVE SMOOTH",
"135 395 LINE SMOOTH",
"166 395 OFFCURVE",
"191 420 OFFCURVE",
"191 451 CURVE SMOOTH",
"191 457 LINE SMOOTH",
"191 488 OFFCURVE",
"166 513 OFFCURVE",
"135 513 CURVE SMOOTH"
);
}
);
width = 260;
}
);
leftKerningGroup = colon;
note = semicolon;
rightKerningGroup = colon;
unicode = 003B;
},
{
glyphname = less;
layers = (
{
layerId = "A99C00BB-606F-4263-964D-93C8B7F0BADD";
paths = (
{
closed = 1;
nodes = (
"508 58 OFFCURVE",
"526 75 OFFCURVE",
"526 98 CURVE SMOOTH",
"526 114 OFFCURVE",
"515 129 OFFCURVE",
"499 136 CURVE SMOOTH",
"139 296 LINE",
"499 456 LINE SMOOTH",
"515 463 OFFCURVE",
"526 478 OFFCURVE",
"526 494 CURVE SMOOTH",
"526 517 OFFCURVE",
"508 534 OFFCURVE",
"486 534 CURVE SMOOTH",
"480 534 OFFCURVE",
"475 533 OFFCURVE",
"470 531 CURVE",
"71 352 LINE SMOOTH",
"49 342 OFFCURVE",
"35 323 OFFCURVE",
"35 300 CURVE SMOOTH",
"35 292 LINE SMOOTH",
"35 269 OFFCURVE",
"49 250 OFFCURVE",
"71 240 CURVE SMOOTH",
"470 61 LINE",
"475 59 OFFCURVE",
"480 58 OFFCURVE",
"486 58 CURVE SMOOTH"
);
}
);
width = 580;
}
);
note = less;
unicode = 003C;
},
{
glyphname = equal;
layers = (
{
layerId = "A99C00BB-606F-4263-964D-93C8B7F0BADD";
paths = (
{
closed = 1;
nodes = (
"600 404 LINE SMOOTH",
"622 404 OFFCURVE",
"639 421 OFFCURVE",
"639 443 CURVE SMOOTH",
"639 465 OFFCURVE",
"622 482 OFFCURVE",
"600 482 CURVE SMOOTH",
"112 482 LINE SMOOTH",
"90 482 OFFCURVE",
"73 465 OFFCURVE",
"73 443 CURVE SMOOTH",
"73 421 OFFCURVE",
"90 404 OFFCURVE",
"112 404 CURVE SMOOTH"
);
},
{
closed = 1;
nodes = (
"112 258 LINE SMOOTH",
"90 258 OFFCURVE",
"73 241 OFFCURVE",
"73 219 CURVE SMOOTH",
"73 197 OFFCURVE",
"90 180 OFFCURVE",
"112 180 CURVE SMOOTH",
"600 180 LINE SMOOTH",
"622 180 OFFCURVE",
"639 197 OFFCURVE",
"639 219 CURVE SMOOTH",
"639 241 OFFCURVE",
"622 258 OFFCURVE",
"600 258 CURVE SMOOTH"
);
}
);
width = 712;
}
);
note = equal;
unicode = 003D;
},
{
glyphname = greater;
layers = (
{
layerId = "A99C00BB-606F-4263-964D-93C8B7F0BADD";
paths = (
{
closed = 1;
nodes = (
"100 58 OFFCURVE",
"105 59 OFFCURVE",
"110 61 CURVE",
"509 240 LINE SMOOTH",
"531 250 OFFCURVE",
"545 269 OFFCURVE",
"545 292 CURVE SMOOTH",
"545 300 LINE SMOOTH",
"545 323 OFFCURVE",
"531 342 OFFCURVE",
"509 352 CURVE SMOOTH",
"110 531 LINE",
"105 533 OFFCURVE",
"100 534 OFFCURVE",
"94 534 CURVE SMOOTH",
"72 534 OFFCURVE",
"54 517 OFFCURVE",
"54 494 CURVE SMOOTH",
"54 478 OFFCURVE",
"65 463 OFFCURVE",
"81 456 CURVE SMOOTH",
"441 296 LINE",
"81 136 LINE SMOOTH",
"65 129 OFFCURVE",
"54 114 OFFCURVE",
"54 98 CURVE SMOOTH",
"54 75 OFFCURVE",
"72 58 OFFCURVE",
"94 58 CURVE SMOOTH"
);
}
);
width = 580;
}
);
note = greater;
unicode = 003E;
},
{
glyphname = question;
layers = (
{
layerId = "A99C00BB-606F-4263-964D-93C8B7F0BADD";
paths = (
{
closed = 1;
nodes = (
"161 708 OFFCURVE",
"107 695 OFFCURVE",
"51 660 CURVE SMOOTH",
"38 652 OFFCURVE",
"26 641 OFFCURVE",
"26 622 CURVE SMOOTH",
"26 600 OFFCURVE",
"44 582 OFFCURVE",
"66 582 CURVE SMOOTH",
"74 582 OFFCURVE",
"85 586 OFFCURVE",
"91 590 CURVE SMOOTH",
"126 612 OFFCURVE",
"174 623 OFFCURVE",
"219 623 CURVE SMOOTH",
"320 623 OFFCURVE",
"362 582 OFFCURVE",
"362 514 CURVE SMOOTH",
"362 416 OFFCURVE",
"177 395 OFFCURVE",
"177 225 CURVE SMOOTH",
"177 204 OFFCURVE",
"196 186 OFFCURVE",
"221 186 CURVE SMOOTH",
"244 186 OFFCURVE",
"265 203 OFFCURVE",
"265 225 CURVE SMOOTH",
"265 353 OFFCURVE",
"452 359 OFFCURVE",
"452 519 CURVE SMOOTH",
"452 635 OFFCURVE",
"363 708 OFFCURVE",
"227 708 CURVE SMOOTH"
);
},
{
closed = 1;
nodes = (
"187 115 OFFCURVE",
"160 88 OFFCURVE",
"160 56 CURVE SMOOTH",
"160 23 OFFCURVE",
"187 -4 OFFCURVE",
"219 -4 CURVE SMOOTH",
"252 -4 OFFCURVE",
"279 23 OFFCURVE",
"279 56 CURVE SMOOTH",
"279 88 OFFCURVE",
"252 115 OFFCURVE",
"219 115 CURVE SMOOTH"
);
}
);
width = 497;
}
);
note = question;
unicode = 003F;
},
{
glyphname = at;
layers = (
{
layerId = "A99C00BB-606F-4263-964D-93C8B7F0BADD";
paths = (
{
closed = 1;
nodes = (
"242 688 OFFCURVE",
"49 491 OFFCURVE",
"49 262 CURVE SMOOTH",
"49 81 OFFCURVE",
"186 -83 OFFCURVE",
"400 -83 CURVE SMOOTH",
"499 -83 OFFCURVE",
"575 -58 OFFCURVE",
"631 -30 CURVE SMOOTH",
"639 -26 OFFCURVE",
"645 -17 OFFCURVE",
"645 -7 CURVE SMOOTH",
"645 7 OFFCURVE",
"634 17 OFFCURVE",
"620 17 CURVE SMOOTH",
"616 17 OFFCURVE",
"612 16 OFFCURVE",
"609 15 CURVE",
"547 -10 OFFCURVE",
"491 -31 OFFCURVE",
"400 -31 CURVE SMOOTH",
"206 -31 OFFCURVE",
"101 118 OFFCURVE",
"101 262 CURVE SMOOTH",
"101 464 OFFCURVE",
"271 635 OFFCURVE",
"473 635 CURVE SMOOTH",
"632 635 OFFCURVE",
"800 535 OFFCURVE",
"800 342 CURVE SMOOTH",
"800 222 OFFCURVE",
"755 142 OFFCURVE",
"671 142 CURVE SMOOTH",
"635 142 OFFCURVE",
"621 173 OFFCURVE",
"621 207 CURVE SMOOTH",
"621 231 OFFCURVE",
"625 256 OFFCURVE",
"628 272 CURVE SMOOTH",
"661 462 LINE SMOOTH",
"662 468 OFFCURVE",
"662 471 OFFCURVE",
"662 473 CURVE SMOOTH",
"662 494 OFFCURVE",
"646 510 OFFCURVE",
"626 510 CURVE SMOOTH",
"608 510 OFFCURVE",
"592 497 OFFCURVE",
"589 479 CURVE SMOOTH",
"586 462 LINE",
"561 486 OFFCURVE",
"519 513 OFFCURVE",
"458 513 CURVE SMOOTH",
"339 513 OFFCURVE",
"221 426 OFFCURVE",
"221 270 CURVE SMOOTH",
"221 170 OFFCURVE",
"281 94 OFFCURVE",
"391 94 CURVE SMOOTH",
"453 94 OFFCURVE",
"513 117 OFFCURVE",
"556 169 CURVE",
"563 134 OFFCURVE",
"596 95 OFFCURVE",
"668 95 CURVE SMOOTH",
"803 95 OFFCURVE",
"854 225 OFFCURVE",
"854 342 CURVE SMOOTH",
"854 547 OFFCURVE",
"679 687 OFFCURVE",
"473 688 CURVE SMOOTH"
);
},
{
closed = 1;
nodes = (
"559 303 LINE SMOOTH",
"540 191 OFFCURVE",
"477 163 OFFCURVE",
"413 163 CURVE SMOOTH",
"350 163 OFFCURVE",
"298 198 OFFCURVE",
"298 280 CURVE SMOOTH",
"298 386 OFFCURVE",
"378 442 OFFCURVE",
"462 442 CURVE SMOOTH",
"516 442 OFFCURVE",
"552 420 OFFCURVE",
"575 396 CURVE"
);
}
);
width = 898;
}
);
note = at;
unicode = 0040;
},
{
glyphname = A;
layers = (
{
layerId = "A99C00BB-606F-4263-964D-93C8B7F0BADD";
paths = (
{
closed = 1;
nodes = (
"412 662 LINE SMOOTH",
"403 683 OFFCURVE",
"384 703 OFFCURVE",
"354 703 CURVE SMOOTH",
"344 703 LINE SMOOTH",
"314 703 OFFCURVE",
"295 683 OFFCURVE",
"286 662 CURVE SMOOTH",
"31 60 LINE SMOOTH",
"28 53 OFFCURVE",
"26 46 OFFCURVE",
"26 40 CURVE SMOOTH",
"26 15 OFFCURVE",
"43 -5 OFFCURVE",
"71 -5 CURVE SMOOTH",
"90 -5 OFFCURVE",
"106 5 OFFCURVE",
"114 23 CURVE SMOOTH",
"179 179 LINE",
"519 179 LINE",
"584 23 LINE SMOOTH",
"592 5 OFFCURVE",
"608 -5 OFFCURVE",
"627 -5 CURVE SMOOTH",
"655 -5 OFFCURVE",
"672 15 OFFCURVE",
"672 40 CURVE SMOOTH",
"672 46 OFFCURVE",
"670 53 OFFCURVE",
"667 60 CURVE SMOOTH"
);
},
{
closed = 1;
nodes = (
"214 262 LINE",
"349 587 LINE",
"484 262 LINE"
);
}
);
width = 697;
}
);
leftKerningGroup = A;
note = A;
rightKerningGroup = A;
unicode = 0041;
},
{
glyphname = B;
layers = (
{
layerId = "A99C00BB-606F-4263-964D-93C8B7F0BADD";
paths = (
{
closed = 1;
nodes = (
"555 386 OFFCURVE",
"602 434 OFFCURVE",
"602 517 CURVE SMOOTH",
"602 625 OFFCURVE",
"524 698 OFFCURVE",
"378 698 CURVE SMOOTH",
"142 698 LINE SMOOTH",
"117 698 OFFCURVE",
"97 677 OFFCURVE",
"97 652 CURVE SMOOTH",
"97 45 LINE SMOOTH",
"97 20 OFFCURVE",
"117 0 OFFCURVE",
"142 0 CURVE SMOOTH",
"384 0 LINE SMOOTH",
"569 0 OFFCURVE",
"641 79 OFFCURVE",
"641 196 CURVE SMOOTH",
"641 288 OFFCURVE",
"576 340 OFFCURVE",
"504 363 CURVE"
);
},
{
closed = 1;
nodes = (
"515 445 OFFCURVE",
"480 396 OFFCURVE",
"354 396 CURVE SMOOTH",
"188 396 LINE",
"188 613 LINE",
"371 613 LINE SMOOTH",
"462 613 OFFCURVE",
"515 572 OFFCURVE",
"515 510 CURVE SMOOTH"
);
},
{
closed = 1;
nodes = (
"188 85 LINE",
"188 314 LINE",
"376 314 LINE SMOOTH",
"491 314 OFFCURVE",
"553 279 OFFCURVE",
"553 200 CURVE SMOOTH",
"553 132 OFFCURVE",
"512 85 OFFCURVE",
"375 85 CURVE SMOOTH"
);
}
);
width = 693;
}
);
leftKerningGroup = B;
note = B;
unicode = 0042;
},
{
glyphname = C;
layers = (
{
layerId = "A99C00BB-606F-4263-964D-93C8B7F0BADD";
paths = (
{
closed = 1;
nodes = (
"611 128 OFFCURVE",
"604 127 OFFCURVE",
"598 124 CURVE SMOOTH",
"545 96 OFFCURVE",
"493 77 OFFCURVE",
"415 77 CURVE SMOOTH",
"238 77 OFFCURVE",
"147 195 OFFCURVE",
"147 349 CURVE SMOOTH",
"147 503 OFFCURVE",
"238 621 OFFCURVE",
"415 621 CURVE SMOOTH",
"493 621 OFFCURVE",
"545 602 OFFCURVE",
"598 574 CURVE SMOOTH",
"604 571 OFFCURVE",
"611 570 OFFCURVE",
"616 570 CURVE SMOOTH",
"641 570 OFFCURVE",
"657 589 OFFCURVE",
"656 610 CURVE SMOOTH",
"655 629 OFFCURVE",
"647 639 OFFCURVE",
"634 646 CURVE SMOOTH",
"572 681 OFFCURVE",
"504 708 OFFCURVE",
"406 708 CURVE SMOOTH",
"207 708 OFFCURVE",
"56 572 OFFCURVE",
"56 349 CURVE SMOOTH",
"56 126 OFFCURVE",
"207 -10 OFFCURVE",
"406 -10 CURVE SMOOTH",
"504 -10 OFFCURVE",
"572 17 OFFCURVE",
"634 52 CURVE SMOOTH",
"647 59 OFFCURVE",
"655 69 OFFCURVE",
"656 88 CURVE SMOOTH",
"657 109 OFFCURVE",
"641 128 OFFCURVE",
"616 128 CURVE SMOOTH"
);
}
);
width = 698;
}
);
leftKerningGroup = C;
note = C;
rightKerningGroup = C;
unicode = 0043;
},
{
glyphname = D;
layers = (
{
layerId = "A99C00BB-606F-4263-964D-93C8B7F0BADD";
paths = (
{
closed = 1;
nodes = (
"142 698 LINE SMOOTH",
"117 698 OFFCURVE",
"97 677 OFFCURVE",
"97 652 CURVE SMOOTH",
"97 45 LINE SMOOTH",
"97 20 OFFCURVE",
"117 0 OFFCURVE",
"142 0 CURVE SMOOTH",
"343 0 LINE SMOOTH",
"582 0 OFFCURVE",
"696 181 OFFCURVE",
"696 349 CURVE SMOOTH",
"696 518 OFFCURVE",
"582 698 OFFCURVE",
"343 698 CURVE SMOOTH"
);
},
{
closed = 1;
nodes = (
"188 85 LINE",
"188 613 LINE",
"332 613 LINE SMOOTH",
"499 613 OFFCURVE",
"606 505 OFFCURVE",
"606 349 CURVE SMOOTH",
"606 193 OFFCURVE",
"499 85 OFFCURVE",
"332 85 CURVE SMOOTH"
);
}
);
width = 750;
}
);
leftKerningGroup = B;
note = D;
rightKerningGroup = D;
unicode = 0044;
},
{
glyphname = E;
layers = (
{
layerId = "A99C00BB-606F-4263-964D-93C8B7F0BADD";
paths = (
{
closed = 1;
nodes = (
"188 85 LINE",
"188 307 LINE",
"507 307 LINE SMOOTH",
"531 307 OFFCURVE",
"550 325 OFFCURVE",
"550 349 CURVE SMOOTH",
"550 373 OFFCURVE",
"531 392 OFFCURVE",
"507 392 CURVE SMOOTH",
"188 392 LINE",
"188 613 LINE",
"543 613 LINE SMOOTH",
"567 613 OFFCURVE",
"586 631 OFFCURVE",
"586 655 CURVE SMOOTH",
"586 679 OFFCURVE",
"567 698 OFFCURVE",
"543 698 CURVE SMOOTH",
"142 698 LINE SMOOTH",
"117 698 OFFCURVE",
"97 677 OFFCURVE",
"97 652 CURVE SMOOTH",
"97 45 LINE SMOOTH",
"97 20 OFFCURVE",
"117 0 OFFCURVE",
"142 0 CURVE SMOOTH",
"543 0 LINE SMOOTH",
"567 0 OFFCURVE",
"586 18 OFFCURVE",
"586 42 CURVE SMOOTH",
"586 66 OFFCURVE",
"567 85 OFFCURVE",
"543 85 CURVE SMOOTH"
);
}
);
width = 638;
}
);
leftKerningGroup = B;
note = E;
rightKerningGroup = E;
unicode = 0045;
},
{
glyphname = F;
layers = (
{
layerId = "A99C00BB-606F-4263-964D-93C8B7F0BADD";
paths = (
{
closed = 1;
nodes = (
"531 613 LINE SMOOTH",
"555 613 OFFCURVE",
"574 631 OFFCURVE",
"574 655 CURVE SMOOTH",
"574 679 OFFCURVE",
"555 698 OFFCURVE",
"531 698 CURVE SMOOTH",
"142 698 LINE SMOOTH",
"117 698 OFFCURVE",
"97 677 OFFCURVE",
"97 652 CURVE SMOOTH",
"97 40 LINE SMOOTH",
"97 15 OFFCURVE",
"117 -5 OFFCURVE",
"142 -5 CURVE SMOOTH",
"167 -5 OFFCURVE",
"188 15 OFFCURVE",
"188 40 CURVE SMOOTH",
"188 307 LINE",
"496 307 LINE SMOOTH",
"520 307 OFFCURVE",
"539 325 OFFCURVE",
"539 349 CURVE SMOOTH",
"539 373 OFFCURVE",
"520 392 OFFCURVE",
"496 392 CURVE SMOOTH",
"188 392 LINE",
"188 613 LINE"
);
}
);
width = 610;
}
);
leftKerningGroup = B;
note = F;
unicode = 0046;
},
{
glyphname = G;
layers = (
{
layerId = "A99C00BB-606F-4263-964D-93C8B7F0BADD";
paths = (
{
closed = 1;
nodes = (
"428 383 LINE SMOOTH",
"405 383 OFFCURVE",
"387 365 OFFCURVE",
"387 342 CURVE SMOOTH",
"387 319 OFFCURVE",
"405 301 OFFCURVE",
"428 301 CURVE SMOOTH",
"593 301 LINE",
"593 120 LINE",
"547 95 OFFCURVE",
"488 76 OFFCURVE",
"418 76 CURVE SMOOTH",
"246 76 OFFCURVE",
"146 194 OFFCURVE",
"146 348 CURVE SMOOTH",
"146 523 OFFCURVE",
"262 620 OFFCURVE",
"413 620 CURVE SMOOTH",
"490 620 OFFCURVE",
"550 599 OFFCURVE",
"609 564 CURVE",
"615 561 OFFCURVE",
"622 559 OFFCURVE",
"630 559 CURVE SMOOTH",
"656 559 OFFCURVE",
"672 579 OFFCURVE",
"672 600 CURVE SMOOTH",
"672 618 OFFCURVE",
"661 631 OFFCURVE",
"652 636 CURVE",
"589 676 OFFCURVE",
"516 708 OFFCURVE",
"403 708 CURVE SMOOTH",
"209 708 OFFCURVE",
"55 565 OFFCURVE",
"55 348 CURVE SMOOTH",
"55 139 OFFCURVE",
"196 -10 OFFCURVE",
"406 -10 CURVE SMOOTH",
"493 -10 OFFCURVE",
"569 13 OFFCURVE",
"635 46 CURVE SMOOTH",
"658 57 OFFCURVE",
"673 80 OFFCURVE",
"673 108 CURVE SMOOTH",
"673 335 LINE SMOOTH",
"673 362 OFFCURVE",
"652 383 OFFCURVE",
"625 383 CURVE SMOOTH"
);
}
);
width = 744;
}
);
leftKerningGroup = C;
note = G;
unicode = 0047;
},
{
glyphname = H;
layers = (
{
layerId = "A99C00BB-606F-4263-964D-93C8B7F0BADD";
paths = (
{
closed = 1;
nodes = (
"587 703 OFFCURVE",
"567 682 OFFCURVE",
"567 657 CURVE SMOOTH",
"567 391 LINE",
"188 391 LINE",
"188 657 LINE SMOOTH",
"188 682 OFFCURVE",
"167 703 OFFCURVE",
"142 703 CURVE SMOOTH",
"117 703 OFFCURVE",
"97 682 OFFCURVE",
"97 657 CURVE SMOOTH",
"97 40 LINE SMOOTH",
"97 15 OFFCURVE",
"117 -5 OFFCURVE",
"142 -5 CURVE SMOOTH",
"167 -5 OFFCURVE",
"188 15 OFFCURVE",
"188 40 CURVE SMOOTH",
"188 306 LINE",
"567 306 LINE",
"567 40 LINE SMOOTH",
"567 15 OFFCURVE",
"587 -5 OFFCURVE",
"612 -5 CURVE SMOOTH",
"637 -5 OFFCURVE",
"658 15 OFFCURVE",
"658 40 CURVE SMOOTH",
"658 657 LINE SMOOTH",
"658 682 OFFCURVE",
"637 703 OFFCURVE",
"612 703 CURVE SMOOTH"
);
}
);
width = 755;
}
);
leftKerningGroup = B;
note = H;
rightKerningGroup = H;
unicode = 0048;
},
{
glyphname = I;
layers = (
{
layerId = "A99C00BB-606F-4263-964D-93C8B7F0BADD";
paths = (
{
closed = 1;
nodes = (
"117 703 OFFCURVE",
"97 682 OFFCURVE",
"97 657 CURVE SMOOTH",
"97 40 LINE SMOOTH",
"97 15 OFFCURVE",
"117 -5 OFFCURVE",
"142 -5 CURVE SMOOTH",
"167 -5 OFFCURVE",
"188 15 OFFCURVE",
"188 40 CURVE SMOOTH",
"188 657 LINE SMOOTH",
"188 682 OFFCURVE",
"167 703 OFFCURVE",
"142 703 CURVE SMOOTH"
);
}
);
width = 285;
}
);
leftKerningGroup = B;
note = I;
rightKerningGroup = H;
unicode = 0049;
},
{
glyphname = J;
layers = (
{
layerId = "A99C00BB-606F-4263-964D-93C8B7F0BADD";
paths = (
{
closed = 1;
nodes = (
"302 703 OFFCURVE",
"282 682 OFFCURVE",
"282 657 CURVE SMOOTH",
"282 224 LINE SMOOTH",
"282 98 OFFCURVE",
"221 76 OFFCURVE",
"161 76 CURVE SMOOTH",
"126 76 OFFCURVE",
"95 85 OFFCURVE",
"68 98 CURVE SMOOTH",
"62 101 OFFCURVE",
"55 102 OFFCURVE",
"50 102 CURVE SMOOTH",
"27 102 OFFCURVE",
"12 82 OFFCURVE",
"12 61 CURVE SMOOTH",
"12 42 OFFCURVE",
"22 31 OFFCURVE",
"34 24 CURVE SMOOTH",
"71 3 OFFCURVE",
"116 -10 OFFCURVE",
"167 -10 CURVE SMOOTH",
"269 -10 OFFCURVE",
"373 39 OFFCURVE",
"373 230 CURVE SMOOTH",
"373 657 LINE SMOOTH",
"373 682 OFFCURVE",
"352 703 OFFCURVE",
"327 703 CURVE SMOOTH"
);
}
);
width = 466;
}
);
note = J;
unicode = 004A;
},
{
glyphname = K;
layers = (
{
layerId = "A99C00BB-606F-4263-964D-93C8B7F0BADD";
paths = (
{
closed = 1;
nodes = (
"364 402 LINE",
"595 632 LINE SMOOTH",
"602 639 OFFCURVE",
"605 649 OFFCURVE",
"606 660 CURVE SMOOTH",
"608 684 OFFCURVE",
"588 703 OFFCURVE",
"564 703 CURVE SMOOTH",
"549 703 OFFCURVE",
"537 695 OFFCURVE",
"530 687 CURVE",
"188 339 LINE",
"188 657 LINE SMOOTH",
"188 682 OFFCURVE",
"167 703 OFFCURVE",
"142 703 CURVE SMOOTH",
"117 703 OFFCURVE",
"97 682 OFFCURVE",
"97 657 CURVE SMOOTH",
"97 40 LINE SMOOTH",
"97 15 OFFCURVE",
"117 -5 OFFCURVE",
"142 -5 CURVE SMOOTH",
"167 -5 OFFCURVE",
"188 15 OFFCURVE",
"188 40 CURVE SMOOTH",
"188 227 LINE",
"302 342 LINE",
"560 13 LINE",
"568 2 OFFCURVE",
"581 -5 OFFCURVE",
"596 -5 CURVE SMOOTH",
"621 -5 OFFCURVE",
"641 15 OFFCURVE",
"640 39 CURVE",
"640 50 OFFCURVE",
"636 59 OFFCURVE",
"629 68 CURVE SMOOTH"
);
}
);
width = 670;
}
);
leftKerningGroup = B;
note = K;
unicode = 004B;
},
{
glyphname = L;
layers = (
{
layerId = "A99C00BB-606F-4263-964D-93C8B7F0BADD";
paths = (
{
closed = 1;
nodes = (
"188 91 LINE",
"188 657 LINE SMOOTH",
"188 682 OFFCURVE",
"167 703 OFFCURVE",
"142 703 CURVE SMOOTH",
"117 703 OFFCURVE",
"97 682 OFFCURVE",
"97 657 CURVE SMOOTH",
"97 63 LINE SMOOTH",
"97 28 OFFCURVE",
"125 0 OFFCURVE",
"160 0 CURVE SMOOTH",
"515 0 LINE SMOOTH",
"540 0 OFFCURVE",
"561 20 OFFCURVE",
"561 45 CURVE SMOOTH",
"561 70 OFFCURVE",
"540 91 OFFCURVE",
"515 91 CURVE SMOOTH"
);
}
);
width = 576;
}
);
leftKerningGroup = B;
note = L;
unicode = 004C;
},
{
glyphname = M;
layers = (
{
layerId = "A99C00BB-606F-4263-964D-93C8B7F0BADD";
paths = (
{
closed = 1;
nodes = (
"771 703 LINE SMOOTH",
"744 703 OFFCURVE",
"720 685 OFFCURVE",
"710 661 CURVE SMOOTH",
"483 95 LINE",
"256 661 LINE SMOOTH",
"246 685 OFFCURVE",
"222 703 OFFCURVE",
"195 703 CURVE SMOOTH",
"162 703 LINE SMOOTH",
"126 703 OFFCURVE",
"97 673 OFFCURVE",
"97 637 CURVE SMOOTH",
"97 40 LINE SMOOTH",
"97 15 OFFCURVE",
"117 -5 OFFCURVE",
"142 -5 CURVE SMOOTH",
"167 -5 OFFCURVE",
"188 15 OFFCURVE",
"188 40 CURVE SMOOTH",
"188 608 LINE",
"419 37 LINE SMOOTH",
"430 12 OFFCURVE",
"454 -5 OFFCURVE",
"483 -5 CURVE SMOOTH",
"512 -5 OFFCURVE",
"536 12 OFFCURVE",
"547 37 CURVE SMOOTH",
"778 608 LINE",
"778 40 LINE SMOOTH",
"778 15 OFFCURVE",
"799 -5 OFFCURVE",
"824 -5 CURVE SMOOTH",
"849 -5 OFFCURVE",
"869 15 OFFCURVE",
"869 40 CURVE SMOOTH",
"869 637 LINE SMOOTH",
"869 673 OFFCURVE",
"840 703 OFFCURVE",
"804 703 CURVE SMOOTH"
);
}
);
width = 966;
}
);
leftKerningGroup = B;
note = M;
rightKerningGroup = H;
unicode = 004D;
},
{
glyphname = N;
layers = (
{
layerId = "A99C00BB-606F-4263-964D-93C8B7F0BADD";
paths = (
{
closed = 1;
nodes = (
"635 703 OFFCURVE",
"615 682 OFFCURVE",
"615 657 CURVE SMOOTH",
"615 117 LINE",
"230 673 LINE",
"216 691 OFFCURVE",
"197 703 OFFCURVE",
"175 703 CURVE SMOOTH",
"162 703 LINE SMOOTH",
"126 703 OFFCURVE",
"97 673 OFFCURVE",
"97 637 CURVE SMOOTH",
"97 40 LINE SMOOTH",
"97 15 OFFCURVE",
"117 -5 OFFCURVE",
"142 -5 CURVE SMOOTH",
"167 -5 OFFCURVE",
"188 15 OFFCURVE",
"188 40 CURVE SMOOTH",
"188 581 LINE",
"575 22 LINE",
"587 6 OFFCURVE",
"606 -5 OFFCURVE",
"628 -5 CURVE SMOOTH",
"640 -5 LINE SMOOTH",
"676 -5 OFFCURVE",
"706 24 OFFCURVE",
"706 60 CURVE SMOOTH",
"706 657 LINE SMOOTH",
"706 682 OFFCURVE",
"685 703 OFFCURVE",
"660 703 CURVE SMOOTH"
);
}
);
width = 803;
}
);
leftKerningGroup = B;
note = N;
rightKerningGroup = H;
unicode = 004E;
},
{
glyphname = O;
layers = (
{
layerId = "A99C00BB-606F-4263-964D-93C8B7F0BADD";
paths = (
{
closed = 1;
nodes = (
"192 708 OFFCURVE",
"59 558 OFFCURVE",
"55 349 CURVE",
"59 140 OFFCURVE",
"192 -10 OFFCURVE",
"406 -10 CURVE SMOOTH",
"619 -10 OFFCURVE",
"753 140 OFFCURVE",
"757 349 CURVE",
"753 558 OFFCURVE",
"619 708 OFFCURVE",
"406 708 CURVE SMOOTH"
);
},
{
closed = 1;
nodes = (
"240 75 OFFCURVE",
"146 195 OFFCURVE",
"146 349 CURVE SMOOTH",
"146 503 OFFCURVE",
"240 623 OFFCURVE",
"406 623 CURVE SMOOTH",
"571 623 OFFCURVE",
"666 503 OFFCURVE",
"666 349 CURVE SMOOTH",
"666 195 OFFCURVE",
"571 75 OFFCURVE",
"406 75 CURVE SMOOTH"
);
}
);
width = 811;
}
);
leftKerningGroup = C;
note = O;
rightKerningGroup = O;
unicode = 004F;
},
{
glyphname = P;
layers = (
{
layerId = "A99C00BB-606F-4263-964D-93C8B7F0BADD";
paths = (
{
closed = 1;
nodes = (
"142 698 LINE SMOOTH",
"117 698 OFFCURVE",
"97 677 OFFCURVE",
"97 652 CURVE SMOOTH",
"97 40 LINE SMOOTH",
"97 15 OFFCURVE",
"117 -5 OFFCURVE",
"142 -5 CURVE SMOOTH",
"167 -5 OFFCURVE",
"188 15 OFFCURVE",
"188 40 CURVE SMOOTH",
"188 254 LINE",
"370 254 LINE SMOOTH",
"572 254 OFFCURVE",
"637 370 OFFCURVE",
"637 476 CURVE SMOOTH",
"637 582 OFFCURVE",
"572 698 OFFCURVE",
"370 698 CURVE SMOOTH"
);
},
{
closed = 1;
nodes = (
"188 340 LINE",
"188 612 LINE",
"361 612 LINE SMOOTH",
"510 612 OFFCURVE",
"546 541 OFFCURVE",
"546 476 CURVE SMOOTH",
"546 411 OFFCURVE",
"510 340 OFFCURVE",
"361 340 CURVE SMOOTH"
);
}
);
width = 669;
}
);
leftKerningGroup = B;
note = P;
unicode = 0050;
},
{
glyphname = Q;
layers = (
{
layerId = "A99C00BB-606F-4263-964D-93C8B7F0BADD";
paths = (
{
closed = 1;
nodes = (
"753 558 OFFCURVE",
"619 708 OFFCURVE",
"406 708 CURVE SMOOTH",
"192 708 OFFCURVE",
"59 558 OFFCURVE",
"55 349 CURVE",
"59 140 OFFCURVE",
"192 -10 OFFCURVE",
"406 -10 CURVE SMOOTH",
"427 -10 OFFCURVE",
"447 -9 OFFCURVE",
"466 -6 CURVE",
"575 -136 LINE SMOOTH",
"583 -146 OFFCURVE",
"594 -152 OFFCURVE",
"607 -152 CURVE SMOOTH",
"631 -152 OFFCURVE",
"651 -132 OFFCURVE",
"650 -109 CURVE",
"650 -98 OFFCURVE",
"645 -87 OFFCURVE",
"638 -80 CURVE",
"550 17 LINE",
"678 70 OFFCURVE",
"754 193 OFFCURVE",
"757 349 CURVE"
);
},
{
closed = 1;
nodes = (
"240 75 OFFCURVE",
"146 195 OFFCURVE",
"146 349 CURVE SMOOTH",
"146 503 OFFCURVE",
"240 623 OFFCURVE",
"406 623 CURVE SMOOTH",
"571 623 OFFCURVE",
"666 503 OFFCURVE",
"666 349 CURVE SMOOTH",
"666 195 OFFCURVE",
"571 75 OFFCURVE",
"406 75 CURVE SMOOTH"
);
}
);
width = 812;
}
);
leftKerningGroup = C;
note = Q;
rightKerningGroup = O;
unicode = 0051;
},
{
glyphname = R;
layers = (
{
layerId = "A99C00BB-606F-4263-964D-93C8B7F0BADD";
paths = (
{
closed = 1;
nodes = (
"641 86 LINE SMOOTH",
"641 142 OFFCURVE",
"627 285 OFFCURVE",
"516 314 CURVE",
"604 344 OFFCURVE",
"647 418 OFFCURVE",
"647 495 CURVE SMOOTH",
"647 610 OFFCURVE",
"565 698 OFFCURVE",
"375 698 CURVE SMOOTH",
"142 698 LINE SMOOTH",
"117 698 OFFCURVE",
"97 677 OFFCURVE",
"97 652 CURVE SMOOTH",
"97 40 LINE SMOOTH",
"97 15 OFFCURVE",
"117 -5 OFFCURVE",
"142 -5 CURVE SMOOTH",
"167 -5 OFFCURVE",
"188 15 OFFCURVE",
"188 40 CURVE SMOOTH",
"188 272 LINE",
"395 272 LINE SMOOTH",
"546 272 OFFCURVE",
"550 136 OFFCURVE",
"550 70 CURVE SMOOTH",
"550 40 LINE SMOOTH",
"550 13 OFFCURVE",
"568 -5 OFFCURVE",
"596 -5 CURVE SMOOTH",
"621 -5 OFFCURVE",
"641 15 OFFCURVE",
"641 40 CURVE SMOOTH"
);
},
{
closed = 1;
nodes = (
"188 358 LINE",
"188 612 LINE",
"364 612 LINE SMOOTH",
"512 612 OFFCURVE",
"556 562 OFFCURVE",
"556 488 CURVE SMOOTH",
"556 403 OFFCURVE",
"481 358 OFFCURVE",
"369 358 CURVE SMOOTH"
);
}
);
width = 712;
}
);
leftKerningGroup = B;
note = R;
unicode = 0052;
},
{
glyphname = S;
layers = (
{
layerId = "A99C00BB-606F-4263-964D-93C8B7F0BADD";
paths = (
{
closed = 1;
nodes = (
"149 585 OFFCURVE",
"226 624 OFFCURVE",
"327 624 CURVE SMOOTH",
"388 624 OFFCURVE",
"442 613 OFFCURVE",
"488 597 CURVE",
"493 595 OFFCURVE",
"499 593 OFFCURVE",
"504 593 CURVE SMOOTH",
"529 593 OFFCURVE",
"544 615 OFFCURVE",
"544 635 CURVE SMOOTH",
"544 659 OFFCURVE",
"530 670 OFFCURVE",
"516 675 CURVE SMOOTH",
"462 695 OFFCURVE",
"395 708 OFFCURVE",
"317 708 CURVE SMOOTH",
"148 708 OFFCURVE",
"58 614 OFFCURVE",
"58 503 CURVE SMOOTH",
"58 257 OFFCURVE",
"483 339 OFFCURVE",
"483 191 CURVE SMOOTH",
"483 104 OFFCURVE",
"407 76 OFFCURVE",
"308 76 CURVE SMOOTH",
"222 76 OFFCURVE",
"156 97 OFFCURVE",
"111 117 CURVE SMOOTH",
"104 120 OFFCURVE",
"98 121 OFFCURVE",
"92 121 CURVE SMOOTH",
"67 121 OFFCURVE",
"51 101 OFFCURVE",
"51 79 CURVE SMOOTH",
"51 61 OFFCURVE",
"64 44 OFFCURVE",
"79 38 CURVE SMOOTH",
"137 13 OFFCURVE",
"217 -10 OFFCURVE",
"317 -10 CURVE SMOOTH",
"472 -10 OFFCURVE",
"573 72 OFFCURVE",
"573 185 CURVE SMOOTH",
"573 449 OFFCURVE",
"149 337 OFFCURVE",
"149 510 CURVE SMOOTH"
);
}
);
width = 616;
}
);
leftKerningGroup = S;
note = S;
rightKerningGroup = S;
unicode = 0053;
},
{
glyphname = T;
layers = (
{
layerId = "A99C00BB-606F-4263-964D-93C8B7F0BADD";
paths = (
{
closed = 1;
nodes = (
"56 698 LINE SMOOTH",
"32 698 OFFCURVE",
"14 679 OFFCURVE",
"14 655 CURVE SMOOTH",
"14 631 OFFCURVE",
"32 613 OFFCURVE",
"56 613 CURVE SMOOTH",
"260 613 LINE",
"260 40 LINE SMOOTH",
"260 15 OFFCURVE",
"280 -5 OFFCURVE",
"305 -5 CURVE SMOOTH",
"330 -5 OFFCURVE",
"351 15 OFFCURVE",
"351 40 CURVE SMOOTH",
"351 613 LINE",
"554 613 LINE SMOOTH",
"578 613 OFFCURVE",
"597 631 OFFCURVE",
"597 655 CURVE SMOOTH",
"597 679 OFFCURVE",
"578 698 OFFCURVE",
"554 698 CURVE SMOOTH"
);
}
);
width = 611;
}
);
leftKerningGroup = T;
note = T;
rightKerningGroup = T;
unicode = 0054;
},
{
glyphname = U;
layers = (
{
layerId = "A99C00BB-606F-4263-964D-93C8B7F0BADD";
paths = (
{
closed = 1;
nodes = (
"595 703 OFFCURVE",
"575 682 OFFCURVE",
"575 657 CURVE SMOOTH",
"575 259 LINE SMOOTH",
"575 134 OFFCURVE",
"477 73 OFFCURVE",
"379 73 CURVE SMOOTH",
"281 73 OFFCURVE",
"183 134 OFFCURVE",
"183 259 CURVE SMOOTH",
"183 657 LINE SMOOTH",
"183 682 OFFCURVE",
"162 703 OFFCURVE",
"137 703 CURVE SMOOTH",
"112 703 OFFCURVE",
"92 682 OFFCURVE",
"92 657 CURVE SMOOTH",
"92 262 LINE SMOOTH",
"92 74 OFFCURVE",
"245 -10 OFFCURVE",
"379 -10 CURVE SMOOTH",
"513 -10 OFFCURVE",
"666 74 OFFCURVE",
"666 262 CURVE SMOOTH",
"666 657 LINE SMOOTH",
"666 682 OFFCURVE",
"645 703 OFFCURVE",
"620 703 CURVE SMOOTH"
);
}
);
width = 758;
}
);
leftKerningGroup = U;
note = U;
rightKerningGroup = U;
unicode = 0055;
},
{
glyphname = V;
layers = (
{
layerId = "A99C00BB-606F-4263-964D-93C8B7F0BADD";
paths = (
{
closed = 1;
nodes = (
"112 672 LINE SMOOTH",
"104 691 OFFCURVE",
"87 703 OFFCURVE",
"69 703 CURVE SMOOTH",
"41 703 OFFCURVE",
"24 684 OFFCURVE",
"24 657 CURVE SMOOTH",
"24 652 OFFCURVE",
"25 645 OFFCURVE",
"27 640 CURVE SMOOTH",
"274 41 LINE SMOOTH",
"287 12 OFFCURVE",
"308 -5 OFFCURVE",
"336 -5 CURVE SMOOTH",
"358 -5 LINE SMOOTH",
"386 -5 OFFCURVE",
"407 12 OFFCURVE",
"420 41 CURVE SMOOTH",
"667 640 LINE SMOOTH",
"669 645 OFFCURVE",
"670 652 OFFCURVE",
"670 657 CURVE SMOOTH",
"670 684 OFFCURVE",
"653 703 OFFCURVE",
"625 703 CURVE SMOOTH",
"607 703 OFFCURVE",
"590 691 OFFCURVE",
"582 672 CURVE SMOOTH",
"347 86 LINE"
);
}
);
width = 694;
}
);
note = V;
unicode = 0056;
},
{
glyphname = W;
layers = (
{
layerId = "A99C00BB-606F-4263-964D-93C8B7F0BADD";
paths = (
{
closed = 1;
nodes = (
"480 703 OFFCURVE",
"459 687 OFFCURVE",
"452 665 CURVE SMOOTH",
"283 115 LINE",
"115 667 LINE SMOOTH",
"109 688 OFFCURVE",
"92 703 OFFCURVE",
"70 703 CURVE SMOOTH",
"44 703 OFFCURVE",
"24 684 OFFCURVE",
"26 659 CURVE",
"26 654 OFFCURVE",
"27 649 OFFCURVE",
"29 642 CURVE",
"225 40 LINE SMOOTH",
"236 9 OFFCURVE",
"259 -5 OFFCURVE",
"284 -5 CURVE SMOOTH",
"311 -5 OFFCURVE",
"335 14 OFFCURVE",
"343 40 CURVE SMOOTH",
"504 550 LINE",
"665 40 LINE SMOOTH",
"673 14 OFFCURVE",
"697 -5 OFFCURVE",
"724 -5 CURVE SMOOTH",
"749 -5 OFFCURVE",
"772 9 OFFCURVE",
"783 40 CURVE SMOOTH",
"979 642 LINE",
"981 649 OFFCURVE",
"982 654 OFFCURVE",
"982 659 CURVE",
"984 684 OFFCURVE",
"964 703 OFFCURVE",
"938 703 CURVE SMOOTH",
"916 703 OFFCURVE",
"899 688 OFFCURVE",
"893 667 CURVE SMOOTH",
"725 115 LINE",
"556 665 LINE SMOOTH",
"549 687 OFFCURVE",
"528 703 OFFCURVE",
"504 703 CURVE SMOOTH"
);
}
);
width = 1007;
}
);
note = W;
unicode = 0057;
},
{
glyphname = X;
layers = (
{
layerId = "A99C00BB-606F-4263-964D-93C8B7F0BADD";
paths = (
{
closed = 1;
nodes = (
"386 350 LINE",
"617 635 LINE",
"622 642 OFFCURVE",
"625 651 OFFCURVE",
"625 660 CURVE SMOOTH",
"625 684 OFFCURVE",
"605 703 OFFCURVE",
"581 703 CURVE SMOOTH",
"567 703 OFFCURVE",
"555 697 OFFCURVE",
"548 687 CURVE",
"337 417 LINE",
"126 685 LINE",
"118 696 OFFCURVE",
"104 703 OFFCURVE",
"89 703 CURVE SMOOTH",
"64 703 OFFCURVE",
"45 684 OFFCURVE",
"45 659 CURVE SMOOTH",
"45 648 OFFCURVE",
"48 639 OFFCURVE",
"54 631 CURVE",
"283 349 LINE",
"52 65 LINE",
"46 57 OFFCURVE",
"43 47 OFFCURVE",
"43 37 CURVE SMOOTH",
"43 14 OFFCURVE",
"62 -5 OFFCURVE",
"85 -5 CURVE SMOOTH",
"100 -5 OFFCURVE",
"111 2 OFFCURVE",
"120 13 CURVE SMOOTH",
"331 283 LINE",
"545 14 LINE",
"553 3 OFFCURVE",
"566 -5 OFFCURVE",
"581 -5 CURVE SMOOTH",
"609 -5 OFFCURVE",
"626 16 OFFCURVE",
"626 40 CURVE SMOOTH",
"626 50 OFFCURVE",
"623 59 OFFCURVE",
"617 66 CURVE SMOOTH"
);
}
);
width = 669;
}
);
note = X;
unicode = 0058;
},
{
glyphname = Y;
layers = (
{
layerId = "A99C00BB-606F-4263-964D-93C8B7F0BADD";
paths = (
{
closed = 1;
nodes = (
"323 376 LINE",
"114 680 LINE SMOOTH",
"104 695 OFFCURVE",
"91 703 OFFCURVE",
"74 703 CURVE SMOOTH",
"48 703 OFFCURVE",
"29 682 OFFCURVE",
"30 657 CURVE",
"30 647 OFFCURVE",
"33 638 OFFCURVE",
"38 630 CURVE",
"277 295 LINE",
"277 40 LINE SMOOTH",
"277 15 OFFCURVE",
"298 -5 OFFCURVE",
"323 -5 CURVE SMOOTH",
"348 -5 OFFCURVE",
"368 15 OFFCURVE",
"368 40 CURVE SMOOTH",
"368 295 LINE",
"608 630 LINE",
"613 638 OFFCURVE",
"616 647 OFFCURVE",
"616 657 CURVE",
"617 682 OFFCURVE",
"598 703 OFFCURVE",
"572 703 CURVE SMOOTH",
"555 703 OFFCURVE",
"542 695 OFFCURVE",
"532 680 CURVE SMOOTH"
);
}
);
width = 645;
}
);
leftKerningGroup = Y;
note = Y;
rightKerningGroup = Y;
unicode = 0059;
},
{
glyphname = Z;
layers = (
{
layerId = "A99C00BB-606F-4263-964D-93C8B7F0BADD";
paths = (
{
closed = 1;
nodes = (
"158 85 LINE",
"571 596 LINE",
"581 607 OFFCURVE",
"587 623 OFFCURVE",
"587 636 CURVE SMOOTH",
"587 669 OFFCURVE",
"564 698 OFFCURVE",
"526 698 CURVE SMOOTH",
"92 698 LINE SMOOTH",
"68 698 OFFCURVE",
"49 678 OFFCURVE",
"49 654 CURVE SMOOTH",
"49 630 OFFCURVE",
"68 611 OFFCURVE",
"92 611 CURVE SMOOTH",
"477 611 LINE",
"59 95 LINE SMOOTH",
"51 85 OFFCURVE",
"47 72 OFFCURVE",
"47 58 CURVE SMOOTH",
"47 26 OFFCURVE",
"73 0 OFFCURVE",
"105 0 CURVE SMOOTH",
"550 0 LINE SMOOTH",
"574 0 OFFCURVE",
"593 18 OFFCURVE",
"593 42 CURVE SMOOTH",
"593 66 OFFCURVE",
"574 85 OFFCURVE",
"550 85 CURVE SMOOTH"
);
}
);
width = 638;
}
);
note = Z;
unicode = 005A;
},
{
glyphname = bracketleft;
layers = (
{
layerId = "A99C00BB-606F-4263-964D-93C8B7F0BADD";
paths = (
{
closed = 1;
nodes = (
"166 -61 LINE",
"166 660 LINE",
"258 660 LINE SMOOTH",
"278 660 OFFCURVE",
"294 676 OFFCURVE",
"294 696 CURVE SMOOTH",
"294 716 OFFCURVE",
"278 732 OFFCURVE",
"258 732 CURVE SMOOTH",
"131 732 LINE SMOOTH",
"107 732 OFFCURVE",
"87 712 OFFCURVE",
"87 688 CURVE SMOOTH",
"87 -88 LINE SMOOTH",
"87 -112 OFFCURVE",
"107 -132 OFFCURVE",
"131 -132 CURVE SMOOTH",
"258 -132 LINE SMOOTH",
"278 -132 OFFCURVE",
"294 -115 OFFCURVE",
"294 -96 CURVE SMOOTH",
"294 -77 OFFCURVE",
"278 -61 OFFCURVE",
"258 -61 CURVE SMOOTH"
);
}
);
width = 322;
}
);
note = bracketleft;
unicode = 005B;
},
{
glyphname = backslash;
layers = (
{
layerId = "A99C00BB-606F-4263-964D-93C8B7F0BADD";
paths = (
{
closed = 1;
nodes = (
"64 764 OFFCURVE",
"47 746 OFFCURVE",
"47 723 CURVE SMOOTH",
"47 718 OFFCURVE",
"49 711 OFFCURVE",
"50 708 CURVE SMOOTH",
"315 -67 LINE SMOOTH",
"320 -83 OFFCURVE",
"334 -95 OFFCURVE",
"354 -95 CURVE SMOOTH",
"378 -95 OFFCURVE",
"395 -77 OFFCURVE",
"395 -54 CURVE SMOOTH",
"395 -49 OFFCURVE",
"393 -42 OFFCURVE",
"392 -39 CURVE SMOOTH",
"127 736 LINE SMOOTH",
"122 752 OFFCURVE",
"108 764 OFFCURVE",
"88 764 CURVE SMOOTH"
);
}
);
width = 443;
}
);
note = backslash;
unicode = 005C;
},
{
glyphname = bracketright;
layers = (
{
layerId = "A99C00BB-606F-4263-964D-93C8B7F0BADD";
paths = (
{
closed = 1;
nodes = (
"64 -61 LINE SMOOTH",
"44 -61 OFFCURVE",
"28 -77 OFFCURVE",
"28 -96 CURVE SMOOTH",
"28 -115 OFFCURVE",
"44 -132 OFFCURVE",
"64 -132 CURVE SMOOTH",
"191 -132 LINE SMOOTH",
"215 -132 OFFCURVE",
"235 -112 OFFCURVE",
"235 -88 CURVE SMOOTH",
"235 688 LINE SMOOTH",
"235 712 OFFCURVE",
"215 732 OFFCURVE",
"191 732 CURVE SMOOTH",
"64 732 LINE SMOOTH",
"44 732 OFFCURVE",
"28 716 OFFCURVE",
"28 696 CURVE SMOOTH",
"28 676 OFFCURVE",
"44 660 OFFCURVE",
"64 660 CURVE SMOOTH",
"156 660 LINE",
"156 -61 LINE"
);
}
);
width = 322;
}
);
note = bracketright;
unicode = 005D;
},
{
glyphname = asciicircum;
layers = (
{
layerId = "A99C00BB-606F-4263-964D-93C8B7F0BADD";
paths = (
{
closed = 1;
nodes = (
"242 702 LINE SMOOTH",
"216 702 OFFCURVE",
"203 687 OFFCURVE",
"193 668 CURVE SMOOTH",
"88 469 LINE SMOOTH",
"85 463 OFFCURVE",
"82 458 OFFCURVE",
"82 451 CURVE SMOOTH",
"82 432 OFFCURVE",
"97 415 OFFCURVE",
"118 415 CURVE SMOOTH",
"129 415 OFFCURVE",
"138 419 OFFCURVE",
"144 426 CURVE",
"146 428 OFFCURVE",
"150 436 OFFCURVE",
"261 616 CURVE",
"374 434 OFFCURVE",
"376 428 OFFCURVE",
"378 426 CURVE",
"384 419 OFFCURVE",
"393 415 OFFCURVE",
"404 415 CURVE SMOOTH",
"425 415 OFFCURVE",
"440 432 OFFCURVE",
"440 451 CURVE SMOOTH",
"440 458 OFFCURVE",
"437 463 OFFCURVE",
"434 469 CURVE SMOOTH",
"329 668 LINE SMOOTH",
"319 687 OFFCURVE",
"306 702 OFFCURVE",
"280 702 CURVE SMOOTH"
);
}
);
width = 524;
}
);
note = asciicircum;
unicode = 005E;
},
{
glyphname = underscore;
layers = (
{
layerId = "A99C00BB-606F-4263-964D-93C8B7F0BADD";
paths = (
{
closed = 1;
nodes = (
"85 -81 LINE SMOOTH",
"67 -81 OFFCURVE",
"52 -96 OFFCURVE",
"52 -114 CURVE SMOOTH",
"52 -132 OFFCURVE",
"67 -147 OFFCURVE",
"85 -147 CURVE SMOOTH",
"578 -147 LINE SMOOTH",
"596 -147 OFFCURVE",
"611 -132 OFFCURVE",
"611 -114 CURVE SMOOTH",
"611 -96 OFFCURVE",
"596 -81 OFFCURVE",
"578 -81 CURVE SMOOTH"
);
}
);
width = 663;
}
);
note = underscore;
unicode = 005F;
},
{
glyphname = grave;
layers = (
{
layerId = "A99C00BB-606F-4263-964D-93C8B7F0BADD";
paths = (
{
closed = 1;
nodes = (
"84 722 OFFCURVE",
"69 707 OFFCURVE",
"69 685 CURVE SMOOTH",
"69 676 OFFCURVE",
"72 668 OFFCURVE",
"79 660 CURVE SMOOTH",
"148 578 LINE SMOOTH",
"154 571 OFFCURVE",
"160 567 OFFCURVE",
"170 567 CURVE SMOOTH",
"186 567 OFFCURVE",
"197 578 OFFCURVE",
"197 594 CURVE SMOOTH",
"197 602 OFFCURVE",
"192 610 OFFCURVE",
"190 613 CURVE",
"139 703 LINE SMOOTH",
"133 714 OFFCURVE",
"123 722 OFFCURVE",
"106 722 CURVE SMOOTH"
);
}
);
width = 246;
}
);
note = grave;
unicode = 0060;
},
{
glyphname = a;
layers = (
{
layerId = "A99C00BB-606F-4263-964D-93C8B7F0BADD";
paths = (
{
closed = 1;
nodes = (
"200 520 OFFCURVE",
"145 504 OFFCURVE",
"98 484 CURVE SMOOTH",
"81 477 OFFCURVE",
"72 463 OFFCURVE",
"72 446 CURVE SMOOTH",
"72 424 OFFCURVE",
"89 408 OFFCURVE",
"109 408 CURVE SMOOTH",
"113 408 OFFCURVE",
"118 409 OFFCURVE",
"122 410 CURVE",
"159 422 OFFCURVE",
"199 434 OFFCURVE",
"255 434 CURVE SMOOTH",
"345 434 OFFCURVE",
"389 399 OFFCURVE",
"389 310 CURVE SMOOTH",
"389 302 LINE",
"268 302 LINE SMOOTH",
"112 302 OFFCURVE",
"38 234 OFFCURVE",
"38 140 CURVE SMOOTH",
"38 46 OFFCURVE",
"114 -10 OFFCURVE",
"201 -10 CURVE SMOOTH",
"295 -10 OFFCURVE",
"353 29 OFFCURVE",
"389 66 CURVE",
"389 40 LINE SMOOTH",
"389 15 OFFCURVE",
"409 -5 OFFCURVE",
"434 -5 CURVE SMOOTH",
"459 -5 OFFCURVE",
"480 15 OFFCURVE",
"480 40 CURVE SMOOTH",
"480 323 LINE SMOOTH",
"480 421 OFFCURVE",
"417 520 OFFCURVE",
"271 520 CURVE SMOOTH"
);
},
{
closed = 1;
nodes = (
"154 70 OFFCURVE",
"129 107 OFFCURVE",
"129 150 CURVE SMOOTH",
"129 207 OFFCURVE",
"186 229 OFFCURVE",
"280 229 CURVE SMOOTH",
"389 229 LINE",
"389 145 LINE",
"355 106 OFFCURVE",
"297 70 OFFCURVE",
"235 70 CURVE SMOOTH"
);
}
);
width = 555;
}
);
leftKerningGroup = a;
note = a;
rightKerningGroup = a;
unicode = 0061;
},
{
glyphname = b;
layers = (
{
layerId = "A99C00BB-606F-4263-964D-93C8B7F0BADD";
paths = (
{
closed = 1;
nodes = (
"271 520 OFFCURVE",
"216 492 OFFCURVE",
"170 444 CURVE",
"170 689 LINE SMOOTH",
"170 715 OFFCURVE",
"150 735 OFFCURVE",
"124 735 CURVE SMOOTH",
"99 735 OFFCURVE",
"79 715 OFFCURVE",
"79 689 CURVE SMOOTH",
"79 40 LINE SMOOTH",
"79 15 OFFCURVE",
"99 -5 OFFCURVE",
"124 -5 CURVE SMOOTH",
"150 -5 OFFCURVE",
"170 15 OFFCURVE",
"170 40 CURVE SMOOTH",
"170 66 LINE",
"216 18 OFFCURVE",
"271 -10 OFFCURVE",
"341 -10 CURVE SMOOTH",
"462 -10 OFFCURVE",
"583 85 OFFCURVE",
"583 255 CURVE SMOOTH",
"583 425 OFFCURVE",
"462 520 OFFCURVE",
"341 520 CURVE SMOOTH"
);
},
{
closed = 1;
nodes = (
"263 75 OFFCURVE",
"209 107 OFFCURVE",
"170 150 CURVE",
"170 360 LINE",
"209 403 OFFCURVE",
"263 435 OFFCURVE",
"328 435 CURVE SMOOTH",
"423 435 OFFCURVE",
"492 373 OFFCURVE",
"492 255 CURVE SMOOTH",
"492 137 OFFCURVE",
"423 75 OFFCURVE",
"328 75 CURVE SMOOTH"
);
}
);
width = 631;
}
);
leftKerningGroup = b;
note = b;
rightKerningGroup = b;
unicode = 0062;
},
{
glyphname = c;
layers = (
{
layerId = "A99C00BB-606F-4263-964D-93C8B7F0BADD";
paths = (
{
closed = 1;
nodes = (
"450 113 OFFCURVE",
"445 112 OFFCURVE",
"436 107 CURVE SMOOTH",
"401 89 OFFCURVE",
"373 75 OFFCURVE",
"321 75 CURVE SMOOTH",
"205 75 OFFCURVE",
"137 148 OFFCURVE",
"137 255 CURVE SMOOTH",
"137 362 OFFCURVE",
"205 435 OFFCURVE",
"321 435 CURVE SMOOTH",
"373 435 OFFCURVE",
"401 421 OFFCURVE",
"436 403 CURVE SMOOTH",
"445 398 OFFCURVE",
"450 397 OFFCURVE",
"458 397 CURVE SMOOTH",
"479 397 OFFCURVE",
"496 418 OFFCURVE",
"496 437 CURVE SMOOTH",
"496 452 OFFCURVE",
"488 464 OFFCURVE",
"476 472 CURVE SMOOTH",
"442 494 OFFCURVE",
"392 520 OFFCURVE",
"313 520 CURVE SMOOTH",
"171 520 OFFCURVE",
"46 422 OFFCURVE",
"46 255 CURVE SMOOTH",
"46 88 OFFCURVE",
"171 -10 OFFCURVE",
"313 -10 CURVE SMOOTH",
"392 -10 OFFCURVE",
"442 16 OFFCURVE",
"476 38 CURVE SMOOTH",
"488 46 OFFCURVE",
"496 58 OFFCURVE",
"496 73 CURVE SMOOTH",
"496 92 OFFCURVE",
"479 113 OFFCURVE",
"458 113 CURVE SMOOTH"
);
}
);
width = 536;
}
);
leftKerningGroup = c;
note = c;
rightKerningGroup = c;
unicode = 0063;
},
{
glyphname = d;
layers = (
{
layerId = "A99C00BB-606F-4263-964D-93C8B7F0BADD";
paths = (
{
closed = 1;
nodes = (
"169 520 OFFCURVE",
"48 425 OFFCURVE",
"48 255 CURVE SMOOTH",
"48 85 OFFCURVE",
"169 -10 OFFCURVE",
"290 -10 CURVE SMOOTH",
"360 -10 OFFCURVE",
"415 18 OFFCURVE",
"461 66 CURVE",
"461 40 LINE SMOOTH",
"461 15 OFFCURVE",
"481 -5 OFFCURVE",
"507 -5 CURVE SMOOTH",
"532 -5 OFFCURVE",
"552 15 OFFCURVE",
"552 40 CURVE SMOOTH",
"552 689 LINE SMOOTH",
"552 715 OFFCURVE",
"532 735 OFFCURVE",
"507 735 CURVE SMOOTH",
"481 735 OFFCURVE",
"461 715 OFFCURVE",
"461 689 CURVE SMOOTH",
"461 444 LINE",
"415 492 OFFCURVE",
"360 520 OFFCURVE",
"290 520 CURVE SMOOTH"
);
},
{
closed = 1;
nodes = (
"208 75 OFFCURVE",
"139 137 OFFCURVE",
"139 255 CURVE SMOOTH",
"139 373 OFFCURVE",
"208 435 OFFCURVE",
"303 435 CURVE SMOOTH",
"368 435 OFFCURVE",
"422 403 OFFCURVE",
"461 360 CURVE",
"461 150 LINE",
"422 107 OFFCURVE",
"368 75 OFFCURVE",
"303 75 CURVE SMOOTH"
);
}
);
width = 631;
}
);
leftKerningGroup = c;
note = d;
unicode = 0064;
},
{
glyphname = e;
layers = (
{
layerId = "A99C00BB-606F-4263-964D-93C8B7F0BADD";
paths = (
{
closed = 1;
nodes = (
"462 110 OFFCURVE",
"457 109 OFFCURVE",
"451 106 CURVE SMOOTH",
"414 87 OFFCURVE",
"376 75 OFFCURVE",
"316 75 CURVE SMOOTH",
"208 75 OFFCURVE",
"151 133 OFFCURVE",
"141 223 CURVE",
"480 223 LINE SMOOTH",
"508 223 OFFCURVE",
"526 243 OFFCURVE",
"526 268 CURVE SMOOTH",
"526 401 OFFCURVE",
"442 520 OFFCURVE",
"288 520 CURVE SMOOTH",
"122 520 OFFCURVE",
"49 390 OFFCURVE",
"49 255 CURVE SMOOTH",
"49 87 OFFCURVE",
"145 -10 OFFCURVE",
"308 -10 CURVE SMOOTH",
"395 -10 OFFCURVE",
"439 9 OFFCURVE",
"483 34 CURVE SMOOTH",
"497 42 OFFCURVE",
"509 55 OFFCURVE",
"509 71 CURVE SMOOTH",
"509 94 OFFCURVE",
"490 110 OFFCURVE",
"469 110 CURVE SMOOTH"
);
},
{
closed = 1;
nodes = (
"352 443 OFFCURVE",
"430 401 OFFCURVE",
"436 297 CURVE",
"141 297 LINE",
"147 401 OFFCURVE",
"224 443 OFFCURVE",
"288 443 CURVE SMOOTH"
);
}
);
width = 570;
}
);
leftKerningGroup = c;
note = e;
rightKerningGroup = e;
unicode = 0065;
},
{
glyphname = f;
layers = (
{
layerId = "A99C00BB-606F-4263-964D-93C8B7F0BADD";
paths = (
{
closed = 1;
nodes = (
"309 653 OFFCURVE",
"324 647 OFFCURVE",
"340 647 CURVE SMOOTH",
"361 647 OFFCURVE",
"377 666 OFFCURVE",
"377 685 CURVE SMOOTH",
"377 701 OFFCURVE",
"366 714 OFFCURVE",
"354 720 CURVE SMOOTH",
"330 732 OFFCURVE",
"300 740 OFFCURVE",
"267 740 CURVE SMOOTH",
"196 740 OFFCURVE",
"117 694 OFFCURVE",
"117 568 CURVE SMOOTH",
"117 510 LINE",
"58 510 LINE SMOOTH",
"36 510 OFFCURVE",
"19 493 OFFCURVE",
"19 471 CURVE SMOOTH",
"19 449 OFFCURVE",
"36 432 OFFCURVE",
"58 432 CURVE SMOOTH",
"117 432 LINE",
"117 40 LINE SMOOTH",
"117 15 OFFCURVE",
"137 -5 OFFCURVE",
"162 -5 CURVE SMOOTH",
"188 -5 OFFCURVE",
"208 15 OFFCURVE",
"208 40 CURVE SMOOTH",
"208 432 LINE",
"333 432 LINE SMOOTH",
"355 432 OFFCURVE",
"372 449 OFFCURVE",
"372 471 CURVE SMOOTH",
"372 493 OFFCURVE",
"355 510 OFFCURVE",
"333 510 CURVE SMOOTH",
"208 510 LINE",
"208 565 LINE SMOOTH",
"208 636 OFFCURVE",
"240 653 OFFCURVE",
"290 653 CURVE SMOOTH"
);
}
);
width = 380;
}
);
leftKerningGroup = f;
note = f;
rightKerningGroup = f;
unicode = 0066;
},
{
glyphname = g;
layers = (
{
layerId = "A99C00BB-606F-4263-964D-93C8B7F0BADD";
paths = (
{
closed = 1;
nodes = (
"481 515 OFFCURVE",
"461 494 OFFCURVE",
"461 469 CURVE SMOOTH",
"461 444 LINE",
"420 488 OFFCURVE",
"365 520 OFFCURVE",
"290 520 CURVE SMOOTH",
"179 520 OFFCURVE",
"48 437 OFFCURVE",
"48 260 CURVE SMOOTH",
"48 83 OFFCURVE",
"179 0 OFFCURVE",
"290 0 CURVE SMOOTH",
"365 0 OFFCURVE",
"420 32 OFFCURVE",
"461 76 CURVE",
"461 9 LINE SMOOTH",
"461 -99 OFFCURVE",
"410 -154 OFFCURVE",
"308 -154 CURVE SMOOTH",
"240 -154 OFFCURVE",
"185 -137 OFFCURVE",
"143 -116 CURVE",
"138 -114 OFFCURVE",
"132 -112 OFFCURVE",
"125 -112 CURVE SMOOTH",
"102 -112 OFFCURVE",
"85 -133 OFFCURVE",
"85 -153 CURVE SMOOTH",
"85 -172 OFFCURVE",
"93 -182 OFFCURVE",
"103 -188 CURVE SMOOTH",
"150 -215 OFFCURVE",
"236 -240 OFFCURVE",
"317 -240 CURVE SMOOTH",
"467 -240 OFFCURVE",
"552 -146 OFFCURVE",
"552 22 CURVE SMOOTH",
"552 469 LINE SMOOTH",
"552 494 OFFCURVE",
"531 515 OFFCURVE",
"506 515 CURVE SMOOTH"
);
},
{
closed = 1;
nodes = (
"461 157 LINE",
"424 119 OFFCURVE",
"378 83 OFFCURVE",
"309 83 CURVE SMOOTH",
"214 83 OFFCURVE",
"139 140 OFFCURVE",
"139 260 CURVE SMOOTH",
"139 380 OFFCURVE",
"214 437 OFFCURVE",
"309 437 CURVE SMOOTH",
"378 437 OFFCURVE",
"424 401 OFFCURVE",
"461 363 CURVE"
);
}
);
width = 631;
}
);
leftKerningGroup = c;
note = g;
rightKerningGroup = g;
unicode = 0067;
},
{
glyphname = h;
layers = (
{
layerId = "A99C00BB-606F-4263-964D-93C8B7F0BADD";
paths = (
{
closed = 1;
nodes = (
"267 520 OFFCURVE",
"212 474 OFFCURVE",
"170 428 CURVE",
"170 689 LINE SMOOTH",
"170 715 OFFCURVE",
"149 735 OFFCURVE",
"124 735 CURVE SMOOTH",
"99 735 OFFCURVE",
"79 715 OFFCURVE",
"79 689 CURVE SMOOTH",
"79 40 LINE SMOOTH",
"79 15 OFFCURVE",
"99 -5 OFFCURVE",
"124 -5 CURVE SMOOTH",
"149 -5 OFFCURVE",
"170 15 OFFCURVE",
"170 40 CURVE SMOOTH",
"170 340 LINE",
"210 390 OFFCURVE",
"262 436 OFFCURVE",
"334 436 CURVE SMOOTH",
"412 436 OFFCURVE",
"444 390 OFFCURVE",
"444 314 CURVE SMOOTH",
"444 40 LINE SMOOTH",
"444 15 OFFCURVE",
"464 -5 OFFCURVE",
"489 -5 CURVE SMOOTH",
"514 -5 OFFCURVE",
"535 15 OFFCURVE",
"535 40 CURVE SMOOTH",
"535 324 LINE SMOOTH",
"535 431 OFFCURVE",
"470 520 OFFCURVE",
"356 520 CURVE SMOOTH"
);
}
);
width = 609;
}
);
leftKerningGroup = b;
note = h;
rightKerningGroup = h;
unicode = 0068;
},
{
glyphname = i;
layers = (
{
layerId = "A99C00BB-606F-4263-964D-93C8B7F0BADD";
paths = (
{
closed = 1;
nodes = (
"103 515 OFFCURVE",
"83 495 OFFCURVE",
"83 469 CURVE SMOOTH",
"83 40 LINE SMOOTH",
"83 15 OFFCURVE",
"103 -5 OFFCURVE",
"128 -5 CURVE SMOOTH",
"154 -5 OFFCURVE",
"174 15 OFFCURVE",
"174 40 CURVE SMOOTH",
"174 469 LINE SMOOTH",
"174 495 OFFCURVE",
"154 515 OFFCURVE",
"128 515 CURVE SMOOTH"
);
},
{
closed = 1;
nodes = (
"183 697 OFFCURVE",
"160 720 OFFCURVE",
"132 720 CURVE SMOOTH",
"130 720 OFFCURVE",
"128 720 OFFCURVE",
"126 720 CURVE SMOOTH",
"98 720 OFFCURVE",
"75 697 OFFCURVE",
"75 669 CURVE SMOOTH",
"75 666 OFFCURVE",
"75 666 OFFCURVE",
"75 665 CURVE SMOOTH",
"75 637 OFFCURVE",
"98 614 OFFCURVE",
"126 614 CURVE SMOOTH",
"130 614 OFFCURVE",
"131 614 OFFCURVE",
"132 614 CURVE SMOOTH",
"160 614 OFFCURVE",
"183 637 OFFCURVE",
"183 665 CURVE SMOOTH",
"183 666 OFFCURVE",
"183 668 OFFCURVE",
"183 669 CURVE SMOOTH"
);
}
);
width = 257;
}
);
leftKerningGroup = i;
note = i;
rightKerningGroup = i;
unicode = 0069;
},
{
glyphname = j;
layers = (
{
layerId = "A99C00BB-606F-4263-964D-93C8B7F0BADD";
paths = (
{
closed = 1;
nodes = (
"103 514 OFFCURVE",
"83 494 OFFCURVE",
"83 468 CURVE SMOOTH",
"83 -101 LINE SMOOTH",
"83 -155 OFFCURVE",
"57 -160 OFFCURVE",
"22 -160 CURVE SMOOTH",
"10 -160 OFFCURVE",
"1 -157 OFFCURVE",
"-8 -157 CURVE SMOOTH",
"-30 -157 OFFCURVE",
"-46 -175 OFFCURVE",
"-46 -195 CURVE SMOOTH",
"-46 -212 OFFCURVE",
"-36 -226 OFFCURVE",
"-20 -231 CURVE SMOOTH",
"-2 -237 OFFCURVE",
"19 -240 OFFCURVE",
"43 -240 CURVE SMOOTH",
"139 -240 OFFCURVE",
"174 -180 OFFCURVE",
"174 -103 CURVE SMOOTH",
"174 468 LINE SMOOTH",
"174 494 OFFCURVE",
"154 514 OFFCURVE",
"128 514 CURVE SMOOTH"
);
},
{
closed = 1;
nodes = (
"183 697 OFFCURVE",
"160 720 OFFCURVE",
"132 720 CURVE SMOOTH",
"130 720 OFFCURVE",
"128 720 OFFCURVE",
"126 720 CURVE SMOOTH",
"98 720 OFFCURVE",
"75 697 OFFCURVE",
"75 669 CURVE SMOOTH",
"75 666 OFFCURVE",
"75 666 OFFCURVE",
"75 665 CURVE SMOOTH",
"75 637 OFFCURVE",
"98 614 OFFCURVE",
"126 614 CURVE SMOOTH",
"130 614 OFFCURVE",
"131 614 OFFCURVE",
"132 614 CURVE SMOOTH",
"160 614 OFFCURVE",
"183 637 OFFCURVE",
"183 665 CURVE SMOOTH",
"183 666 OFFCURVE",
"183 668 OFFCURVE",
"183 669 CURVE SMOOTH"
);
}
);
width = 257;
}
);
leftKerningGroup = i;
note = j;
rightKerningGroup = i;
unicode = 006A;
},
{
glyphname = k;
layers = (
{
layerId = "A99C00BB-606F-4263-964D-93C8B7F0BADD";
paths = (
{
closed = 1;
nodes = (
"321 306 LINE",
"465 435 LINE",
"479 449 OFFCURVE",
"482 461 OFFCURVE",
"482 469 CURVE SMOOTH",
"482 489 OFFCURVE",
"472 513 OFFCURVE",
"438 513 CURVE SMOOTH",
"426 513 OFFCURVE",
"416 507 OFFCURVE",
"408 500 CURVE SMOOTH",
"170 280 LINE",
"170 689 LINE SMOOTH",
"170 714 OFFCURVE",
"149 735 OFFCURVE",
"124 735 CURVE SMOOTH",
"99 735 OFFCURVE",
"79 714 OFFCURVE",
"79 689 CURVE SMOOTH",
"79 40 LINE SMOOTH",
"79 15 OFFCURVE",
"99 -5 OFFCURVE",
"124 -5 CURVE SMOOTH",
"149 -5 OFFCURVE",
"170 15 OFFCURVE",
"170 40 CURVE SMOOTH",
"170 169 LINE",
"257 248 LINE",
"429 14 LINE",
"438 3 OFFCURVE",
"452 -5 OFFCURVE",
"466 -5 CURVE SMOOTH",
"493 -5 OFFCURVE",
"512 12 OFFCURVE",
"512 39 CURVE SMOOTH",
"512 49 OFFCURVE",
"508 58 OFFCURVE",
"502 66 CURVE SMOOTH"
);
}
);
width = 546;
}
);
leftKerningGroup = b;
note = k;
unicode = 006B;
},
{
glyphname = l;
layers = (
{
layerId = "A99C00BB-606F-4263-964D-93C8B7F0BADD";
paths = (
{
closed = 1;
nodes = (
"107 735 OFFCURVE",
"87 715 OFFCURVE",
"87 689 CURVE SMOOTH",
"87 40 LINE SMOOTH",
"87 15 OFFCURVE",
"107 -5 OFFCURVE",
"132 -5 CURVE SMOOTH",
"158 -5 OFFCURVE",
"178 15 OFFCURVE",
"178 40 CURVE SMOOTH",
"178 689 LINE SMOOTH",
"178 715 OFFCURVE",
"158 735 OFFCURVE",
"132 735 CURVE SMOOTH"
);
}
);
width = 265;
}
);
note = l;
rightKerningGroup = l;
unicode = 006C;
},
{
glyphname = m;
layers = (
{
layerId = "A99C00BB-606F-4263-964D-93C8B7F0BADD";
paths = (
{
closed = 1;
nodes = (
"567 520 OFFCURVE",
"516 455 OFFCURVE",
"493 417 CURVE",
"472 469 OFFCURVE",
"420 520 OFFCURVE",
"340 520 CURVE SMOOTH",
"245 520 OFFCURVE",
"198 467 OFFCURVE",
"170 428 CURVE",
"170 469 LINE SMOOTH",
"170 494 OFFCURVE",
"149 515 OFFCURVE",
"124 515 CURVE SMOOTH",
"99 515 OFFCURVE",
"79 494 OFFCURVE",
"79 469 CURVE SMOOTH",
"79 40 LINE SMOOTH",
"79 15 OFFCURVE",
"99 -5 OFFCURVE",
"124 -5 CURVE SMOOTH",
"149 -5 OFFCURVE",
"170 15 OFFCURVE",
"170 40 CURVE SMOOTH",
"170 340 LINE",
"197 385 OFFCURVE",
"238 436 OFFCURVE",
"314 436 CURVE SMOOTH",
"390 436 OFFCURVE",
"416 394 OFFCURVE",
"416 310 CURVE SMOOTH",
"416 40 LINE SMOOTH",
"416 15 OFFCURVE",
"436 -5 OFFCURVE",
"461 -5 CURVE SMOOTH",
"486 -5 OFFCURVE",
"507 15 OFFCURVE",
"507 40 CURVE SMOOTH",
"507 340 LINE",
"534 385 OFFCURVE",
"575 436 OFFCURVE",
"651 436 CURVE SMOOTH",
"727 436 OFFCURVE",
"753 394 OFFCURVE",
"753 310 CURVE SMOOTH",
"753 40 LINE SMOOTH",
"753 15 OFFCURVE",
"773 -5 OFFCURVE",
"798 -5 CURVE SMOOTH",
"823 -5 OFFCURVE",
"844 15 OFFCURVE",
"844 40 CURVE SMOOTH",
"844 328 LINE SMOOTH",
"844 417 OFFCURVE",
"795 520 OFFCURVE",
"677 520 CURVE SMOOTH"
);
}
);
width = 919;
}
);
leftKerningGroup = m;
note = m;
rightKerningGroup = h;
unicode = 006D;
},
{
glyphname = n;
layers = (
{
layerId = "A99C00BB-606F-4263-964D-93C8B7F0BADD";
paths = (
{
closed = 1;
nodes = (
"267 520 OFFCURVE",
"212 474 OFFCURVE",
"170 428 CURVE",
"170 469 LINE SMOOTH",
"170 495 OFFCURVE",
"149 515 OFFCURVE",
"124 515 CURVE SMOOTH",
"99 515 OFFCURVE",
"79 495 OFFCURVE",
"79 469 CURVE SMOOTH",
"79 40 LINE SMOOTH",
"79 15 OFFCURVE",
"99 -5 OFFCURVE",
"124 -5 CURVE SMOOTH",
"149 -5 OFFCURVE",
"170 15 OFFCURVE",
"170 40 CURVE SMOOTH",
"170 340 LINE",
"210 390 OFFCURVE",
"262 436 OFFCURVE",
"334 436 CURVE SMOOTH",
"412 436 OFFCURVE",
"444 390 OFFCURVE",
"444 314 CURVE SMOOTH",
"444 40 LINE SMOOTH",
"444 15 OFFCURVE",
"464 -5 OFFCURVE",
"489 -5 CURVE SMOOTH",
"514 -5 OFFCURVE",
"535 15 OFFCURVE",
"535 40 CURVE SMOOTH",
"535 324 LINE SMOOTH",
"535 431 OFFCURVE",
"470 520 OFFCURVE",
"356 520 CURVE SMOOTH"
);
}
);
width = 609;
}
);
leftKerningGroup = m;
note = n;
rightKerningGroup = h;
unicode = 006E;
},
{
glyphname = o;
layers = (
{
layerId = "A99C00BB-606F-4263-964D-93C8B7F0BADD";
paths = (
{
closed = 1;
nodes = (
"149 520 OFFCURVE",
"48 413 OFFCURVE",
"48 255 CURVE SMOOTH",
"48 97 OFFCURVE",
"149 -10 OFFCURVE",
"304 -10 CURVE SMOOTH",
"458 -10 OFFCURVE",
"560 97 OFFCURVE",
"560 255 CURVE SMOOTH",
"560 413 OFFCURVE",
"458 520 OFFCURVE",
"304 520 CURVE SMOOTH"
);
},
{
closed = 1;
nodes = (
"227 73 OFFCURVE",
"139 123 OFFCURVE",
"139 256 CURVE SMOOTH",
"139 388 OFFCURVE",
"227 437 OFFCURVE",
"304 437 CURVE SMOOTH",
"380 437 OFFCURVE",
"469 388 OFFCURVE",
"469 256 CURVE SMOOTH",
"469 123 OFFCURVE",
"380 73 OFFCURVE",
"304 73 CURVE SMOOTH"
);
}
);
width = 608;
}
);
leftKerningGroup = c;
note = o;
rightKerningGroup = b;
unicode = 006F;
},
{
glyphname = p;
layers = (
{
layerId = "A99C00BB-606F-4263-964D-93C8B7F0BADD";
paths = (
{
closed = 1;
nodes = (
"462 -10 OFFCURVE",
"583 85 OFFCURVE",
"583 255 CURVE SMOOTH",
"583 425 OFFCURVE",
"462 520 OFFCURVE",
"341 520 CURVE SMOOTH",
"271 520 OFFCURVE",
"216 492 OFFCURVE",
"170 444 CURVE",
"170 470 LINE SMOOTH",
"170 495 OFFCURVE",
"150 515 OFFCURVE",
"124 515 CURVE SMOOTH",
"99 515 OFFCURVE",
"79 495 OFFCURVE",
"79 470 CURVE SMOOTH",
"79 -189 LINE SMOOTH",
"79 -215 OFFCURVE",
"99 -235 OFFCURVE",
"124 -235 CURVE SMOOTH",
"150 -235 OFFCURVE",
"170 -215 OFFCURVE",
"170 -189 CURVE SMOOTH",
"170 66 LINE",
"216 18 OFFCURVE",
"271 -10 OFFCURVE",
"341 -10 CURVE SMOOTH"
);
},
{
closed = 1;
nodes = (
"423 435 OFFCURVE",
"492 373 OFFCURVE",
"492 255 CURVE SMOOTH",
"492 137 OFFCURVE",
"423 75 OFFCURVE",
"328 75 CURVE SMOOTH",
"263 75 OFFCURVE",
"209 107 OFFCURVE",
"170 150 CURVE",
"170 360 LINE",
"209 403 OFFCURVE",
"263 435 OFFCURVE",
"328 435 CURVE SMOOTH"
);
}
);
width = 631;
}
);
leftKerningGroup = m;
note = p;
rightKerningGroup = b;
unicode = 0070;
},
{
glyphname = q;
layers = (
{
layerId = "A99C00BB-606F-4263-964D-93C8B7F0BADD";
paths = (
{
closed = 1;
nodes = (
"360 -10 OFFCURVE",
"415 18 OFFCURVE",
"461 66 CURVE",
"461 -189 LINE SMOOTH",
"461 -215 OFFCURVE",
"481 -235 OFFCURVE",
"507 -235 CURVE SMOOTH",
"532 -235 OFFCURVE",
"552 -215 OFFCURVE",
"552 -189 CURVE SMOOTH",
"552 470 LINE SMOOTH",
"552 495 OFFCURVE",
"532 515 OFFCURVE",
"507 515 CURVE SMOOTH",
"481 515 OFFCURVE",
"461 495 OFFCURVE",
"461 470 CURVE SMOOTH",
"461 444 LINE",
"415 492 OFFCURVE",
"360 520 OFFCURVE",
"290 520 CURVE SMOOTH",
"169 520 OFFCURVE",
"48 425 OFFCURVE",
"48 255 CURVE SMOOTH",
"48 85 OFFCURVE",
"169 -10 OFFCURVE",
"290 -10 CURVE SMOOTH"
);
},
{
closed = 1;
nodes = (
"368 435 OFFCURVE",
"422 403 OFFCURVE",
"461 360 CURVE",
"461 150 LINE",
"422 107 OFFCURVE",
"368 75 OFFCURVE",
"303 75 CURVE SMOOTH",
"208 75 OFFCURVE",
"139 137 OFFCURVE",
"139 255 CURVE SMOOTH",
"139 373 OFFCURVE",
"208 435 OFFCURVE",
"303 435 CURVE SMOOTH"
);
}
);
width = 631;
}
);
leftKerningGroup = c;
note = q;
rightKerningGroup = g;
unicode = 0071;
},
{
glyphname = r;
layers = (
{
layerId = "A99C00BB-606F-4263-964D-93C8B7F0BADD";
paths = (
{
closed = 1;
nodes = (
"327 520 LINE SMOOTH",
"258 520 OFFCURVE",
"206 474 OFFCURVE",
"170 426 CURVE",
"170 469 LINE SMOOTH",
"170 494 OFFCURVE",
"149 515 OFFCURVE",
"124 515 CURVE SMOOTH",
"99 515 OFFCURVE",
"79 494 OFFCURVE",
"79 469 CURVE SMOOTH",
"79 40 LINE SMOOTH",
"79 15 OFFCURVE",
"99 -5 OFFCURVE",
"124 -5 CURVE SMOOTH",
"149 -5 OFFCURVE",
"170 15 OFFCURVE",
"170 40 CURVE SMOOTH",
"170 344 LINE",
"205 396 OFFCURVE",
"259 432 OFFCURVE",
"325 432 CURVE SMOOTH",
"330 432 LINE SMOOTH",
"356 432 OFFCURVE",
"376 449 OFFCURVE",
"376 475 CURVE SMOOTH",
"376 500 OFFCURVE",
"357 520 OFFCURVE",
"332 520 CURVE SMOOTH"
);
}
);
width = 387;
}
);
leftKerningGroup = m;
note = r;
unicode = 0072;
},
{
glyphname = s;
layers = (
{
layerId = "A99C00BB-606F-4263-964D-93C8B7F0BADD";
paths = (
{
closed = 1;
nodes = (
"139 407 OFFCURVE",
"180 437 OFFCURVE",
"254 437 CURVE SMOOTH",
"298 437 OFFCURVE",
"336 429 OFFCURVE",
"368 419 CURVE",
"372 418 OFFCURVE",
"376 417 OFFCURVE",
"381 417 CURVE SMOOTH",
"404 417 OFFCURVE",
"421 436 OFFCURVE",
"421 457 CURVE SMOOTH",
"421 472 OFFCURVE",
"411 489 OFFCURVE",
"392 495 CURVE",
"351 510 OFFCURVE",
"302 520 OFFCURVE",
"247 520 CURVE SMOOTH",
"117 520 OFFCURVE",
"52 452 OFFCURVE",
"52 362 CURVE SMOOTH",
"52 180 OFFCURVE",
"352 231 OFFCURVE",
"352 145 CURVE SMOOTH",
"352 100 OFFCURVE",
"318 74 OFFCURVE",
"241 74 CURVE SMOOTH",
"182 74 OFFCURVE",
"141 88 OFFCURVE",
"105 104 CURVE SMOOTH",
"98 107 OFFCURVE",
"93 108 OFFCURVE",
"87 108 CURVE SMOOTH",
"64 108 OFFCURVE",
"48 88 OFFCURVE",
"48 68 CURVE SMOOTH",
"48 54 OFFCURVE",
"55 42 OFFCURVE",
"65 35 CURVE",
"116 7 OFFCURVE",
"174 -10 OFFCURVE",
"247 -10 CURVE SMOOTH",
"375 -10 OFFCURVE",
"440 57 OFFCURVE",
"440 138 CURVE SMOOTH",
"440 334 OFFCURVE",
"139 263 OFFCURVE",
"139 367 CURVE SMOOTH"
);
}
);
width = 480;
}
);
leftKerningGroup = s;
note = s;
rightKerningGroup = s;
unicode = 0073;
},
{
glyphname = t;
layers = (
{
layerId = "A99C00BB-606F-4263-964D-93C8B7F0BADD";
paths = (
{
closed = 1;
nodes = (
"311 79 OFFCURVE",
"300 70 OFFCURVE",
"268 70 CURVE SMOOTH",
"243 70 OFFCURVE",
"203 71 OFFCURVE",
"203 130 CURVE SMOOTH",
"203 432 LINE",
"316 432 LINE SMOOTH",
"338 432 OFFCURVE",
"355 449 OFFCURVE",
"355 471 CURVE SMOOTH",
"355 493 OFFCURVE",
"338 510 OFFCURVE",
"316 510 CURVE SMOOTH",
"203 510 LINE",
"203 590 LINE SMOOTH",
"203 601 OFFCURVE",
"195 610 OFFCURVE",
"184 610 CURVE SMOOTH",
"176 610 OFFCURVE",
"170 604 OFFCURVE",
"167 601 CURVE SMOOTH",
"31 468 LINE",
"25 463 OFFCURVE",
"22 457 OFFCURVE",
"22 451 CURVE SMOOTH",
"22 440 OFFCURVE",
"30 432 OFFCURVE",
"41 432 CURVE SMOOTH",
"112 432 LINE",
"112 122 LINE SMOOTH",
"112 -2 OFFCURVE",
"211 -10 OFFCURVE",
"258 -10 CURVE SMOOTH",
"290 -10 OFFCURVE",
"317 -3 OFFCURVE",
"341 8 CURVE SMOOTH",
"355 15 OFFCURVE",
"364 26 OFFCURVE",
"364 43 CURVE SMOOTH",
"364 64 OFFCURVE",
"346 79 OFFCURVE",
"328 79 CURVE SMOOTH"
);
}
);
width = 384;
}
);
leftKerningGroup = t;
note = t;
rightKerningGroup = t;
unicode = 0074;
},
{
glyphname = u;
layers = (
{
layerId = "A99C00BB-606F-4263-964D-93C8B7F0BADD";
paths = (
{
closed = 1;
nodes = (
"343 -10 OFFCURVE",
"398 36 OFFCURVE",
"440 82 CURVE",
"440 41 LINE SMOOTH",
"440 15 OFFCURVE",
"461 -5 OFFCURVE",
"486 -5 CURVE SMOOTH",
"511 -5 OFFCURVE",
"531 15 OFFCURVE",
"531 41 CURVE SMOOTH",
"531 470 LINE SMOOTH",
"531 495 OFFCURVE",
"511 515 OFFCURVE",
"486 515 CURVE SMOOTH",
"461 515 OFFCURVE",
"440 495 OFFCURVE",
"440 470 CURVE SMOOTH",
"440 170 LINE",
"400 120 OFFCURVE",
"348 74 OFFCURVE",
"276 74 CURVE SMOOTH",
"198 74 OFFCURVE",
"166 120 OFFCURVE",
"166 196 CURVE SMOOTH",
"166 470 LINE SMOOTH",
"166 495 OFFCURVE",
"146 515 OFFCURVE",
"121 515 CURVE SMOOTH",
"96 515 OFFCURVE",
"75 495 OFFCURVE",
"75 470 CURVE SMOOTH",
"75 186 LINE SMOOTH",
"75 79 OFFCURVE",
"140 -10 OFFCURVE",
"254 -10 CURVE SMOOTH"
);
}
);
width = 610;
}
);
leftKerningGroup = u;
note = u;
rightKerningGroup = g;
unicode = 0075;
},
{
glyphname = v;
layers = (
{
layerId = "A99C00BB-606F-4263-964D-93C8B7F0BADD";
paths = (
{
closed = 1;
nodes = (
"441 515 OFFCURVE",
"424 504 OFFCURVE",
"418 489 CURVE SMOOTH",
"265 101 LINE",
"112 489 LINE SMOOTH",
"106 504 OFFCURVE",
"89 515 OFFCURVE",
"71 515 CURVE SMOOTH",
"46 515 OFFCURVE",
"26 494 OFFCURVE",
"26 469 CURVE SMOOTH",
"26 461 OFFCURVE",
"28 455 OFFCURVE",
"31 448 CURVE SMOOTH",
"205 32 LINE SMOOTH",
"214 12 OFFCURVE",
"235 -5 OFFCURVE",
"260 -5 CURVE SMOOTH",
"270 -5 LINE SMOOTH",
"295 -5 OFFCURVE",
"316 12 OFFCURVE",
"325 32 CURVE SMOOTH",
"499 448 LINE SMOOTH",
"502 455 OFFCURVE",
"504 461 OFFCURVE",
"504 469 CURVE SMOOTH",
"504 494 OFFCURVE",
"484 515 OFFCURVE",
"459 515 CURVE SMOOTH"
);
}
);
width = 530;
}
);
note = v;
unicode = 0076;
},
{
glyphname = w;
layers = (
{
layerId = "A99C00BB-606F-4263-964D-93C8B7F0BADD";
paths = (
{
closed = 1;
nodes = (
"698 515 OFFCURVE",
"680 505 OFFCURVE",
"675 488 CURVE SMOOTH",
"558 103 LINE",
"442 479 LINE SMOOTH",
"436 500 OFFCURVE",
"416 515 OFFCURVE",
"393 515 CURVE SMOOTH",
"370 515 OFFCURVE",
"350 500 OFFCURVE",
"344 479 CURVE SMOOTH",
"228 103 LINE",
"111 488 LINE SMOOTH",
"106 505 OFFCURVE",
"88 515 OFFCURVE",
"70 515 CURVE SMOOTH",
"45 515 OFFCURVE",
"25 495 OFFCURVE",
"25 470 CURVE SMOOTH",
"25 464 OFFCURVE",
"26 459 OFFCURVE",
"28 453 CURVE SMOOTH",
"170 37 LINE SMOOTH",
"178 14 OFFCURVE",
"201 -5 OFFCURVE",
"228 -5 CURVE SMOOTH",
"255 -5 OFFCURVE",
"278 14 OFFCURVE",
"287 38 CURVE",
"393 369 LINE",
"499 38 LINE",
"508 14 OFFCURVE",
"531 -5 OFFCURVE",
"558 -5 CURVE SMOOTH",
"585 -5 OFFCURVE",
"608 14 OFFCURVE",
"616 37 CURVE SMOOTH",
"758 453 LINE SMOOTH",
"760 459 OFFCURVE",
"761 464 OFFCURVE",
"761 470 CURVE SMOOTH",
"761 495 OFFCURVE",
"741 515 OFFCURVE",
"716 515 CURVE SMOOTH"
);
}
);
width = 785;
}
);
note = w;
unicode = 0077;
},
{
glyphname = x;
layers = (
{
layerId = "A99C00BB-606F-4263-964D-93C8B7F0BADD";
paths = (
{
closed = 1;
nodes = (
"324 258 LINE",
"482 444 LINE",
"488 452 OFFCURVE",
"492 462 OFFCURVE",
"492 472 CURVE SMOOTH",
"492 496 OFFCURVE",
"473 515 OFFCURVE",
"446 515 CURVE SMOOTH",
"432 515 OFFCURVE",
"419 509 OFFCURVE",
"411 498 CURVE",
"272 325 LINE",
"132 498 LINE",
"125 508 OFFCURVE",
"112 515 OFFCURVE",
"96 515 CURVE SMOOTH",
"71 515 OFFCURVE",
"51 498 OFFCURVE",
"51 470 CURVE SMOOTH",
"51 459 OFFCURVE",
"55 450 OFFCURVE",
"62 441 CURVE SMOOTH",
"217 252 LINE",
"62 69 LINE",
"55 60 OFFCURVE",
"52 51 OFFCURVE",
"52 41 CURVE SMOOTH",
"52 13 OFFCURVE",
"69 -5 OFFCURVE",
"95 -5 CURVE SMOOTH",
"111 -5 OFFCURVE",
"125 3 OFFCURVE",
"134 15 CURVE SMOOTH",
"268 183 LINE",
"410 13 LINE",
"418 2 OFFCURVE",
"431 -5 OFFCURVE",
"445 -5 CURVE SMOOTH",
"476 -5 OFFCURVE",
"491 18 OFFCURVE",
"491 41 CURVE SMOOTH",
"491 49 OFFCURVE",
"488 61 OFFCURVE",
"480 70 CURVE SMOOTH"
);
}
);
width = 542;
}
);
note = x;
unicode = 0078;
},
{
glyphname = y;
layers = (
{
layerId = "A99C00BB-606F-4263-964D-93C8B7F0BADD";
paths = (
{
closed = 1;
nodes = (
"509 494 OFFCURVE",
"489 515 OFFCURVE",
"464 515 CURVE SMOOTH",
"444 515 OFFCURVE",
"430 503 OFFCURVE",
"422 485 CURVE SMOOTH",
"265 105 LINE",
"111 487 LINE SMOOTH",
"104 503 OFFCURVE",
"88 515 OFFCURVE",
"69 515 CURVE SMOOTH",
"44 515 OFFCURVE",
"24 494 OFFCURVE",
"24 469 CURVE SMOOTH",
"24 462 OFFCURVE",
"26 455 OFFCURVE",
"28 450 CURVE SMOOTH",
"216 -8 LINE",
"151 -175 LINE SMOOTH",
"149 -180 OFFCURVE",
"148 -186 OFFCURVE",
"148 -191 CURVE SMOOTH",
"148 -215 OFFCURVE",
"167 -235 OFFCURVE",
"191 -235 CURVE SMOOTH",
"212 -235 OFFCURVE",
"225 -222 OFFCURVE",
"233 -204 CURVE SMOOTH",
"506 452 LINE SMOOTH",
"508 457 OFFCURVE",
"509 463 OFFCURVE",
"509 469 CURVE SMOOTH"
);
}
);
width = 533;
}
);
leftKerningGroup = y;
note = y;
rightKerningGroup = y;
unicode = 0079;
},
{
glyphname = z;
layers = (
{
layerId = "A99C00BB-606F-4263-964D-93C8B7F0BADD";
paths = (
{
closed = 1;
nodes = (
"457 66 OFFCURVE",
"438 85 OFFCURVE",
"414 85 CURVE SMOOTH",
"157 85 LINE",
"437 413 LINE SMOOTH",
"446 424 OFFCURVE",
"451 437 OFFCURVE",
"451 453 CURVE SMOOTH",
"451 487 OFFCURVE",
"427 510 OFFCURVE",
"393 510 CURVE SMOOTH",
"90 510 LINE SMOOTH",
"66 510 OFFCURVE",
"48 491 OFFCURVE",
"48 467 CURVE SMOOTH",
"48 443 OFFCURVE",
"66 425 OFFCURVE",
"90 425 CURVE SMOOTH",
"343 425 LINE",
"55 94 LINE SMOOTH",
"45 83 OFFCURVE",
"39 69 OFFCURVE",
"39 53 CURVE SMOOTH",
"39 18 OFFCURVE",
"67 0 OFFCURVE",
"102 0 CURVE SMOOTH",
"414 0 LINE SMOOTH",
"438 0 OFFCURVE",
"457 18 OFFCURVE",
"457 42 CURVE SMOOTH"
);
}
);
width = 499;
}
);
note = z;
unicode = 007A;
},
{
glyphname = braceleft;
layers = (
{
layerId = "A99C00BB-606F-4263-964D-93C8B7F0BADD";
paths = (
{
closed = 1;
nodes = (
"281 -145 LINE SMOOTH",
"300 -145 OFFCURVE",
"316 -129 OFFCURVE",
"316 -110 CURVE SMOOTH",
"316 -91 OFFCURVE",
"300 -75 OFFCURVE",
"281 -75 CURVE SMOOTH",
"266 -75 LINE SMOOTH",
"209 -75 OFFCURVE",
"207 -50 OFFCURVE",
"207 -33 CURVE SMOOTH",
"207 189 LINE SMOOTH",
"207 249 OFFCURVE",
"175 286 OFFCURVE",
"117 307 CURVE",
"175 328 OFFCURVE",
"207 365 OFFCURVE",
"207 425 CURVE SMOOTH",
"207 647 LINE SMOOTH",
"207 664 OFFCURVE",
"209 689 OFFCURVE",
"266 689 CURVE SMOOTH",
"281 689 LINE SMOOTH",
"300 689 OFFCURVE",
"316 705 OFFCURVE",
"316 724 CURVE SMOOTH",
"316 743 OFFCURVE",
"300 759 OFFCURVE",
"281 759 CURVE SMOOTH",
"269 759 LINE SMOOTH",
"189 759 OFFCURVE",
"129 737 OFFCURVE",
"129 639 CURVE SMOOTH",
"129 428 LINE SMOOTH",
"129 395 OFFCURVE",
"126 362 OFFCURVE",
"37 347 CURVE SMOOTH",
"14 343 OFFCURVE",
"3 327 OFFCURVE",
"3 307 CURVE SMOOTH",
"3 287 OFFCURVE",
"14 271 OFFCURVE",
"37 267 CURVE SMOOTH",
"126 252 OFFCURVE",
"129 219 OFFCURVE",
"129 186 CURVE SMOOTH",
"129 -25 LINE SMOOTH",
"129 -123 OFFCURVE",
"189 -145 OFFCURVE",
"269 -145 CURVE SMOOTH"
);
}
);
width = 344;
}
);
note = braceleft;
unicode = 007B;
},
{
glyphname = bar;
layers = (
{
layerId = "A99C00BB-606F-4263-964D-93C8B7F0BADD";
paths = (
{
closed = 1;
nodes = (
"103 741 OFFCURVE",
"86 723 OFFCURVE",
"86 700 CURVE SMOOTH",
"86 -156 LINE SMOOTH",
"86 -179 OFFCURVE",
"103 -196 OFFCURVE",
"126 -196 CURVE SMOOTH",
"149 -196 OFFCURVE",
"167 -179 OFFCURVE",
"167 -156 CURVE SMOOTH",
"167 700 LINE SMOOTH",
"167 723 OFFCURVE",
"149 741 OFFCURVE",
"126 741 CURVE SMOOTH"
);
}
);
width = 253;
}
);
note = bar;
unicode = 007C;
},
{
glyphname = braceright;
layers = (
{
layerId = "A99C00BB-606F-4263-964D-93C8B7F0BADD";
paths = (
{
closed = 1;
nodes = (
"75 -145 LINE SMOOTH",
"155 -145 OFFCURVE",
"215 -123 OFFCURVE",
"215 -25 CURVE SMOOTH",
"215 186 LINE SMOOTH",
"215 219 OFFCURVE",
"218 252 OFFCURVE",
"307 267 CURVE SMOOTH",
"330 271 OFFCURVE",
"341 287 OFFCURVE",
"341 307 CURVE SMOOTH",
"341 327 OFFCURVE",
"330 343 OFFCURVE",
"307 347 CURVE SMOOTH",
"218 362 OFFCURVE",
"215 395 OFFCURVE",
"215 428 CURVE SMOOTH",
"215 639 LINE SMOOTH",
"215 737 OFFCURVE",
"155 759 OFFCURVE",
"75 759 CURVE SMOOTH",
"63 759 LINE SMOOTH",
"44 759 OFFCURVE",
"28 743 OFFCURVE",
"28 724 CURVE SMOOTH",
"28 705 OFFCURVE",
"44 689 OFFCURVE",
"63 689 CURVE SMOOTH",
"78 689 LINE SMOOTH",
"135 689 OFFCURVE",
"137 664 OFFCURVE",
"137 647 CURVE SMOOTH",
"137 425 LINE SMOOTH",
"137 365 OFFCURVE",
"169 328 OFFCURVE",
"227 307 CURVE",
"169 286 OFFCURVE",
"137 249 OFFCURVE",
"137 189 CURVE SMOOTH",
"137 -33 LINE SMOOTH",
"137 -50 OFFCURVE",
"135 -75 OFFCURVE",
"78 -75 CURVE SMOOTH",
"63 -75 LINE SMOOTH",
"44 -75 OFFCURVE",
"28 -91 OFFCURVE",
"28 -110 CURVE SMOOTH",
"28 -129 OFFCURVE",
"44 -145 OFFCURVE",
"63 -145 CURVE SMOOTH"
);
}
);
width = 344;
}
);
note = braceright;
unicode = 007D;
},
{
glyphname = asciitilde;
layers = (
{
layerId = "A99C00BB-606F-4263-964D-93C8B7F0BADD";
paths = (
{
closed = 1;
nodes = (
"531 366 OFFCURVE",
"523 359 OFFCURVE",
"519 351 CURVE",
"499 315 OFFCURVE",
"499 291 OFFCURVE",
"448 291 CURVE SMOOTH",
"375 291 OFFCURVE",
"308 367 OFFCURVE",
"201 367 CURVE SMOOTH",
"132 367 OFFCURVE",
"74 298 OFFCURVE",
"74 235 CURVE SMOOTH",
"74 221 OFFCURVE",
"86 209 OFFCURVE",
"100 209 CURVE SMOOTH",
"112 209 OFFCURVE",
"121 217 OFFCURVE",
"124 228 CURVE SMOOTH",
"133 260 OFFCURVE",
"154 282 OFFCURVE",
"194 282 CURVE SMOOTH",
"267 282 OFFCURVE",
"334 206 OFFCURVE",
"440 206 CURVE SMOOTH",
"501 206 OFFCURVE",
"551 248 OFFCURVE",
"567 335 CURVE SMOOTH",
"571 357 OFFCURVE",
"556 366 OFFCURVE",
"543 366 CURVE SMOOTH"
);
}
);
width = 638;
}
);
note = asciitilde;
unicode = 007E;
},
{
glyphname = exclamdown;
layers = (
{
layerId = "A99C00BB-606F-4263-964D-93C8B7F0BADD";
paths = (
{
closed = 1;
nodes = (
"109 317 OFFCURVE",
"97 305 OFFCURVE",
"96 288 CURVE SMOOTH",
"78 -42 LINE",
"78 -141 LINE SMOOTH",
"78 -170 OFFCURVE",
"101 -193 OFFCURVE",
"130 -193 CURVE SMOOTH",
"159 -193 OFFCURVE",
"181 -170 OFFCURVE",
"181 -141 CURVE SMOOTH",
"181 -42 LINE",
"163 288 LINE SMOOTH",
"162 305 OFFCURVE",
"151 317 OFFCURVE",
"130 317 CURVE SMOOTH"
);
},
{
closed = 1;
nodes = (
"163 395 OFFCURVE",
"190 422 OFFCURVE",
"190 454 CURVE SMOOTH",
"190 487 OFFCURVE",
"163 514 OFFCURVE",
"130 514 CURVE SMOOTH",
"98 514 OFFCURVE",
"71 487 OFFCURVE",
"71 454 CURVE SMOOTH",
"71 422 OFFCURVE",
"98 395 OFFCURVE",
"130 395 CURVE SMOOTH"
);
}
);
width = 259;
}
);
note = exclamdown;
unicode = 00A1;
},
{
glyphname = cent;
layers = (
{
layerId = "A99C00BB-606F-4263-964D-93C8B7F0BADD";
paths = (
{
closed = 1;
nodes = (
"407 620 OFFCURVE",
"396 612 OFFCURVE",
"392 601 CURVE SMOOTH",
"363 516 LINE",
"347 518 OFFCURVE",
"330 520 OFFCURVE",
"311 520 CURVE SMOOTH",
"169 520 OFFCURVE",
"44 422 OFFCURVE",
"44 255 CURVE SMOOTH",
"44 137 OFFCURVE",
"105 54 OFFCURVE",
"191 15 CURVE",
"158 -82 LINE",
"157 -84 OFFCURVE",
"155 -91 OFFCURVE",
"155 -95 CURVE SMOOTH",
"155 -110 OFFCURVE",
"167 -123 OFFCURVE",
"183 -123 CURVE SMOOTH",
"195 -123 OFFCURVE",
"206 -117 OFFCURVE",
"210 -105 CURVE SMOOTH",
"245 -2 LINE",
"266 -7 OFFCURVE",
"288 -10 OFFCURVE",
"311 -10 CURVE SMOOTH",
"390 -10 OFFCURVE",
"440 16 OFFCURVE",
"474 38 CURVE SMOOTH",
"486 46 OFFCURVE",
"494 58 OFFCURVE",
"494 73 CURVE SMOOTH",
"494 92 OFFCURVE",
"477 113 OFFCURVE",
"456 113 CURVE SMOOTH",
"448 113 OFFCURVE",
"443 112 OFFCURVE",
"434 107 CURVE SMOOTH",
"399 89 OFFCURVE",
"371 75 OFFCURVE",
"319 75 CURVE SMOOTH",
"302 75 OFFCURVE",
"287 76 OFFCURVE",
"273 79 CURVE",
"391 423 LINE",
"434 403 LINE",
"443 398 OFFCURVE",
"448 397 OFFCURVE",
"456 397 CURVE SMOOTH",
"477 397 OFFCURVE",
"494 418 OFFCURVE",
"494 437 CURVE SMOOTH",
"494 452 OFFCURVE",
"486 464 OFFCURVE",
"474 472 CURVE SMOOTH",
"459 482 OFFCURVE",
"440 493 OFFCURVE",
"418 501 CURVE",
"445 581 LINE SMOOTH",
"446 584 OFFCURVE",
"447 588 OFFCURVE",
"447 591 CURVE SMOOTH",
"447 606 OFFCURVE",
"436 620 OFFCURVE",
"419 620 CURVE SMOOTH"
);
},
{
closed = 1;
nodes = (
"135 362 OFFCURVE",
"203 435 OFFCURVE",
"319 435 CURVE SMOOTH",
"324 435 OFFCURVE",
"330 435 OFFCURVE",
"335 434 CURVE",
"220 98 LINE",
"165 127 OFFCURVE",
"135 183 OFFCURVE",
"135 255 CURVE SMOOTH"
);
}
);
width = 551;
}
);
note = cent;
unicode = 00A2;
},
{
glyphname = sterling;
layers = (
{
layerId = "A99C00BB-606F-4263-964D-93C8B7F0BADD";
paths = (
{
closed = 1;
nodes = (
"519 93 OFFCURVE",
"511 90 OFFCURVE",
"508 89 CURVE SMOOTH",
"488 82 OFFCURVE",
"469 78 OFFCURVE",
"445 78 CURVE SMOOTH",
"373 78 OFFCURVE",
"326 119 OFFCURVE",
"248 119 CURVE SMOOTH",
"239 119 OFFCURVE",
"231 118 OFFCURVE",
"223 118 CURVE",
"244 151 OFFCURVE",
"265 200 OFFCURVE",
"265 261 CURVE SMOOTH",
"265 277 OFFCURVE",
"264 292 OFFCURVE",
"261 307 CURVE",
"428 307 LINE SMOOTH",
"441 307 OFFCURVE",
"451 316 OFFCURVE",
"451 329 CURVE SMOOTH",
"451 342 OFFCURVE",
"441 352 OFFCURVE",
"428 352 CURVE SMOOTH",
"251 352 LINE",
"236 404 OFFCURVE",
"216 454 OFFCURVE",
"216 506 CURVE SMOOTH",
"216 560 OFFCURVE",
"248 620 OFFCURVE",
"372 620 CURVE SMOOTH",
"414 620 OFFCURVE",
"447 612 OFFCURVE",
"481 601 CURVE SMOOTH",
"484 600 OFFCURVE",
"494 597 OFFCURVE",
"500 597 CURVE SMOOTH",
"525 597 OFFCURVE",
"542 616 OFFCURVE",
"542 639 CURVE SMOOTH",
"542 659 OFFCURVE",
"529 672 OFFCURVE",
"512 679 CURVE SMOOTH",
"471 696 OFFCURVE",
"425 708 OFFCURVE",
"368 708 CURVE SMOOTH",
"224 708 OFFCURVE",
"125 632 OFFCURVE",
"125 502 CURVE SMOOTH",
"125 443 OFFCURVE",
"143 397 OFFCURVE",
"157 352 CURVE",
"61 352 LINE SMOOTH",
"48 352 OFFCURVE",
"39 342 OFFCURVE",
"39 329 CURVE SMOOTH",
"39 316 OFFCURVE",
"48 307 OFFCURVE",
"61 307 CURVE SMOOTH",
"169 307 LINE",
"173 290 OFFCURVE",
"175 273 OFFCURVE",
"175 255 CURVE SMOOTH",
"175 173 OFFCURVE",
"126 100 OFFCURVE",
"83 59 CURVE",
"74 51 OFFCURVE",
"69 41 OFFCURVE",
"69 28 CURVE SMOOTH",
"69 9 OFFCURVE",
"86 -7 OFFCURVE",
"106 -7 CURVE SMOOTH",
"115 -7 OFFCURVE",
"122 -4 OFFCURVE",
"129 1 CURVE SMOOTH",
"157 20 OFFCURVE",
"193 35 OFFCURVE",
"237 35 CURVE SMOOTH",
"322 35 OFFCURVE",
"352 -10 OFFCURVE",
"436 -10 CURVE SMOOTH",
"475 -10 OFFCURVE",
"511 0 OFFCURVE",
"542 17 CURVE SMOOTH",
"556 25 OFFCURVE",
"565 38 OFFCURVE",
"565 53 CURVE SMOOTH",
"565 76 OFFCURVE",
"547 93 OFFCURVE",
"524 93 CURVE SMOOTH"
);
}
);
width = 604;
}
);
note = sterling;
unicode = 00A3;
},
{
glyphname = currency;
layers = (
{
layerId = "A99C00BB-606F-4263-964D-93C8B7F0BADD";
paths = (
{
closed = 1;
nodes = (
"114 81 OFFCURVE",
"121 85 OFFCURVE",
"129 92 CURVE",
"195 157 LINE",
"234 129 OFFCURVE",
"282 112 OFFCURVE",
"334 112 CURVE SMOOTH",
"386 112 OFFCURVE",
"434 129 OFFCURVE",
"473 157 CURVE",
"539 92 LINE",
"547 85 OFFCURVE",
"554 81 OFFCURVE",
"565 81 CURVE SMOOTH",
"587 81 OFFCURVE",
"602 98 OFFCURVE",
"602 118 CURVE SMOOTH",
"602 129 OFFCURVE",
"598 137 OFFCURVE",
"591 144 CURVE SMOOTH",
"526 209 LINE",
"554 249 OFFCURVE",
"571 297 OFFCURVE",
"571 349 CURVE SMOOTH",
"571 401 OFFCURVE",
"554 449 OFFCURVE",
"526 489 CURVE",
"591 554 LINE SMOOTH",
"598 561 OFFCURVE",
"602 569 OFFCURVE",
"602 580 CURVE SMOOTH",
"602 600 OFFCURVE",
"587 617 OFFCURVE",
"565 617 CURVE SMOOTH",
"554 617 OFFCURVE",
"547 613 OFFCURVE",
"539 606 CURVE",
"473 541 LINE",
"434 569 OFFCURVE",
"386 586 OFFCURVE",
"334 586 CURVE SMOOTH",
"282 586 OFFCURVE",
"234 569 OFFCURVE",
"195 541 CURVE",
"129 606 LINE",
"121 613 OFFCURVE",
"114 617 OFFCURVE",
"103 617 CURVE SMOOTH",
"81 617 OFFCURVE",
"66 600 OFFCURVE",
"66 580 CURVE SMOOTH",
"66 569 OFFCURVE",
"70 561 OFFCURVE",
"77 554 CURVE SMOOTH",
"142 489 LINE",
"114 449 OFFCURVE",
"97 401 OFFCURVE",
"97 349 CURVE SMOOTH",
"97 297 OFFCURVE",
"114 249 OFFCURVE",
"142 209 CURVE",
"77 144 LINE SMOOTH",
"70 137 OFFCURVE",
"66 129 OFFCURVE",
"66 118 CURVE SMOOTH",
"66 98 OFFCURVE",
"81 81 OFFCURVE",
"103 81 CURVE SMOOTH"
);
},
{
closed = 1;
nodes = (
"420 505 OFFCURVE",
"490 435 OFFCURVE",
"490 349 CURVE SMOOTH",
"490 263 OFFCURVE",
"420 193 OFFCURVE",
"334 193 CURVE SMOOTH",
"248 193 OFFCURVE",
"178 263 OFFCURVE",
"178 349 CURVE SMOOTH",
"178 435 OFFCURVE",
"248 505 OFFCURVE",
"334 505 CURVE SMOOTH"
);
}
);
width = 668;
}
);
note = currency;
unicode = 00A4;
},
{
glyphname = yen;
layers = (
{
layerId = "A99C00BB-606F-4263-964D-93C8B7F0BADD";
paths = (
{
closed = 1;
nodes = (
"156 684 LINE SMOOTH",
"147 700 OFFCURVE",
"135 712 OFFCURVE",
"113 712 CURVE SMOOTH",
"87 712 OFFCURVE",
"65 693 OFFCURVE",
"65 665 CURVE SMOOTH",
"65 655 OFFCURVE",
"68 647 OFFCURVE",
"73 639 CURVE SMOOTH",
"241 365 LINE",
"143 365 LINE SMOOTH",
"122 365 OFFCURVE",
"106 348 OFFCURVE",
"106 327 CURVE SMOOTH",
"106 306 OFFCURVE",
"121 290 OFFCURVE",
"143 290 CURVE SMOOTH",
"284 290 LINE",
"284 199 LINE",
"143 199 LINE SMOOTH",
"122 199 OFFCURVE",
"106 182 OFFCURVE",
"106 161 CURVE SMOOTH",
"106 140 OFFCURVE",
"121 124 OFFCURVE",
"143 124 CURVE SMOOTH",
"284 124 LINE",
"284 39 LINE SMOOTH",
"284 14 OFFCURVE",
"305 -6 OFFCURVE",
"329 -6 CURVE SMOOTH",
"353 -6 OFFCURVE",
"374 14 OFFCURVE",
"374 39 CURVE SMOOTH",
"374 124 LINE",
"515 124 LINE SMOOTH",
"537 124 OFFCURVE",
"552 140 OFFCURVE",
"552 161 CURVE SMOOTH",
"552 182 OFFCURVE",
"536 199 OFFCURVE",
"515 199 CURVE SMOOTH",
"374 199 LINE",
"374 290 LINE",
"515 290 LINE SMOOTH",
"537 290 OFFCURVE",
"552 306 OFFCURVE",
"552 327 CURVE SMOOTH",
"552 348 OFFCURVE",
"536 365 OFFCURVE",
"515 365 CURVE SMOOTH",
"417 365 LINE",
"585 639 LINE SMOOTH",
"590 647 OFFCURVE",
"593 655 OFFCURVE",
"593 665 CURVE SMOOTH",
"593 693 OFFCURVE",
"571 712 OFFCURVE",
"545 712 CURVE SMOOTH",
"523 712 OFFCURVE",
"511 700 OFFCURVE",
"502 684 CURVE SMOOTH",
"329 381 LINE"
);
}
);
width = 658;
}
);
note = yen;
unicode = 00A5;
},
{
glyphname = section;
layers = (
{
layerId = "A99C00BB-606F-4263-964D-93C8B7F0BADD";
paths = (
{
closed = 1;
nodes = (
"432 182 OFFCURVE",
"479 218 OFFCURVE",
"479 292 CURVE SMOOTH",
"479 474 OFFCURVE",
"177 456 OFFCURVE",
"177 554 CURVE SMOOTH",
"177 599 OFFCURVE",
"213 624 OFFCURVE",
"290 624 CURVE SMOOTH",
"335 624 OFFCURVE",
"373 617 OFFCURVE",
"405 605 CURVE SMOOTH",
"410 603 OFFCURVE",
"415 602 OFFCURVE",
"420 602 CURVE SMOOTH",
"441 602 OFFCURVE",
"461 621 OFFCURVE",
"461 642 CURVE SMOOTH",
"461 661 OFFCURVE",
"449 675 OFFCURVE",
"434 681 CURVE SMOOTH",
"390 699 OFFCURVE",
"339 708 OFFCURVE",
"284 708 CURVE SMOOTH",
"156 708 OFFCURVE",
"91 641 OFFCURVE",
"91 560 CURVE SMOOTH",
"91 503 OFFCURVE",
"118 466 OFFCURVE",
"155 439 CURVE",
"104 422 OFFCURVE",
"57 387 OFFCURVE",
"57 313 CURVE SMOOTH",
"57 130 OFFCURVE",
"359 149 OFFCURVE",
"359 51 CURVE SMOOTH",
"359 6 OFFCURVE",
"323 -19 OFFCURVE",
"246 -19 CURVE SMOOTH",
"189 -19 OFFCURVE",
"143 -9 OFFCURVE",
"107 9 CURVE SMOOTH",
"101 12 OFFCURVE",
"93 15 OFFCURVE",
"86 15 CURVE SMOOTH",
"64 15 OFFCURVE",
"47 -3 OFFCURVE",
"47 -25 CURVE SMOOTH",
"47 -38 OFFCURVE",
"53 -52 OFFCURVE",
"63 -58 CURVE SMOOTH",
"112 -89 OFFCURVE",
"179 -103 OFFCURVE",
"252 -103 CURVE SMOOTH",
"380 -103 OFFCURVE",
"445 -36 OFFCURVE",
"445 45 CURVE SMOOTH",
"445 102 OFFCURVE",
"418 139 OFFCURVE",
"380 165 CURVE"
);
},
{
closed = 1;
nodes = (
"236 234 OFFCURVE",
"141 252 OFFCURVE",
"141 319 CURVE SMOOTH",
"141 372 OFFCURVE",
"174 397 OFFCURVE",
"215 407 CURVE",
"299 371 OFFCURVE",
"395 353 OFFCURVE",
"395 286 CURVE SMOOTH",
"395 233 OFFCURVE",
"362 208 OFFCURVE",
"320 198 CURVE"
);
}
);
width = 529;
}
);
note = section;
unicode = 00A7;
},
{
glyphname = dieresis;
layers = (
{
layerId = "A99C00BB-606F-4263-964D-93C8B7F0BADD";
paths = (
{
closed = 1;
nodes = (
"86 677 OFFCURVE",
"63 654 OFFCURVE",
"63 626 CURVE SMOOTH",
"63 598 OFFCURVE",
"86 575 OFFCURVE",
"114 575 CURVE SMOOTH",
"142 575 OFFCURVE",
"165 598 OFFCURVE",
"165 626 CURVE SMOOTH",
"165 654 OFFCURVE",
"142 677 OFFCURVE",
"114 677 CURVE SMOOTH"
);
},
{
closed = 1;
nodes = (
"255 677 OFFCURVE",
"232 654 OFFCURVE",
"232 626 CURVE SMOOTH",
"232 598 OFFCURVE",
"255 575 OFFCURVE",
"283 575 CURVE SMOOTH",
"311 575 OFFCURVE",
"334 598 OFFCURVE",
"334 626 CURVE SMOOTH",
"334 654 OFFCURVE",
"311 677 OFFCURVE",
"283 677 CURVE SMOOTH"
);
}
);
width = 400;
}
);
note = dieresis;
unicode = 00A8;
},
{
glyphname = copyright;
layers = (
{
layerId = "A99C00BB-606F-4263-964D-93C8B7F0BADD";
paths = (
{
closed = 1;
nodes = (
"608 -9 OFFCURVE",
"768 152 OFFCURVE",
"769 349 CURVE",
"768 546 OFFCURVE",
"608 707 OFFCURVE",
"410 707 CURVE SMOOTH",
"212 707 OFFCURVE",
"51 546 OFFCURVE",
"51 349 CURVE SMOOTH",
"51 152 OFFCURVE",
"212 -9 OFFCURVE",
"410 -9 CURVE SMOOTH"
);
},
{
closed = 1;
nodes = (
"579 655 OFFCURVE",
"717 517 OFFCURVE",
"717 349 CURVE SMOOTH",
"717 181 OFFCURVE",
"579 43 OFFCURVE",
"409 43 CURVE SMOOTH",
"241 43 OFFCURVE",
"103 181 OFFCURVE",
"103 349 CURVE SMOOTH",
"103 517 OFFCURVE",
"241 655 OFFCURVE",
"409 655 CURVE SMOOTH"
);
},
{
closed = 1;
nodes = (
"587 255 OFFCURVE",
"588 260 OFFCURVE",
"588 264 CURVE SMOOTH",
"588 282 OFFCURVE",
"574 296 OFFCURVE",
"556 296 CURVE SMOOTH",
"546 296 OFFCURVE",
"535 292 OFFCURVE",
"525 274 CURVE SMOOTH",
"503 235 OFFCURVE",
"469 207 OFFCURVE",
"416 207 CURVE SMOOTH",
"332 207 OFFCURVE",
"290 274 OFFCURVE",
"290 349 CURVE SMOOTH",
"290 424 OFFCURVE",
"332 491 OFFCURVE",
"416 491 CURVE SMOOTH",
"469 491 OFFCURVE",
"503 463 OFFCURVE",
"525 424 CURVE SMOOTH",
"535 406 OFFCURVE",
"546 402 OFFCURVE",
"556 402 CURVE SMOOTH",
"574 402 OFFCURVE",
"588 416 OFFCURVE",
"588 434 CURVE SMOOTH",
"588 438 OFFCURVE",
"587 443 OFFCURVE",
"585 447 CURVE SMOOTH",
"553 512 OFFCURVE",
"495 552 OFFCURVE",
"416 552 CURVE SMOOTH",
"302 552 OFFCURVE",
"223 472 OFFCURVE",
"223 349 CURVE SMOOTH",
"223 226 OFFCURVE",
"302 146 OFFCURVE",
"416 146 CURVE SMOOTH",
"495 146 OFFCURVE",
"553 186 OFFCURVE",
"585 251 CURVE SMOOTH"
);
}
);
width = 819;
}
);
note = copyright;
unicode = 00A9;
},
{
glyphname = ordfeminine;
layers = (
{
layerId = "A99C00BB-606F-4263-964D-93C8B7F0BADD";
paths = (
{
closed = 1;
nodes = (
"94 285 LINE SMOOTH",
"79 285 OFFCURVE",
"66 272 OFFCURVE",
"66 257 CURVE SMOOTH",
"66 242 OFFCURVE",
"79 229 OFFCURVE",
"94 229 CURVE SMOOTH",
"377 229 LINE SMOOTH",
"392 229 OFFCURVE",
"405 242 OFFCURVE",
"405 257 CURVE SMOOTH",
"405 272 OFFCURVE",
"392 285 OFFCURVE",
"377 285 CURVE SMOOTH"
);
},
{
closed = 1;
nodes = (
"242 553 LINE SMOOTH",
"133 553 OFFCURVE",
"81 512 OFFCURVE",
"81 446 CURVE SMOOTH",
"81 379 OFFCURVE",
"135 339 OFFCURVE",
"197 339 CURVE SMOOTH",
"258 339 OFFCURVE",
"297 363 OFFCURVE",
"318 387 CURVE",
"318 378 LINE SMOOTH",
"318 358 OFFCURVE",
"334 342 OFFCURVE",
"354 342 CURVE SMOOTH",
"374 342 OFFCURVE",
"390 358 OFFCURVE",
"390 378 CURVE SMOOTH",
"390 569 LINE SMOOTH",
"390 638 OFFCURVE",
"346 708 OFFCURVE",
"244 708 CURVE SMOOTH",
"197 708 OFFCURVE",
"157 697 OFFCURVE",
"123 684 CURVE SMOOTH",
"110 679 OFFCURVE",
"100 667 OFFCURVE",
"100 654 CURVE SMOOTH",
"100 637 OFFCURVE",
"114 622 OFFCURVE",
"132 622 CURVE SMOOTH",
"135 622 OFFCURVE",
"139 623 OFFCURVE",
"142 624 CURVE SMOOTH",
"167 633 OFFCURVE",
"197 640 OFFCURVE",
"233 640 CURVE SMOOTH",
"289 640 OFFCURVE",
"318 616 OFFCURVE",
"318 555 CURVE SMOOTH",
"318 553 LINE"
);
},
{
closed = 1;
nodes = (
"169 404 OFFCURVE",
"153 426 OFFCURVE",
"153 452 CURVE SMOOTH",
"153 487 OFFCURVE",
"190 499 OFFCURVE",
"250 499 CURVE SMOOTH",
"318 499 LINE",
"318 451 LINE",
"295 426 OFFCURVE",
"259 404 OFFCURVE",
"220 404 CURVE SMOOTH"
);
}
);
width = 485;
}
);
note = ordfeminine;
unicode = 00AA;
},
{
glyphname = guillemotleft;
layers = (
{
layerId = "A99C00BB-606F-4263-964D-93C8B7F0BADD";
paths = (
{
closed = 1;
nodes = (
"303 69 OFFCURVE",
"300 78 OFFCURVE",
"294 85 CURVE",
"134 255 LINE",
"294 425 LINE",
"300 432 OFFCURVE",
"303 441 OFFCURVE",
"303 451 CURVE SMOOTH",
"303 474 OFFCURVE",
"286 490 OFFCURVE",
"264 490 CURVE SMOOTH",
"253 490 OFFCURVE",
"242 486 OFFCURVE",
"236 479 CURVE SMOOTH",
"72 298 LINE SMOOTH",
"62 287 OFFCURVE",
"54 271 OFFCURVE",
"54 255 CURVE SMOOTH",
"54 239 OFFCURVE",
"62 223 OFFCURVE",
"72 212 CURVE SMOOTH",
"236 31 LINE SMOOTH",
"242 24 OFFCURVE",
"253 20 OFFCURVE",
"264 20 CURVE SMOOTH",
"286 20 OFFCURVE",
"303 36 OFFCURVE",
"303 59 CURVE SMOOTH"
);
},
{
closed = 1;
nodes = (
"511 69 OFFCURVE",
"508 78 OFFCURVE",
"502 85 CURVE",
"342 255 LINE",
"502 425 LINE",
"508 432 OFFCURVE",
"511 441 OFFCURVE",
"511 451 CURVE SMOOTH",
"511 474 OFFCURVE",
"494 490 OFFCURVE",
"472 490 CURVE SMOOTH",
"461 490 OFFCURVE",
"450 486 OFFCURVE",
"444 479 CURVE SMOOTH",
"280 298 LINE SMOOTH",
"270 287 OFFCURVE",
"262 271 OFFCURVE",
"262 255 CURVE SMOOTH",
"262 239 OFFCURVE",
"270 223 OFFCURVE",
"280 212 CURVE SMOOTH",
"444 31 LINE SMOOTH",
"450 24 OFFCURVE",
"461 20 OFFCURVE",
"472 20 CURVE SMOOTH",
"494 20 OFFCURVE",
"511 36 OFFCURVE",
"511 59 CURVE SMOOTH"
);
}
);
width = 585;
}
);
leftKerningGroup = guillemotleft;
note = guillemotleft;
rightKerningGroup = guillemotleft;
unicode = 00AB;
},
{
glyphname = logicalnot;
layers = (
{
layerId = "A99C00BB-606F-4263-964D-93C8B7F0BADD";
paths = (
{
closed = 1;
nodes = (
"109 383 LINE SMOOTH",
"89 383 OFFCURVE",
"73 367 OFFCURVE",
"73 347 CURVE SMOOTH",
"73 327 OFFCURVE",
"89 311 OFFCURVE",
"109 311 CURVE SMOOTH",
"421 311 LINE",
"421 205 LINE SMOOTH",
"421 184 OFFCURVE",
"437 168 OFFCURVE",
"458 168 CURVE SMOOTH",
"479 168 OFFCURVE",
"496 184 OFFCURVE",
"496 205 CURVE SMOOTH",
"496 341 LINE SMOOTH",
"496 364 OFFCURVE",
"477 383 OFFCURVE",
"454 383 CURVE SMOOTH"
);
}
);
width = 579;
}
);
note = logicalnot;
unicode = 00AC;
},
{
glyphname = registered;
layers = (
{
layerId = "A99C00BB-606F-4263-964D-93C8B7F0BADD";
paths = (
{
closed = 1;
nodes = (
"212 708 OFFCURVE",
"51 547 OFFCURVE",
"51 349 CURVE SMOOTH",
"51 151 OFFCURVE",
"212 -10 OFFCURVE",
"410 -10 CURVE SMOOTH",
"608 -10 OFFCURVE",
"769 151 OFFCURVE",
"769 349 CURVE SMOOTH",
"769 547 OFFCURVE",
"608 708 OFFCURVE",
"410 708 CURVE SMOOTH"
);
},
{
closed = 1;
nodes = (
"241 42 OFFCURVE",
"103 180 OFFCURVE",
"103 350 CURVE SMOOTH",
"103 518 OFFCURVE",
"241 656 OFFCURVE",
"409 656 CURVE SMOOTH",
"579 656 OFFCURVE",
"717 518 OFFCURVE",
"717 350 CURVE SMOOTH",
"717 180 OFFCURVE",
"579 42 OFFCURVE",
"409 42 CURVE SMOOTH"
);
},
{
closed = 1;
nodes = (
"583 496 OFFCURVE",
"536 548 OFFCURVE",
"426 548 CURVE SMOOTH",
"306 548 LINE SMOOTH",
"281 548 OFFCURVE",
"261 527 OFFCURVE",
"261 502 CURVE SMOOTH",
"261 178 LINE SMOOTH",
"261 159 OFFCURVE",
"275 145 OFFCURVE",
"294 145 CURVE SMOOTH",
"313 145 OFFCURVE",
"328 159 OFFCURVE",
"328 178 CURVE SMOOTH",
"328 299 LINE",
"437 299 LINE SMOOTH",
"511 299 OFFCURVE",
"510 231 OFFCURVE",
"510 197 CURVE SMOOTH",
"510 179 LINE SMOOTH",
"510 160 OFFCURVE",
"525 145 OFFCURVE",
"544 145 CURVE SMOOTH",
"563 145 OFFCURVE",
"578 160 OFFCURVE",
"578 179 CURVE SMOOTH",
"578 206 LINE SMOOTH",
"578 285 OFFCURVE",
"541 320 OFFCURVE",
"509 331 CURVE",
"548 346 OFFCURVE",
"583 377 OFFCURVE",
"583 428 CURVE SMOOTH"
);
},
{
closed = 1;
nodes = (
"328 358 LINE",
"328 490 LINE",
"421 490 LINE SMOOTH",
"494 490 OFFCURVE",
"517 464 OFFCURVE",
"517 426 CURVE SMOOTH",
"517 381 OFFCURVE",
"478 358 OFFCURVE",
"423 358 CURVE SMOOTH"
);
}
);
width = 819;
}
);
note = registered;
unicode = 00AE;
},
{
glyphname = macron;
layers = (
{
layerId = "A99C00BB-606F-4263-964D-93C8B7F0BADD";
paths = (
{
closed = 1;
nodes = (
"38 648 LINE SMOOTH",
"21 648 OFFCURVE",
"8 635 OFFCURVE",
"8 618 CURVE SMOOTH",
"8 601 OFFCURVE",
"21 588 OFFCURVE",
"38 588 CURVE SMOOTH",
"272 588 LINE SMOOTH",
"289 588 OFFCURVE",
"302 601 OFFCURVE",
"302 618 CURVE SMOOTH",
"302 635 OFFCURVE",
"289 648 OFFCURVE",
"272 648 CURVE SMOOTH"
);
}
);
width = 312;
}
);
note = macron;
unicode = 00AF;
},
{
glyphname = degree;
layers = (
{
layerId = "A99C00BB-606F-4263-964D-93C8B7F0BADD";
paths = (
{
closed = 1;
nodes = (
"114 708 OFFCURVE",
"52 647 OFFCURVE",
"52 571 CURVE SMOOTH",
"52 496 OFFCURVE",
"114 434 OFFCURVE",
"189 434 CURVE SMOOTH",
"265 434 OFFCURVE",
"326 496 OFFCURVE",
"326 571 CURVE SMOOTH",
"326 647 OFFCURVE",
"265 708 OFFCURVE",
"189 708 CURVE SMOOTH"
);
},
{
closed = 1;
nodes = (
"142 486 OFFCURVE",
"104 524 OFFCURVE",
"104 571 CURVE SMOOTH",
"104 618 OFFCURVE",
"142 656 OFFCURVE",
"189 656 CURVE SMOOTH",
"236 656 OFFCURVE",
"274 618 OFFCURVE",
"274 571 CURVE SMOOTH",
"274 524 OFFCURVE",
"236 486 OFFCURVE",
"189 486 CURVE SMOOTH"
);
}
);
width = 378;
}
);
note = degree;
unicode = 00B0;
},
{
glyphname = plusminus;
layers = (
{
layerId = "A99C00BB-606F-4263-964D-93C8B7F0BADD";
paths = (
{
closed = 1;
nodes = (
"100 77 LINE SMOOTH",
"78 77 OFFCURVE",
"62 60 OFFCURVE",
"62 38 CURVE SMOOTH",
"62 16 OFFCURVE",
"78 0 OFFCURVE",
"100 0 CURVE SMOOTH",
"505 0 LINE SMOOTH",
"527 0 OFFCURVE",
"544 16 OFFCURVE",
"544 38 CURVE SMOOTH",
"544 60 OFFCURVE",
"527 77 OFFCURVE",
"505 77 CURVE SMOOTH"
);
},
{
closed = 1;
nodes = (
"264 342 LINE",
"264 184 LINE SMOOTH",
"264 162 OFFCURVE",
"281 145 OFFCURVE",
"303 145 CURVE SMOOTH",
"325 145 OFFCURVE",
"342 162 OFFCURVE",
"342 184 CURVE SMOOTH",
"342 342 LINE",
"505 342 LINE SMOOTH",
"527 342 OFFCURVE",
"544 358 OFFCURVE",
"544 380 CURVE SMOOTH",
"544 402 OFFCURVE",
"527 419 OFFCURVE",
"505 419 CURVE SMOOTH",
"342 419 LINE",
"342 577 LINE SMOOTH",
"342 599 OFFCURVE",
"325 616 OFFCURVE",
"303 616 CURVE SMOOTH",
"281 616 OFFCURVE",
"264 599 OFFCURVE",
"264 577 CURVE SMOOTH",
"264 419 LINE",
"100 419 LINE SMOOTH",
"78 419 OFFCURVE",
"62 402 OFFCURVE",
"62 380 CURVE SMOOTH",
"62 358 OFFCURVE",
"78 342 OFFCURVE",
"100 342 CURVE SMOOTH"
);
}
);
width = 606;
}
);
note = plusminus;
unicode = 00B1;
},
{
glyphname = twosuperior;
layers = (
{
layerId = "A99C00BB-606F-4263-964D-93C8B7F0BADD";
paths = (
{
closed = 1;
nodes = (
"107 510 LINE",
"144 564 OFFCURVE",
"323 621 OFFCURVE",
"323 733 CURVE SMOOTH",
"323 799 OFFCURVE",
"268 850 OFFCURVE",
"190 850 CURVE SMOOTH",
"135 850 OFFCURVE",
"90 836 OFFCURVE",
"60 817 CURVE SMOOTH",
"50 811 OFFCURVE",
"46 802 OFFCURVE",
"46 792 CURVE SMOOTH",
"46 775 OFFCURVE",
"58 764 OFFCURVE",
"74 764 CURVE SMOOTH",
"79 764 OFFCURVE",
"83 765 OFFCURVE",
"87 767 CURVE",
"109 779 OFFCURVE",
"141 789 OFFCURVE",
"182 789 CURVE SMOOTH",
"239 789 OFFCURVE",
"260 762 OFFCURVE",
"260 729 CURVE SMOOTH",
"260 649 OFFCURVE",
"38 603 OFFCURVE",
"38 491 CURVE SMOOTH",
"38 471 OFFCURVE",
"54 451 OFFCURVE",
"77 451 CURVE SMOOTH",
"297 451 LINE SMOOTH",
"314 451 OFFCURVE",
"327 463 OFFCURVE",
"327 480 CURVE SMOOTH",
"327 497 OFFCURVE",
"314 510 OFFCURVE",
"297 510 CURVE SMOOTH"
);
}
);
width = 370;
}
);
note = twosuperior;
unicode = 00B2;
},
{
glyphname = threesuperior;
layers = (
{
layerId = "A99C00BB-606F-4263-964D-93C8B7F0BADD";
paths = (
{
closed = 1;
nodes = (
"274 665 OFFCURVE",
"308 691 OFFCURVE",
"308 744 CURVE SMOOTH",
"308 803 OFFCURVE",
"269 850 OFFCURVE",
"172 850 CURVE SMOOTH",
"130 850 OFFCURVE",
"92 837 OFFCURVE",
"60 820 CURVE SMOOTH",
"47 813 OFFCURVE",
"41 803 OFFCURVE",
"41 794 CURVE SMOOTH",
"41 778 OFFCURVE",
"55 767 OFFCURVE",
"69 767 CURVE SMOOTH",
"73 767 OFFCURVE",
"78 768 OFFCURVE",
"82 770 CURVE SMOOTH",
"103 780 OFFCURVE",
"131 789 OFFCURVE",
"168 789 CURVE SMOOTH",
"204 789 OFFCURVE",
"246 778 OFFCURVE",
"246 739 CURVE SMOOTH",
"246 695 OFFCURVE",
"198 681 OFFCURVE",
"141 681 CURVE SMOOTH",
"136 681 LINE SMOOTH",
"119 681 OFFCURVE",
"106 668 OFFCURVE",
"106 651 CURVE SMOOTH",
"106 634 OFFCURVE",
"119 621 OFFCURVE",
"136 621 CURVE SMOOTH",
"147 621 LINE SMOOTH",
"220 621 OFFCURVE",
"259 601 OFFCURVE",
"259 559 CURVE SMOOTH",
"259 522 OFFCURVE",
"219 507 OFFCURVE",
"167 507 CURVE SMOOTH",
"129 507 OFFCURVE",
"99 517 OFFCURVE",
"76 524 CURVE",
"72 525 OFFCURVE",
"69 526 OFFCURVE",
"65 526 CURVE SMOOTH",
"50 526 OFFCURVE",
"36 513 OFFCURVE",
"36 497 CURVE SMOOTH",
"36 485 OFFCURVE",
"44 475 OFFCURVE",
"53 470 CURVE SMOOTH",
"82 454 OFFCURVE",
"123 445 OFFCURVE",
"176 445 CURVE SMOOTH",
"283 445 OFFCURVE",
"322 500 OFFCURVE",
"322 557 CURVE SMOOTH",
"322 616 OFFCURVE",
"282 643 OFFCURVE",
"246 654 CURVE"
);
}
);
width = 370;
}
);
note = threesuperior;
unicode = 00B3;
},
{
glyphname = acute;
layers = (
{
layerId = "A99C00BB-606F-4263-964D-93C8B7F0BADD";
paths = (
{
closed = 1;
nodes = (
"122 722 OFFCURVE",
"112 714 OFFCURVE",
"106 703 CURVE SMOOTH",
"55 613 LINE",
"53 610 OFFCURVE",
"48 602 OFFCURVE",
"48 594 CURVE SMOOTH",
"48 578 OFFCURVE",
"59 567 OFFCURVE",
"75 567 CURVE SMOOTH",
"85 567 OFFCURVE",
"91 571 OFFCURVE",
"97 578 CURVE SMOOTH",
"166 660 LINE SMOOTH",
"173 668 OFFCURVE",
"176 676 OFFCURVE",
"176 685 CURVE SMOOTH",
"176 707 OFFCURVE",
"161 722 OFFCURVE",
"139 722 CURVE SMOOTH"
);
}
);
width = 240;
}
);
note = acute;
unicode = 00B4;
},
{
glyphname = mu;
layers = (
{
layerId = "A99C00BB-606F-4263-964D-93C8B7F0BADD";
paths = (
{
closed = 1;
nodes = (
"470 515 OFFCURVE",
"449 495 OFFCURVE",
"449 470 CURVE SMOOTH",
"449 170 LINE",
"409 120 OFFCURVE",
"357 74 OFFCURVE",
"285 74 CURVE SMOOTH",
"207 74 OFFCURVE",
"175 120 OFFCURVE",
"175 196 CURVE SMOOTH",
"175 470 LINE SMOOTH",
"175 495 OFFCURVE",
"155 515 OFFCURVE",
"130 515 CURVE SMOOTH",
"105 515 OFFCURVE",
"84 495 OFFCURVE",
"84 470 CURVE SMOOTH",
"84 -173 LINE SMOOTH",
"84 -198 OFFCURVE",
"104 -218 OFFCURVE",
"129 -218 CURVE SMOOTH",
"154 -218 OFFCURVE",
"175 -198 OFFCURVE",
"175 -173 CURVE SMOOTH",
"175 17 LINE",
"197 2 OFFCURVE",
"229 -10 OFFCURVE",
"268 -10 CURVE SMOOTH",
"357 -10 OFFCURVE",
"407 36 OFFCURVE",
"449 82 CURVE",
"449 41 LINE SMOOTH",
"449 15 OFFCURVE",
"470 -5 OFFCURVE",
"495 -5 CURVE SMOOTH",
"520 -5 OFFCURVE",
"540 15 OFFCURVE",
"540 41 CURVE SMOOTH",
"540 470 LINE SMOOTH",
"540 495 OFFCURVE",
"520 515 OFFCURVE",
"495 515 CURVE SMOOTH"
);
}
);
width = 604;
}
);
note = mu;
unicode = 00B5;
},
{
glyphname = paragraph;
layers = (
{
layerId = "A99C00BB-606F-4263-964D-93C8B7F0BADD";
paths = (
{
closed = 1;
nodes = (
"296 698 LINE SMOOTH",
"154 698 OFFCURVE",
"39 583 OFFCURVE",
"39 441 CURVE SMOOTH",
"39 299 OFFCURVE",
"154 184 OFFCURVE",
"296 184 CURVE SMOOTH",
"332 184 LINE",
"332 -184 LINE SMOOTH",
"332 -206 OFFCURVE",
"349 -224 OFFCURVE",
"371 -224 CURVE SMOOTH",
"393 -224 OFFCURVE",
"411 -206 OFFCURVE",
"411 -184 CURVE SMOOTH",
"411 619 LINE",
"523 619 LINE",
"523 -184 LINE SMOOTH",
"523 -206 OFFCURVE",
"540 -224 OFFCURVE",
"562 -224 CURVE SMOOTH",
"584 -224 OFFCURVE",
"602 -206 OFFCURVE",
"602 -184 CURVE SMOOTH",
"602 619 LINE",
"648 619 LINE SMOOTH",
"670 619 OFFCURVE",
"688 636 OFFCURVE",
"688 658 CURVE SMOOTH",
"688 680 OFFCURVE",
"670 698 OFFCURVE",
"648 698 CURVE SMOOTH"
);
}
);
width = 732;
}
);
note = paragraph;
unicode = 00B6;
},
{
glyphname = periodcentered;
layers = (
{
layerId = "A99C00BB-606F-4263-964D-93C8B7F0BADD";
paths = (
{
closed = 1;
nodes = (
"125 344 LINE SMOOTH",
"94 344 OFFCURVE",
"69 319 OFFCURVE",
"69 288 CURVE SMOOTH",
"69 282 LINE SMOOTH",
"69 251 OFFCURVE",
"94 226 OFFCURVE",
"125 226 CURVE SMOOTH",
"135 226 LINE SMOOTH",
"166 226 OFFCURVE",
"191 251 OFFCURVE",
"191 282 CURVE SMOOTH",
"191 288 LINE SMOOTH",
"191 319 OFFCURVE",
"166 344 OFFCURVE",
"135 344 CURVE SMOOTH"
);
}
);
width = 260;
}
);
note = periodcentered;
unicode = 00B7;
},
{
glyphname = cedilla;
layers = (
{
layerId = "A99C00BB-606F-4263-964D-93C8B7F0BADD";
paths = (
{
closed = 1;
nodes = (
"168 -59 OFFCURVE",
"158 -60 OFFCURVE",
"146 -63 CURVE",
"192 17 LINE",
"150 17 LINE",
"86 -85 LINE SMOOTH",
"84 -88 OFFCURVE",
"82 -92 OFFCURVE",
"82 -99 CURVE SMOOTH",
"82 -108 OFFCURVE",
"91 -115 OFFCURVE",
"100 -115 CURVE SMOOTH",
"104 -115 OFFCURVE",
"108 -113 OFFCURVE",
"110 -112 CURVE SMOOTH",
"128 -103 OFFCURVE",
"140 -101 OFFCURVE",
"154 -101 CURVE SMOOTH",
"174 -101 OFFCURVE",
"190 -112 OFFCURVE",
"190 -132 CURVE SMOOTH",
"190 -167 OFFCURVE",
"165 -178 OFFCURVE",
"133 -178 CURVE SMOOTH",
"116 -178 OFFCURVE",
"96 -173 OFFCURVE",
"74 -161 CURVE",
"72 -160 OFFCURVE",
"68 -158 OFFCURVE",
"64 -158 CURVE SMOOTH",
"51 -158 OFFCURVE",
"45 -168 OFFCURVE",
"45 -178 CURVE SMOOTH",
"45 -185 OFFCURVE",
"51 -192 OFFCURVE",
"56 -195 CURVE SMOOTH",
"90 -216 OFFCURVE",
"124 -221 OFFCURVE",
"146 -221 CURVE SMOOTH",
"217 -221 OFFCURVE",
"257 -191 OFFCURVE",
"257 -129 CURVE SMOOTH",
"257 -87 OFFCURVE",
"225 -59 OFFCURVE",
"180 -59 CURVE SMOOTH"
);
}
);
width = 307;
}
);
note = cedilla;
unicode = 00B8;
},
{
glyphname = onesuperior;
layers = (
{
layerId = "A99C00BB-606F-4263-964D-93C8B7F0BADD";
paths = (
{
closed = 1;
nodes = (
"232 510 LINE",
"232 806 LINE SMOOTH",
"232 830 OFFCURVE",
"215 849 OFFCURVE",
"189 849 CURVE SMOOTH",
"182 849 OFFCURVE",
"175 847 OFFCURVE",
"169 844 CURVE SMOOTH",
"97 807 LINE SMOOTH",
"85 801 OFFCURVE",
"78 790 OFFCURVE",
"78 779 CURVE SMOOTH",
"78 762 OFFCURVE",
"92 749 OFFCURVE",
"108 749 CURVE SMOOTH",
"114 749 OFFCURVE",
"118 751 OFFCURVE",
"123 753 CURVE",
"168 775 LINE",
"168 510 LINE",
"108 510 LINE SMOOTH",
"91 510 OFFCURVE",
"79 497 OFFCURVE",
"79 480 CURVE SMOOTH",
"79 463 OFFCURVE",
"91 451 OFFCURVE",
"108 451 CURVE SMOOTH",
"282 451 LINE SMOOTH",
"299 451 OFFCURVE",
"312 463 OFFCURVE",
"312 480 CURVE SMOOTH",
"312 497 OFFCURVE",
"299 510 OFFCURVE",
"282 510 CURVE SMOOTH"
);
}
);
width = 370;
}
);
note = onesuperior;
unicode = 00B9;
},
{
glyphname = ordmasculine;
layers = (
{
layerId = "A99C00BB-606F-4263-964D-93C8B7F0BADD";
paths = (
{
closed = 1;
nodes = (
"149 708 OFFCURVE",
"79 634 OFFCURVE",
"79 524 CURVE SMOOTH",
"79 414 OFFCURVE",
"149 339 OFFCURVE",
"257 339 CURVE SMOOTH",
"365 339 OFFCURVE",
"435 414 OFFCURVE",
"435 524 CURVE SMOOTH",
"435 634 OFFCURVE",
"365 708 OFFCURVE",
"257 708 CURVE SMOOTH"
);
},
{
closed = 1;
nodes = (
"208 403 OFFCURVE",
"151 437 OFFCURVE",
"151 525 CURVE SMOOTH",
"151 612 OFFCURVE",
"208 645 OFFCURVE",
"257 645 CURVE SMOOTH",
"305 645 OFFCURVE",
"363 612 OFFCURVE",
"363 525 CURVE SMOOTH",
"363 437 OFFCURVE",
"305 403 OFFCURVE",
"257 403 CURVE SMOOTH"
);
},
{
closed = 1;
nodes = (
"98 285 LINE SMOOTH",
"83 285 OFFCURVE",
"70 272 OFFCURVE",
"70 257 CURVE SMOOTH",
"70 242 OFFCURVE",
"83 229 OFFCURVE",
"98 229 CURVE SMOOTH",
"416 229 LINE SMOOTH",
"431 229 OFFCURVE",
"444 242 OFFCURVE",
"444 257 CURVE SMOOTH",
"444 272 OFFCURVE",
"431 285 OFFCURVE",
"416 285 CURVE SMOOTH"
);
}
);
width = 514;
}
);
note = ordmasculine;
unicode = 00BA;
},
{
glyphname = guillemotright;
layers = (
{
layerId = "A99C00BB-606F-4263-964D-93C8B7F0BADD";
paths = (
{
closed = 1;
nodes = (
"282 36 OFFCURVE",
"299 20 OFFCURVE",
"321 20 CURVE SMOOTH",
"332 20 OFFCURVE",
"343 24 OFFCURVE",
"349 31 CURVE SMOOTH",
"513 212 LINE SMOOTH",
"523 223 OFFCURVE",
"531 239 OFFCURVE",
"531 255 CURVE SMOOTH",
"531 271 OFFCURVE",
"523 287 OFFCURVE",
"513 298 CURVE SMOOTH",
"349 479 LINE SMOOTH",
"343 486 OFFCURVE",
"332 490 OFFCURVE",
"321 490 CURVE SMOOTH",
"299 490 OFFCURVE",
"282 474 OFFCURVE",
"282 451 CURVE SMOOTH",
"282 441 OFFCURVE",
"285 432 OFFCURVE",
"291 425 CURVE",
"451 255 LINE",
"291 85 LINE",
"285 78 OFFCURVE",
"282 69 OFFCURVE",
"282 59 CURVE SMOOTH"
);
},
{
closed = 1;
nodes = (
"74 36 OFFCURVE",
"91 20 OFFCURVE",
"113 20 CURVE SMOOTH",
"124 20 OFFCURVE",
"135 24 OFFCURVE",
"141 31 CURVE SMOOTH",
"305 212 LINE SMOOTH",
"315 223 OFFCURVE",
"323 239 OFFCURVE",
"323 255 CURVE SMOOTH",
"323 271 OFFCURVE",
"315 287 OFFCURVE",
"305 298 CURVE SMOOTH",
"141 479 LINE SMOOTH",
"135 486 OFFCURVE",
"124 490 OFFCURVE",
"113 490 CURVE SMOOTH",
"91 490 OFFCURVE",
"74 474 OFFCURVE",
"74 451 CURVE SMOOTH",
"74 441 OFFCURVE",
"77 432 OFFCURVE",
"83 425 CURVE",
"243 255 LINE",
"83 85 LINE",
"77 78 OFFCURVE",
"74 69 OFFCURVE",
"74 59 CURVE SMOOTH"
);
}
);
width = 585;
}
);
leftKerningGroup = guillemotright;
note = guillemotright;
rightKerningGroup = guillemotright;
unicode = 00BB;
},
{
glyphname = onequarter;
layers = (
{
layerId = "A99C00BB-606F-4263-964D-93C8B7F0BADD";
paths = (
{
closed = 1;
nodes = (
"801 155 LINE",
"801 354 LINE SMOOTH",
"801 377 OFFCURVE",
"783 396 OFFCURVE",
"759 396 CURVE SMOOTH",
"751 396 LINE SMOOTH",
"735 396 OFFCURVE",
"724 386 OFFCURVE",
"715 375 CURVE SMOOTH",
"550 167 LINE SMOOTH",
"543 158 OFFCURVE",
"539 149 OFFCURVE",
"539 138 CURVE SMOOTH",
"539 115 OFFCURVE",
"558 96 OFFCURVE",
"581 96 CURVE SMOOTH",
"737 96 LINE",
"737 27 LINE SMOOTH",
"737 9 OFFCURVE",
"751 -5 OFFCURVE",
"769 -5 CURVE SMOOTH",
"787 -5 OFFCURVE",
"801 9 OFFCURVE",
"801 27 CURVE SMOOTH",
"801 96 LINE",
"837 96 LINE SMOOTH",
"854 96 OFFCURVE",
"867 108 OFFCURVE",
"867 125 CURVE SMOOTH",
"867 142 OFFCURVE",
"854 155 OFFCURVE",
"837 155 CURVE SMOOTH"
);
},
{
closed = 1;
nodes = (
"610 155 LINE",
"737 317 LINE",
"737 155 LINE"
);
},
{
closed = 1;
nodes = (
"273 -24 OFFCURVE",
"284 -20 OFFCURVE",
"290 -10 CURVE SMOOTH",
"704 672 LINE",
"707 678 OFFCURVE",
"709 684 OFFCURVE",
"709 690 CURVE SMOOTH",
"709 710 OFFCURVE",
"693 724 OFFCURVE",
"675 724 CURVE SMOOTH",
"664 724 OFFCURVE",
"653 720 OFFCURVE",
"647 710 CURVE SMOOTH",
"233 28 LINE",
"230 22 OFFCURVE",
"228 16 OFFCURVE",
"228 10 CURVE SMOOTH",
"228 -10 OFFCURVE",
"244 -24 OFFCURVE",
"262 -24 CURVE SMOOTH"
);
},
{
closed = 1;
nodes = (
"239 369 LINE",
"239 665 LINE SMOOTH",
"239 689 OFFCURVE",
"222 708 OFFCURVE",
"196 708 CURVE SMOOTH",
"189 708 OFFCURVE",
"182 706 OFFCURVE",
"176 703 CURVE SMOOTH",
"104 666 LINE SMOOTH",
"92 660 OFFCURVE",
"85 649 OFFCURVE",
"85 638 CURVE SMOOTH",
"85 621 OFFCURVE",
"99 608 OFFCURVE",
"115 608 CURVE SMOOTH",
"121 608 OFFCURVE",
"125 610 OFFCURVE",
"130 612 CURVE",
"175 634 LINE",
"175 369 LINE",
"115 369 LINE SMOOTH",
"98 369 OFFCURVE",
"86 356 OFFCURVE",
"86 339 CURVE SMOOTH",
"86 322 OFFCURVE",
"98 310 OFFCURVE",
"115 310 CURVE SMOOTH",
"289 310 LINE SMOOTH",
"306 310 OFFCURVE",
"319 322 OFFCURVE",
"319 339 CURVE SMOOTH",
"319 356 OFFCURVE",
"306 369 OFFCURVE",
"289 369 CURVE SMOOTH"
);
}
);
width = 940;
}
);
note = onequarter;
unicode = 00BC;
},
{
glyphname = onehalf;
layers = (
{
layerId = "A99C00BB-606F-4263-964D-93C8B7F0BADD";
paths = (
{
closed = 1;
nodes = (
"233 369 LINE",
"233 665 LINE SMOOTH",
"233 689 OFFCURVE",
"216 708 OFFCURVE",
"190 708 CURVE SMOOTH",
"183 708 OFFCURVE",
"176 706 OFFCURVE",
"170 703 CURVE SMOOTH",
"98 666 LINE SMOOTH",
"86 660 OFFCURVE",
"79 649 OFFCURVE",
"79 638 CURVE SMOOTH",
"79 621 OFFCURVE",
"93 608 OFFCURVE",
"109 608 CURVE SMOOTH",
"115 608 OFFCURVE",
"119 610 OFFCURVE",
"124 612 CURVE",
"169 634 LINE",
"169 369 LINE",
"109 369 LINE SMOOTH",
"92 369 OFFCURVE",
"80 356 OFFCURVE",
"80 339 CURVE SMOOTH",
"80 322 OFFCURVE",
"92 310 OFFCURVE",
"109 310 CURVE SMOOTH",
"283 310 LINE SMOOTH",
"300 310 OFFCURVE",
"313 322 OFFCURVE",
"313 339 CURVE SMOOTH",
"313 356 OFFCURVE",
"300 369 OFFCURVE",
"283 369 CURVE SMOOTH"
);
},
{
closed = 1;
nodes = (
"267 -24 OFFCURVE",
"278 -20 OFFCURVE",
"284 -10 CURVE SMOOTH",
"698 672 LINE",
"701 678 OFFCURVE",
"703 684 OFFCURVE",
"703 690 CURVE SMOOTH",
"703 710 OFFCURVE",
"687 724 OFFCURVE",
"669 724 CURVE SMOOTH",
"658 724 OFFCURVE",
"647 720 OFFCURVE",
"641 710 CURVE SMOOTH",
"227 28 LINE",
"224 22 OFFCURVE",
"222 16 OFFCURVE",
"222 10 CURVE SMOOTH",
"222 -10 OFFCURVE",
"238 -24 OFFCURVE",
"256 -24 CURVE SMOOTH"
);
},
{
closed = 1;
nodes = (
"645 59 LINE",
"682 113 OFFCURVE",
"861 170 OFFCURVE",
"861 282 CURVE SMOOTH",
"861 348 OFFCURVE",
"806 399 OFFCURVE",
"728 399 CURVE SMOOTH",
"673 399 OFFCURVE",
"628 385 OFFCURVE",
"598 366 CURVE SMOOTH",
"588 360 OFFCURVE",
"584 351 OFFCURVE",
"584 341 CURVE SMOOTH",
"584 324 OFFCURVE",
"596 313 OFFCURVE",
"612 313 CURVE SMOOTH",
"617 313 OFFCURVE",
"621 314 OFFCURVE",
"625 316 CURVE",
"647 328 OFFCURVE",
"679 338 OFFCURVE",
"720 338 CURVE SMOOTH",
"777 338 OFFCURVE",
"798 311 OFFCURVE",
"798 278 CURVE SMOOTH",
"798 198 OFFCURVE",
"576 152 OFFCURVE",
"576 40 CURVE SMOOTH",
"576 20 OFFCURVE",
"592 0 OFFCURVE",
"615 0 CURVE SMOOTH",
"835 0 LINE SMOOTH",
"852 0 OFFCURVE",
"865 12 OFFCURVE",
"865 29 CURVE SMOOTH",
"865 46 OFFCURVE",
"852 59 OFFCURVE",
"835 59 CURVE SMOOTH"
);
}
);
width = 940;
}
);
note = onehalf;
unicode = 00BD;
},
{
glyphname = threequarters;
layers = (
{
layerId = "A99C00BB-606F-4263-964D-93C8B7F0BADD";
paths = (
{
closed = 1;
nodes = (
"815 155 LINE",
"815 354 LINE SMOOTH",
"815 377 OFFCURVE",
"797 396 OFFCURVE",
"773 396 CURVE SMOOTH",
"765 396 LINE SMOOTH",
"749 396 OFFCURVE",
"738 386 OFFCURVE",
"729 375 CURVE SMOOTH",
"564 167 LINE SMOOTH",
"557 158 OFFCURVE",
"553 149 OFFCURVE",
"553 138 CURVE SMOOTH",
"553 115 OFFCURVE",
"572 96 OFFCURVE",
"595 96 CURVE SMOOTH",
"751 96 LINE",
"751 27 LINE SMOOTH",
"751 9 OFFCURVE",
"765 -5 OFFCURVE",
"783 -5 CURVE SMOOTH",
"801 -5 OFFCURVE",
"815 9 OFFCURVE",
"815 27 CURVE SMOOTH",
"815 96 LINE",
"851 96 LINE SMOOTH",
"868 96 OFFCURVE",
"881 108 OFFCURVE",
"881 125 CURVE SMOOTH",
"881 142 OFFCURVE",
"868 155 OFFCURVE",
"851 155 CURVE SMOOTH"
);
},
{
closed = 1;
nodes = (
"624 155 LINE",
"751 317 LINE",
"751 155 LINE"
);
},
{
closed = 1;
nodes = (
"287 -24 OFFCURVE",
"298 -20 OFFCURVE",
"304 -10 CURVE SMOOTH",
"718 672 LINE",
"721 678 OFFCURVE",
"723 684 OFFCURVE",
"723 690 CURVE SMOOTH",
"723 710 OFFCURVE",
"707 724 OFFCURVE",
"689 724 CURVE SMOOTH",
"678 724 OFFCURVE",
"667 720 OFFCURVE",
"661 710 CURVE SMOOTH",
"247 28 LINE",
"244 22 OFFCURVE",
"242 16 OFFCURVE",
"242 10 CURVE SMOOTH",
"242 -10 OFFCURVE",
"258 -24 OFFCURVE",
"276 -24 CURVE SMOOTH"
);
},
{
closed = 1;
nodes = (
"301 524 OFFCURVE",
"335 550 OFFCURVE",
"335 603 CURVE SMOOTH",
"335 662 OFFCURVE",
"296 709 OFFCURVE",
"199 709 CURVE SMOOTH",
"157 709 OFFCURVE",
"119 696 OFFCURVE",
"87 679 CURVE SMOOTH",
"74 672 OFFCURVE",
"68 662 OFFCURVE",
"68 653 CURVE SMOOTH",
"68 637 OFFCURVE",
"82 626 OFFCURVE",
"96 626 CURVE SMOOTH",
"100 626 OFFCURVE",
"105 627 OFFCURVE",
"109 629 CURVE SMOOTH",
"130 639 OFFCURVE",
"158 648 OFFCURVE",
"195 648 CURVE SMOOTH",
"231 648 OFFCURVE",
"273 637 OFFCURVE",
"273 598 CURVE SMOOTH",
"273 554 OFFCURVE",
"225 540 OFFCURVE",
"168 540 CURVE SMOOTH",
"163 540 LINE SMOOTH",
"146 540 OFFCURVE",
"133 527 OFFCURVE",
"133 510 CURVE SMOOTH",
"133 493 OFFCURVE",
"146 480 OFFCURVE",
"163 480 CURVE SMOOTH",
"174 480 LINE SMOOTH",
"247 480 OFFCURVE",
"286 460 OFFCURVE",
"286 418 CURVE SMOOTH",
"286 381 OFFCURVE",
"246 366 OFFCURVE",
"194 366 CURVE SMOOTH",
"156 366 OFFCURVE",
"126 376 OFFCURVE",
"103 383 CURVE",
"99 384 OFFCURVE",
"96 385 OFFCURVE",
"92 385 CURVE SMOOTH",
"77 385 OFFCURVE",
"63 372 OFFCURVE",
"63 356 CURVE SMOOTH",
"63 344 OFFCURVE",
"71 334 OFFCURVE",
"80 329 CURVE SMOOTH",
"109 313 OFFCURVE",
"150 304 OFFCURVE",
"203 304 CURVE SMOOTH",
"310 304 OFFCURVE",
"349 359 OFFCURVE",
"349 416 CURVE SMOOTH",
"349 475 OFFCURVE",
"309 502 OFFCURVE",
"273 513 CURVE"
);
}
);
width = 940;
}
);
note = threequarters;
unicode = 00BE;
},
{
glyphname = questiondown;
layers = (
{
layerId = "A99C00BB-606F-4263-964D-93C8B7F0BADD";
paths = (
{
closed = 1;
nodes = (
"331 -198 OFFCURVE",
"385 -185 OFFCURVE",
"441 -150 CURVE SMOOTH",
"454 -142 OFFCURVE",
"466 -131 OFFCURVE",
"466 -112 CURVE SMOOTH",
"466 -90 OFFCURVE",
"448 -72 OFFCURVE",
"426 -72 CURVE SMOOTH",
"418 -72 OFFCURVE",
"407 -76 OFFCURVE",
"401 -80 CURVE SMOOTH",
"366 -102 OFFCURVE",
"318 -113 OFFCURVE",
"273 -113 CURVE SMOOTH",
"172 -113 OFFCURVE",
"130 -72 OFFCURVE",
"130 -4 CURVE SMOOTH",
"130 94 OFFCURVE",
"315 115 OFFCURVE",
"315 285 CURVE SMOOTH",
"315 306 OFFCURVE",
"296 324 OFFCURVE",
"271 324 CURVE SMOOTH",
"248 324 OFFCURVE",
"227 307 OFFCURVE",
"227 285 CURVE SMOOTH",
"227 157 OFFCURVE",
"40 151 OFFCURVE",
"40 -9 CURVE SMOOTH",
"40 -125 OFFCURVE",
"129 -198 OFFCURVE",
"265 -198 CURVE SMOOTH"
);
},
{
closed = 1;
nodes = (
"305 395 OFFCURVE",
"332 422 OFFCURVE",
"332 454 CURVE SMOOTH",
"332 487 OFFCURVE",
"305 514 OFFCURVE",
"273 514 CURVE SMOOTH",
"240 514 OFFCURVE",
"213 487 OFFCURVE",
"213 454 CURVE SMOOTH",
"213 422 OFFCURVE",
"240 395 OFFCURVE",
"273 395 CURVE SMOOTH"
);
}
);
width = 488;
}
);
note = questiondown;
unicode = 00BF;
},
{
glyphname = Agrave;
layers = (
{
layerId = "A99C00BB-606F-4263-964D-93C8B7F0BADD";
paths = (
{
closed = 1;
nodes = (
"272 894 OFFCURVE",
"257 879 OFFCURVE",
"257 857 CURVE SMOOTH",
"257 848 OFFCURVE",
"260 840 OFFCURVE",
"267 832 CURVE SMOOTH",
"336 750 LINE SMOOTH",
"342 743 OFFCURVE",
"348 739 OFFCURVE",
"358 739 CURVE SMOOTH",
"374 739 OFFCURVE",
"385 750 OFFCURVE",
"385 766 CURVE SMOOTH",
"385 774 OFFCURVE",
"380 782 OFFCURVE",
"378 785 CURVE",
"327 875 LINE SMOOTH",
"321 886 OFFCURVE",
"311 894 OFFCURVE",
"294 894 CURVE SMOOTH"
);
},
{
closed = 1;
nodes = (
"412 662 LINE SMOOTH",
"403 683 OFFCURVE",
"384 703 OFFCURVE",
"354 703 CURVE SMOOTH",
"344 703 LINE SMOOTH",
"314 703 OFFCURVE",
"295 683 OFFCURVE",
"286 662 CURVE SMOOTH",
"31 60 LINE SMOOTH",
"28 53 OFFCURVE",
"26 46 OFFCURVE",
"26 40 CURVE SMOOTH",
"26 15 OFFCURVE",
"43 -5 OFFCURVE",
"71 -5 CURVE SMOOTH",
"90 -5 OFFCURVE",
"106 5 OFFCURVE",
"114 23 CURVE SMOOTH",
"179 179 LINE",
"519 179 LINE",
"584 23 LINE SMOOTH",
"592 5 OFFCURVE",
"608 -5 OFFCURVE",
"627 -5 CURVE SMOOTH",
"655 -5 OFFCURVE",
"672 15 OFFCURVE",
"672 40 CURVE SMOOTH",
"672 46 OFFCURVE",
"670 53 OFFCURVE",
"667 60 CURVE SMOOTH"
);
},
{
closed = 1;
nodes = (
"214 262 LINE",
"349 587 LINE",
"484 262 LINE"
);
}
);
width = 697;
}
);
leftKerningGroup = A;
note = Agrave;
rightKerningGroup = A;
unicode = 00C0;
},
{
glyphname = Aacute;
layers = (
{
layerId = "A99C00BB-606F-4263-964D-93C8B7F0BADD";
paths = (
{
closed = 1;
nodes = (
"386 894 OFFCURVE",
"376 886 OFFCURVE",
"370 875 CURVE SMOOTH",
"319 785 LINE",
"317 782 OFFCURVE",
"312 774 OFFCURVE",
"312 766 CURVE SMOOTH",
"312 750 OFFCURVE",
"323 739 OFFCURVE",
"339 739 CURVE SMOOTH",
"349 739 OFFCURVE",
"355 743 OFFCURVE",
"361 750 CURVE SMOOTH",
"430 832 LINE SMOOTH",
"437 840 OFFCURVE",
"440 848 OFFCURVE",
"440 857 CURVE SMOOTH",
"440 879 OFFCURVE",
"425 894 OFFCURVE",
"403 894 CURVE SMOOTH"
);
},
{
closed = 1;
nodes = (
"412 662 LINE SMOOTH",
"403 683 OFFCURVE",
"384 703 OFFCURVE",
"354 703 CURVE SMOOTH",
"344 703 LINE SMOOTH",
"314 703 OFFCURVE",
"295 683 OFFCURVE",
"286 662 CURVE SMOOTH",
"31 60 LINE SMOOTH",
"28 53 OFFCURVE",
"26 46 OFFCURVE",
"26 40 CURVE SMOOTH",
"26 15 OFFCURVE",
"43 -5 OFFCURVE",
"71 -5 CURVE SMOOTH",
"90 -5 OFFCURVE",
"106 5 OFFCURVE",
"114 23 CURVE SMOOTH",
"179 179 LINE",
"519 179 LINE",
"584 23 LINE SMOOTH",
"592 5 OFFCURVE",
"608 -5 OFFCURVE",
"627 -5 CURVE SMOOTH",
"655 -5 OFFCURVE",
"672 15 OFFCURVE",
"672 40 CURVE SMOOTH",
"672 46 OFFCURVE",
"670 53 OFFCURVE",
"667 60 CURVE SMOOTH"
);
},
{
closed = 1;
nodes = (
"214 262 LINE",
"349 587 LINE",
"484 262 LINE"
);
}
);
width = 697;
}
);
leftKerningGroup = A;
note = Aacute;
rightKerningGroup = A;
unicode = 00C1;
},
{
glyphname = Acircumflex;
layers = (
{
layerId = "A99C00BB-606F-4263-964D-93C8B7F0BADD";
paths = (
{
closed = 1;
nodes = (
"484 775 OFFCURVE",
"481 782 OFFCURVE",
"476 787 CURVE SMOOTH",
"408 857 LINE SMOOTH",
"398 868 OFFCURVE",
"387 877 OFFCURVE",
"368 877 CURVE SMOOTH",
"330 877 LINE SMOOTH",
"311 877 OFFCURVE",
"300 868 OFFCURVE",
"290 857 CURVE SMOOTH",
"222 787 LINE SMOOTH",
"217 782 OFFCURVE",
"214 775 OFFCURVE",
"214 768 CURVE",
"213 753 OFFCURVE",
"227 738 OFFCURVE",
"244 738 CURVE SMOOTH",
"250 738 OFFCURVE",
"258 741 OFFCURVE",
"262 745 CURVE",
"349 819 LINE",
"436 745 LINE",
"440 741 OFFCURVE",
"448 738 OFFCURVE",
"454 738 CURVE SMOOTH",
"471 738 OFFCURVE",
"485 753 OFFCURVE",
"484 768 CURVE"
);
},
{
closed = 1;
nodes = (
"412 662 LINE SMOOTH",
"403 683 OFFCURVE",
"384 703 OFFCURVE",
"354 703 CURVE SMOOTH",
"344 703 LINE SMOOTH",
"314 703 OFFCURVE",
"295 683 OFFCURVE",
"286 662 CURVE SMOOTH",
"31 60 LINE SMOOTH",
"28 53 OFFCURVE",
"26 46 OFFCURVE",
"26 40 CURVE SMOOTH",
"26 15 OFFCURVE",
"43 -5 OFFCURVE",
"71 -5 CURVE SMOOTH",
"90 -5 OFFCURVE",
"106 5 OFFCURVE",
"114 23 CURVE SMOOTH",
"179 179 LINE",
"519 179 LINE",
"584 23 LINE SMOOTH",
"592 5 OFFCURVE",
"608 -5 OFFCURVE",
"627 -5 CURVE SMOOTH",
"655 -5 OFFCURVE",
"672 15 OFFCURVE",
"672 40 CURVE SMOOTH",
"672 46 OFFCURVE",
"670 53 OFFCURVE",
"667 60 CURVE SMOOTH"
);
},
{
closed = 1;
nodes = (
"214 262 LINE",
"349 587 LINE",
"484 262 LINE"
);
}
);
width = 697;
}
);
leftKerningGroup = A;
note = Acircumflex;
rightKerningGroup = A;
unicode = 00C2;
},
{
glyphname = Atilde;
layers = (
{
layerId = "A99C00BB-606F-4263-964D-93C8B7F0BADD";
paths = (
{
closed = 1;
nodes = (
"511 852 OFFCURVE",
"503 862 OFFCURVE",
"489 862 CURVE SMOOTH",
"474 862 OFFCURVE",
"468 852 OFFCURVE",
"464 841 CURVE SMOOTH",
"458 824 OFFCURVE",
"448 814 OFFCURVE",
"427 814 CURVE SMOOTH",
"373 814 OFFCURVE",
"331 861 OFFCURVE",
"273 861 CURVE SMOOTH",
"221 861 OFFCURVE",
"189 806 OFFCURVE",
"189 766 CURVE SMOOTH",
"189 753 OFFCURVE",
"200 743 OFFCURVE",
"212 743 CURVE SMOOTH",
"225 743 OFFCURVE",
"232 752 OFFCURVE",
"235 761 CURVE",
"243 780 OFFCURVE",
"254 793 OFFCURVE",
"274 793 CURVE SMOOTH",
"326 793 OFFCURVE",
"369 745 OFFCURVE",
"428 745 CURVE SMOOTH",
"478 745 OFFCURVE",
"512 797 OFFCURVE",
"512 840 CURVE"
);
},
{
closed = 1;
nodes = (
"412 662 LINE SMOOTH",
"403 683 OFFCURVE",
"384 703 OFFCURVE",
"354 703 CURVE SMOOTH",
"344 703 LINE SMOOTH",
"314 703 OFFCURVE",
"295 683 OFFCURVE",
"286 662 CURVE SMOOTH",
"31 60 LINE SMOOTH",
"28 53 OFFCURVE",
"26 46 OFFCURVE",
"26 40 CURVE SMOOTH",
"26 15 OFFCURVE",
"43 -5 OFFCURVE",
"71 -5 CURVE SMOOTH",
"90 -5 OFFCURVE",
"106 5 OFFCURVE",
"114 23 CURVE SMOOTH",
"179 179 LINE",
"519 179 LINE",
"584 23 LINE SMOOTH",
"592 5 OFFCURVE",
"608 -5 OFFCURVE",
"627 -5 CURVE SMOOTH",
"655 -5 OFFCURVE",
"672 15 OFFCURVE",
"672 40 CURVE SMOOTH",
"672 46 OFFCURVE",
"670 53 OFFCURVE",
"667 60 CURVE SMOOTH"
);
},
{
closed = 1;
nodes = (
"214 262 LINE",
"349 587 LINE",
"484 262 LINE"
);
}
);
width = 697;
}
);
leftKerningGroup = A;
note = Atilde;
rightKerningGroup = A;
unicode = 00C3;
},
{
glyphname = Aring;
layers = (
{
layerId = "A99C00BB-606F-4263-964D-93C8B7F0BADD";
paths = (
{
closed = 1;
nodes = (
"297 918 OFFCURVE",
"255 876 OFFCURVE",
"255 824 CURVE SMOOTH",
"255 772 OFFCURVE",
"297 730 OFFCURVE",
"349 730 CURVE SMOOTH",
"401 730 OFFCURVE",
"443 772 OFFCURVE",
"443 824 CURVE SMOOTH",
"443 876 OFFCURVE",
"401 918 OFFCURVE",
"349 918 CURVE SMOOTH"
);
},
{
closed = 1;
nodes = (
"322 775 OFFCURVE",
"300 797 OFFCURVE",
"300 824 CURVE SMOOTH",
"300 851 OFFCURVE",
"322 873 OFFCURVE",
"349 873 CURVE SMOOTH",
"376 873 OFFCURVE",
"398 851 OFFCURVE",
"398 824 CURVE SMOOTH",
"398 797 OFFCURVE",
"376 775 OFFCURVE",
"349 775 CURVE SMOOTH"
);
},
{
closed = 1;
nodes = (
"412 662 LINE SMOOTH",
"403 683 OFFCURVE",
"384 703 OFFCURVE",
"354 703 CURVE SMOOTH",
"344 703 LINE SMOOTH",
"314 703 OFFCURVE",
"295 683 OFFCURVE",
"286 662 CURVE SMOOTH",
"31 60 LINE SMOOTH",
"28 53 OFFCURVE",
"26 46 OFFCURVE",
"26 40 CURVE SMOOTH",
"26 15 OFFCURVE",
"43 -5 OFFCURVE",
"71 -5 CURVE SMOOTH",
"90 -5 OFFCURVE",
"106 5 OFFCURVE",
"114 23 CURVE SMOOTH",
"179 179 LINE",
"519 179 LINE",
"584 23 LINE SMOOTH",
"592 5 OFFCURVE",
"608 -5 OFFCURVE",
"627 -5 CURVE SMOOTH",
"655 -5 OFFCURVE",
"672 15 OFFCURVE",
"672 40 CURVE SMOOTH",
"672 46 OFFCURVE",
"670 53 OFFCURVE",
"667 60 CURVE SMOOTH"
);
},
{
closed = 1;
nodes = (
"214 262 LINE",
"349 587 LINE",
"484 262 LINE"
);
}
);
width = 697;
}
);
leftKerningGroup = A;
note = Aring;
rightKerningGroup = A;
unicode = 00C5;
},
{
glyphname = AE;
layers = (
{
layerId = "A99C00BB-606F-4263-964D-93C8B7F0BADD";
paths = (
{
closed = 1;
nodes = (
"590 85 LINE",
"590 307 LINE",
"909 307 LINE SMOOTH",
"933 307 OFFCURVE",
"952 325 OFFCURVE",
"952 349 CURVE SMOOTH",
"952 373 OFFCURVE",
"933 392 OFFCURVE",
"909 392 CURVE SMOOTH",
"590 392 LINE",
"590 613 LINE",
"945 613 LINE SMOOTH",
"969 613 OFFCURVE",
"988 631 OFFCURVE",
"988 655 CURVE SMOOTH",
"988 679 OFFCURVE",
"969 698 OFFCURVE",
"945 698 CURVE SMOOTH",
"457 698 LINE SMOOTH",
"438 698 OFFCURVE",
"421 688 OFFCURVE",
"411 673 CURVE SMOOTH",
"12 68 LINE SMOOTH",
"6 59 OFFCURVE",
"2 51 OFFCURVE",
"2 40 CURVE SMOOTH",
"2 15 OFFCURVE",
"22 -5 OFFCURVE",
"48 -5 CURVE SMOOTH",
"66 -5 OFFCURVE",
"80 7 OFFCURVE",
"89 21 CURVE SMOOTH",
"191 179 LINE",
"499 179 LINE",
"499 45 LINE SMOOTH",
"499 20 OFFCURVE",
"519 0 OFFCURVE",
"544 0 CURVE SMOOTH",
"945 0 LINE SMOOTH",
"969 0 OFFCURVE",
"988 18 OFFCURVE",
"988 42 CURVE SMOOTH",
"988 66 OFFCURVE",
"969 85 OFFCURVE",
"945 85 CURVE SMOOTH"
);
},
{
closed = 1;
nodes = (
"499 262 LINE",
"245 262 LINE",
"474 613 LINE",
"499 613 LINE"
);
}
);
width = 1040;
}
);
leftKerningGroup = AE;
note = AE;
rightKerningGroup = E;
unicode = 00C6;
},
{
glyphname = Ccedilla;
layers = (
{
layerId = "A99C00BB-606F-4263-964D-93C8B7F0BADD";
paths = (
{
closed = 1;
nodes = (
"403 -59 OFFCURVE",
"393 -60 OFFCURVE",
"381 -63 CURVE",
"411 -10 LINE",
"506 -9 OFFCURVE",
"573 17 OFFCURVE",
"634 52 CURVE SMOOTH",
"647 59 OFFCURVE",
"655 69 OFFCURVE",
"656 88 CURVE SMOOTH",
"657 109 OFFCURVE",
"641 128 OFFCURVE",
"616 128 CURVE SMOOTH",
"611 128 OFFCURVE",
"604 127 OFFCURVE",
"598 124 CURVE SMOOTH",
"545 96 OFFCURVE",
"493 77 OFFCURVE",
"415 77 CURVE SMOOTH",
"238 77 OFFCURVE",
"147 195 OFFCURVE",
"147 349 CURVE SMOOTH",
"147 503 OFFCURVE",
"238 621 OFFCURVE",
"415 621 CURVE SMOOTH",
"493 621 OFFCURVE",
"545 602 OFFCURVE",
"598 574 CURVE SMOOTH",
"604 571 OFFCURVE",
"611 570 OFFCURVE",
"616 570 CURVE SMOOTH",
"641 570 OFFCURVE",
"657 589 OFFCURVE",
"656 610 CURVE SMOOTH",
"655 629 OFFCURVE",
"647 639 OFFCURVE",
"634 646 CURVE SMOOTH",
"572 681 OFFCURVE",
"504 708 OFFCURVE",
"406 708 CURVE SMOOTH",
"207 708 OFFCURVE",
"56 572 OFFCURVE",
"56 349 CURVE SMOOTH",
"56 140 OFFCURVE",
"188 8 OFFCURVE",
"369 -8 CURVE",
"321 -85 LINE SMOOTH",
"319 -88 OFFCURVE",
"317 -92 OFFCURVE",
"317 -99 CURVE SMOOTH",
"317 -108 OFFCURVE",
"326 -115 OFFCURVE",
"335 -115 CURVE SMOOTH",
"339 -115 OFFCURVE",
"343 -113 OFFCURVE",
"345 -112 CURVE SMOOTH",
"363 -103 OFFCURVE",
"375 -101 OFFCURVE",
"389 -101 CURVE SMOOTH",
"409 -101 OFFCURVE",
"425 -112 OFFCURVE",
"425 -132 CURVE SMOOTH",
"425 -167 OFFCURVE",
"400 -178 OFFCURVE",
"368 -178 CURVE SMOOTH",
"351 -178 OFFCURVE",
"331 -173 OFFCURVE",
"309 -161 CURVE",
"307 -160 OFFCURVE",
"303 -158 OFFCURVE",
"299 -158 CURVE SMOOTH",
"286 -158 OFFCURVE",
"280 -168 OFFCURVE",
"280 -178 CURVE SMOOTH",
"280 -185 OFFCURVE",
"286 -192 OFFCURVE",
"291 -195 CURVE SMOOTH",
"325 -216 OFFCURVE",
"359 -221 OFFCURVE",
"381 -221 CURVE SMOOTH",
"452 -221 OFFCURVE",
"492 -191 OFFCURVE",
"492 -129 CURVE SMOOTH",
"492 -87 OFFCURVE",
"460 -59 OFFCURVE",
"415 -59 CURVE SMOOTH"
);
}
);
width = 698;
}
);
leftKerningGroup = C;
note = Ccedilla;
rightKerningGroup = C;
unicode = 00C7;
},
{
glyphname = Eacute;
layers = (
{
layerId = "A99C00BB-606F-4263-964D-93C8B7F0BADD";
paths = (
{
closed = 1;
nodes = (
"188 85 LINE",
"188 307 LINE",
"507 307 LINE SMOOTH",
"531 307 OFFCURVE",
"550 325 OFFCURVE",
"550 349 CURVE SMOOTH",
"550 373 OFFCURVE",
"531 392 OFFCURVE",
"507 392 CURVE SMOOTH",
"188 392 LINE",
"188 613 LINE",
"543 613 LINE SMOOTH",
"567 613 OFFCURVE",
"586 631 OFFCURVE",
"586 655 CURVE SMOOTH",
"586 679 OFFCURVE",
"567 698 OFFCURVE",
"543 698 CURVE SMOOTH",
"142 698 LINE SMOOTH",
"117 698 OFFCURVE",
"97 677 OFFCURVE",
"97 652 CURVE SMOOTH",
"97 45 LINE SMOOTH",
"97 20 OFFCURVE",
"117 0 OFFCURVE",
"142 0 CURVE SMOOTH",
"543 0 LINE SMOOTH",
"567 0 OFFCURVE",
"586 18 OFFCURVE",
"586 42 CURVE SMOOTH",
"586 66 OFFCURVE",
"567 85 OFFCURVE",
"543 85 CURVE SMOOTH"
);
},
{
closed = 1;
nodes = (
"376 894 OFFCURVE",
"366 886 OFFCURVE",
"360 875 CURVE SMOOTH",
"309 785 LINE",
"307 782 OFFCURVE",
"302 774 OFFCURVE",
"302 766 CURVE SMOOTH",
"302 750 OFFCURVE",
"313 739 OFFCURVE",
"329 739 CURVE SMOOTH",
"339 739 OFFCURVE",
"345 743 OFFCURVE",
"351 750 CURVE SMOOTH",
"420 832 LINE SMOOTH",
"427 840 OFFCURVE",
"430 848 OFFCURVE",
"430 857 CURVE SMOOTH",
"430 879 OFFCURVE",
"415 894 OFFCURVE",
"393 894 CURVE SMOOTH"
);
}
);
width = 638;
}
);
leftKerningGroup = B;
note = Eacute;
rightKerningGroup = E;
unicode = 00C9;
},
{
glyphname = Edieresis;
layers = (
{
layerId = "A99C00BB-606F-4263-964D-93C8B7F0BADD";
paths = (
{
closed = 1;
nodes = (
"188 85 LINE",
"188 307 LINE",
"507 307 LINE SMOOTH",
"531 307 OFFCURVE",
"550 325 OFFCURVE",
"550 349 CURVE SMOOTH",
"550 373 OFFCURVE",
"531 392 OFFCURVE",
"507 392 CURVE SMOOTH",
"188 392 LINE",
"188 613 LINE",
"543 613 LINE SMOOTH",
"567 613 OFFCURVE",
"586 631 OFFCURVE",
"586 655 CURVE SMOOTH",
"586 679 OFFCURVE",
"567 698 OFFCURVE",
"543 698 CURVE SMOOTH",
"142 698 LINE SMOOTH",
"117 698 OFFCURVE",
"97 677 OFFCURVE",
"97 652 CURVE SMOOTH",
"97 45 LINE SMOOTH",
"97 20 OFFCURVE",
"117 0 OFFCURVE",
"142 0 CURVE SMOOTH",
"543 0 LINE SMOOTH",
"567 0 OFFCURVE",
"586 18 OFFCURVE",
"586 42 CURVE SMOOTH",
"586 66 OFFCURVE",
"567 85 OFFCURVE",
"543 85 CURVE SMOOTH"
);
},
{
closed = 1;
nodes = (
"226 849 OFFCURVE",
"203 826 OFFCURVE",
"203 798 CURVE SMOOTH",
"203 770 OFFCURVE",
"226 747 OFFCURVE",
"254 747 CURVE SMOOTH",
"282 747 OFFCURVE",
"305 770 OFFCURVE",
"305 798 CURVE SMOOTH",
"305 826 OFFCURVE",
"282 849 OFFCURVE",
"254 849 CURVE SMOOTH"
);
},
{
closed = 1;
nodes = (
"395 849 OFFCURVE",
"372 826 OFFCURVE",
"372 798 CURVE SMOOTH",
"372 770 OFFCURVE",
"395 747 OFFCURVE",
"423 747 CURVE SMOOTH",
"451 747 OFFCURVE",
"474 770 OFFCURVE",
"474 798 CURVE SMOOTH",
"474 826 OFFCURVE",
"451 849 OFFCURVE",
"423 849 CURVE SMOOTH"
);
}
);
width = 638;
}
);
leftKerningGroup = B;
note = Edieresis;
rightKerningGroup = E;
unicode = 00CB;
},
{
glyphname = Iacute;
layers = (
{
layerId = "A99C00BB-606F-4263-964D-93C8B7F0BADD";
paths = (
{
closed = 1;
nodes = (
"117 703 OFFCURVE",
"97 682 OFFCURVE",
"97 657 CURVE SMOOTH",
"97 40 LINE SMOOTH",
"97 15 OFFCURVE",
"117 -5 OFFCURVE",
"142 -5 CURVE SMOOTH",
"167 -5 OFFCURVE",
"188 15 OFFCURVE",
"188 40 CURVE SMOOTH",
"188 657 LINE SMOOTH",
"188 682 OFFCURVE",
"167 703 OFFCURVE",
"142 703 CURVE SMOOTH"
);
},
{
closed = 1;
nodes = (
"175 894 OFFCURVE",
"165 886 OFFCURVE",
"159 875 CURVE SMOOTH",
"108 785 LINE",
"106 782 OFFCURVE",
"101 774 OFFCURVE",
"101 766 CURVE SMOOTH",
"101 750 OFFCURVE",
"112 739 OFFCURVE",
"128 739 CURVE SMOOTH",
"138 739 OFFCURVE",
"144 743 OFFCURVE",
"150 750 CURVE SMOOTH",
"219 832 LINE SMOOTH",
"226 840 OFFCURVE",
"229 848 OFFCURVE",
"229 857 CURVE SMOOTH",
"229 879 OFFCURVE",
"214 894 OFFCURVE",
"192 894 CURVE SMOOTH"
);
}
);
width = 285;
}
);
leftKerningGroup = B;
note = Iacute;
rightKerningGroup = H;
unicode = 00CD;
},
{
glyphname = Idieresis;
layers = (
{
layerId = "A99C00BB-606F-4263-964D-93C8B7F0BADD";
paths = (
{
closed = 1;
nodes = (
"117 703 OFFCURVE",
"97 682 OFFCURVE",
"97 657 CURVE SMOOTH",
"97 40 LINE SMOOTH",
"97 15 OFFCURVE",
"117 -5 OFFCURVE",
"142 -5 CURVE SMOOTH",
"167 -5 OFFCURVE",
"188 15 OFFCURVE",
"188 40 CURVE SMOOTH",
"188 657 LINE SMOOTH",
"188 682 OFFCURVE",
"167 703 OFFCURVE",
"142 703 CURVE SMOOTH"
);
},
{
closed = 1;
nodes = (
"30 849 OFFCURVE",
"7 826 OFFCURVE",
"7 798 CURVE SMOOTH",
"7 770 OFFCURVE",
"30 747 OFFCURVE",
"58 747 CURVE SMOOTH",
"86 747 OFFCURVE",
"109 770 OFFCURVE",
"109 798 CURVE SMOOTH",
"109 826 OFFCURVE",
"86 849 OFFCURVE",
"58 849 CURVE SMOOTH"
);
},
{
closed = 1;
nodes = (
"199 849 OFFCURVE",
"176 826 OFFCURVE",
"176 798 CURVE SMOOTH",
"176 770 OFFCURVE",
"199 747 OFFCURVE",
"227 747 CURVE SMOOTH",
"255 747 OFFCURVE",
"278 770 OFFCURVE",
"278 798 CURVE SMOOTH",
"278 826 OFFCURVE",
"255 849 OFFCURVE",
"227 849 CURVE SMOOTH"
);
}
);
width = 285;
}
);
leftKerningGroup = B;
note = Idieresis;
rightKerningGroup = H;
unicode = 00CF;
},
{
glyphname = Eth;
layers = (
{
layerId = "A99C00BB-606F-4263-964D-93C8B7F0BADD";
paths = (
{
closed = 1;
nodes = (
"149 698 LINE SMOOTH",
"124 698 OFFCURVE",
"104 677 OFFCURVE",
"104 652 CURVE SMOOTH",
"104 382 LINE",
"50 382 LINE SMOOTH",
"31 382 OFFCURVE",
"17 367 OFFCURVE",
"17 348 CURVE SMOOTH",
"17 329 OFFCURVE",
"31 315 OFFCURVE",
"50 315 CURVE SMOOTH",
"104 315 LINE",
"104 45 LINE SMOOTH",
"104 20 OFFCURVE",
"124 0 OFFCURVE",
"149 0 CURVE SMOOTH",
"350 0 LINE SMOOTH",
"589 0 OFFCURVE",
"703 181 OFFCURVE",
"703 349 CURVE SMOOTH",
"703 518 OFFCURVE",
"589 698 OFFCURVE",
"350 698 CURVE SMOOTH"
);
},
{
closed = 1;
nodes = (
"195 85 LINE",
"195 315 LINE",
"312 315 LINE SMOOTH",
"331 315 OFFCURVE",
"346 329 OFFCURVE",
"346 348 CURVE SMOOTH",
"346 367 OFFCURVE",
"331 382 OFFCURVE",
"312 382 CURVE SMOOTH",
"195 382 LINE",
"195 613 LINE",
"339 613 LINE SMOOTH",
"506 613 OFFCURVE",
"613 505 OFFCURVE",
"613 349 CURVE SMOOTH",
"613 193 OFFCURVE",
"506 85 OFFCURVE",
"339 85 CURVE SMOOTH"
);
}
);
width = 757;
}
);
leftKerningGroup = B;
note = Eth;
rightKerningGroup = D;
unicode = 00D0;
},
{
glyphname = Oacute;
layers = (
{
layerId = "A99C00BB-606F-4263-964D-93C8B7F0BADD";
paths = (
{
closed = 1;
nodes = (
"192 708 OFFCURVE",
"59 558 OFFCURVE",
"55 349 CURVE",
"59 140 OFFCURVE",
"192 -10 OFFCURVE",
"406 -10 CURVE SMOOTH",
"619 -10 OFFCURVE",
"753 140 OFFCURVE",
"757 349 CURVE",
"753 558 OFFCURVE",
"619 708 OFFCURVE",
"406 708 CURVE SMOOTH"
);
},
{
closed = 1;
nodes = (
"240 75 OFFCURVE",
"146 195 OFFCURVE",
"146 349 CURVE SMOOTH",
"146 503 OFFCURVE",
"240 623 OFFCURVE",
"406 623 CURVE SMOOTH",
"571 623 OFFCURVE",
"666 503 OFFCURVE",
"666 349 CURVE SMOOTH",
"666 195 OFFCURVE",
"571 75 OFFCURVE",
"406 75 CURVE SMOOTH"
);
},
{
closed = 1;
nodes = (
"436 894 OFFCURVE",
"426 886 OFFCURVE",
"420 875 CURVE SMOOTH",
"369 785 LINE",
"367 782 OFFCURVE",
"362 774 OFFCURVE",
"362 766 CURVE SMOOTH",
"362 750 OFFCURVE",
"373 739 OFFCURVE",
"389 739 CURVE SMOOTH",
"399 739 OFFCURVE",
"405 743 OFFCURVE",
"411 750 CURVE SMOOTH",
"480 832 LINE SMOOTH",
"487 840 OFFCURVE",
"490 848 OFFCURVE",
"490 857 CURVE SMOOTH",
"490 879 OFFCURVE",
"475 894 OFFCURVE",
"453 894 CURVE SMOOTH"
);
}
);
width = 811;
}
);
leftKerningGroup = C;
note = Oacute;
rightKerningGroup = O;
unicode = 00D3;
},
{
glyphname = Otilde;
layers = (
{
layerId = "A99C00BB-606F-4263-964D-93C8B7F0BADD";
paths = (
{
closed = 1;
nodes = (
"192 708 OFFCURVE",
"59 558 OFFCURVE",
"55 349 CURVE",
"59 140 OFFCURVE",
"192 -10 OFFCURVE",
"406 -10 CURVE SMOOTH",
"619 -10 OFFCURVE",
"753 140 OFFCURVE",
"757 349 CURVE",
"753 558 OFFCURVE",
"619 708 OFFCURVE",
"406 708 CURVE SMOOTH"
);
},
{
closed = 1;
nodes = (
"240 75 OFFCURVE",
"146 195 OFFCURVE",
"146 349 CURVE SMOOTH",
"146 503 OFFCURVE",
"240 623 OFFCURVE",
"406 623 CURVE SMOOTH",
"571 623 OFFCURVE",
"666 503 OFFCURVE",
"666 349 CURVE SMOOTH",
"666 195 OFFCURVE",
"571 75 OFFCURVE",
"406 75 CURVE SMOOTH"
);
},
{
closed = 1;
nodes = (
"567 852 OFFCURVE",
"559 862 OFFCURVE",
"545 862 CURVE SMOOTH",
"530 862 OFFCURVE",
"524 852 OFFCURVE",
"520 841 CURVE SMOOTH",
"514 824 OFFCURVE",
"504 814 OFFCURVE",
"483 814 CURVE SMOOTH",
"429 814 OFFCURVE",
"387 861 OFFCURVE",
"329 861 CURVE SMOOTH",
"277 861 OFFCURVE",
"245 806 OFFCURVE",
"245 766 CURVE SMOOTH",
"245 753 OFFCURVE",
"256 743 OFFCURVE",
"268 743 CURVE SMOOTH",
"281 743 OFFCURVE",
"288 752 OFFCURVE",
"291 761 CURVE",
"299 780 OFFCURVE",
"310 793 OFFCURVE",
"330 793 CURVE SMOOTH",
"382 793 OFFCURVE",
"425 745 OFFCURVE",
"484 745 CURVE SMOOTH",
"534 745 OFFCURVE",
"568 797 OFFCURVE",
"568 840 CURVE"
);
}
);
width = 811;
}
);
leftKerningGroup = C;
note = Otilde;
rightKerningGroup = O;
unicode = 00D5;
},
{
glyphname = multiply;
layers = (
{
layerId = "A99C00BB-606F-4263-964D-93C8B7F0BADD";
paths = (
{
closed = 1;
nodes = (
"75 480 OFFCURVE",
"59 462 OFFCURVE",
"59 442 CURVE SMOOTH",
"59 432 OFFCURVE",
"64 422 OFFCURVE",
"71 415 CURVE SMOOTH",
"228 258 LINE",
"71 101 LINE SMOOTH",
"64 94 OFFCURVE",
"59 84 OFFCURVE",
"59 74 CURVE SMOOTH",
"59 54 OFFCURVE",
"75 36 OFFCURVE",
"97 36 CURVE SMOOTH",
"107 36 OFFCURVE",
"117 41 OFFCURVE",
"124 48 CURVE SMOOTH",
"281 205 LINE",
"438 48 LINE SMOOTH",
"445 41 OFFCURVE",
"455 36 OFFCURVE",
"465 36 CURVE SMOOTH",
"487 36 OFFCURVE",
"503 54 OFFCURVE",
"503 74 CURVE SMOOTH",
"503 84 OFFCURVE",
"498 94 OFFCURVE",
"491 101 CURVE SMOOTH",
"334 258 LINE",
"491 415 LINE SMOOTH",
"498 422 OFFCURVE",
"503 432 OFFCURVE",
"503 442 CURVE SMOOTH",
"503 462 OFFCURVE",
"487 480 OFFCURVE",
"465 480 CURVE SMOOTH",
"455 480 OFFCURVE",
"445 475 OFFCURVE",
"438 468 CURVE SMOOTH",
"281 311 LINE",
"124 468 LINE SMOOTH",
"117 475 OFFCURVE",
"107 480 OFFCURVE",
"97 480 CURVE SMOOTH"
);
}
);
width = 563;
}
);
note = multiply;
unicode = 00D7;
},
{
glyphname = Oslash;
layers = (
{
layerId = "A99C00BB-606F-4263-964D-93C8B7F0BADD";
paths = (
{
closed = 1;
nodes = (
"192 708 OFFCURVE",
"59 558 OFFCURVE",
"55 349 CURVE",
"57 230 OFFCURVE",
"101 130 OFFCURVE",
"178 66 CURVE",
"139 11 LINE SMOOTH",
"135 5 OFFCURVE",
"133 0 OFFCURVE",
"133 -6 CURVE SMOOTH",
"133 -19 OFFCURVE",
"143 -30 OFFCURVE",
"158 -30 CURVE SMOOTH",
"166 -30 OFFCURVE",
"174 -27 OFFCURVE",
"179 -20 CURVE SMOOTH",
"219 37 LINE",
"271 7 OFFCURVE",
"334 -10 OFFCURVE",
"406 -10 CURVE SMOOTH",
"619 -10 OFFCURVE",
"753 140 OFFCURVE",
"757 349 CURVE",
"754 467 OFFCURVE",
"711 566 OFFCURVE",
"635 630 CURVE",
"674 686 LINE SMOOTH",
"678 692 OFFCURVE",
"680 697 OFFCURVE",
"680 703 CURVE SMOOTH",
"680 716 OFFCURVE",
"670 727 OFFCURVE",
"655 727 CURVE SMOOTH",
"647 727 OFFCURVE",
"639 724 OFFCURVE",
"634 717 CURVE SMOOTH",
"594 659 LINE",
"542 690 OFFCURVE",
"478 708 OFFCURVE",
"406 708 CURVE SMOOTH"
);
},
{
closed = 1;
nodes = (
"146 503 OFFCURVE",
"240 623 OFFCURVE",
"406 623 CURVE SMOOTH",
"459 623 OFFCURVE",
"505 610 OFFCURVE",
"543 588 CURVE",
"229 139 LINE",
"175 189 OFFCURVE",
"146 263 OFFCURVE",
"146 349 CURVE SMOOTH"
);
},
{
closed = 1;
nodes = (
"353 75 OFFCURVE",
"307 87 OFFCURVE",
"269 109 CURVE",
"584 558 LINE",
"637 508 OFFCURVE",
"666 433 OFFCURVE",
"666 349 CURVE SMOOTH",
"666 195 OFFCURVE",
"571 75 OFFCURVE",
"406 75 CURVE SMOOTH"
);
}
);
width = 811;
}
);
leftKerningGroup = C;
note = Oslash;
rightKerningGroup = O;
unicode = 00D8;
},
{
glyphname = Uacute;
layers = (
{
layerId = "A99C00BB-606F-4263-964D-93C8B7F0BADD";
paths = (
{
closed = 1;
nodes = (
"595 703 OFFCURVE",
"575 682 OFFCURVE",
"575 657 CURVE SMOOTH",
"575 259 LINE SMOOTH",
"575 134 OFFCURVE",
"477 73 OFFCURVE",
"379 73 CURVE SMOOTH",
"281 73 OFFCURVE",
"183 134 OFFCURVE",
"183 259 CURVE SMOOTH",
"183 657 LINE SMOOTH",
"183 682 OFFCURVE",
"162 703 OFFCURVE",
"137 703 CURVE SMOOTH",
"112 703 OFFCURVE",
"92 682 OFFCURVE",
"92 657 CURVE SMOOTH",
"92 262 LINE SMOOTH",
"92 74 OFFCURVE",
"245 -10 OFFCURVE",
"379 -10 CURVE SMOOTH",
"513 -10 OFFCURVE",
"666 74 OFFCURVE",
"666 262 CURVE SMOOTH",
"666 657 LINE SMOOTH",
"666 682 OFFCURVE",
"645 703 OFFCURVE",
"620 703 CURVE SMOOTH"
);
},
{
closed = 1;
nodes = (
"403 894 OFFCURVE",
"393 886 OFFCURVE",
"387 875 CURVE SMOOTH",
"336 785 LINE",
"334 782 OFFCURVE",
"329 774 OFFCURVE",
"329 766 CURVE SMOOTH",
"329 750 OFFCURVE",
"340 739 OFFCURVE",
"356 739 CURVE SMOOTH",
"366 739 OFFCURVE",
"372 743 OFFCURVE",
"378 750 CURVE SMOOTH",
"447 832 LINE SMOOTH",
"454 840 OFFCURVE",
"457 848 OFFCURVE",
"457 857 CURVE SMOOTH",
"457 879 OFFCURVE",
"442 894 OFFCURVE",
"420 894 CURVE SMOOTH"
);
}
);
width = 758;
}
);
leftKerningGroup = U;
note = Uacute;
rightKerningGroup = U;
unicode = 00DA;
},
{
glyphname = Udieresis;
layers = (
{
layerId = "A99C00BB-606F-4263-964D-93C8B7F0BADD";
paths = (
{
closed = 1;
nodes = (
"595 703 OFFCURVE",
"575 682 OFFCURVE",
"575 657 CURVE SMOOTH",
"575 259 LINE SMOOTH",
"575 134 OFFCURVE",
"477 73 OFFCURVE",
"379 73 CURVE SMOOTH",
"281 73 OFFCURVE",
"183 134 OFFCURVE",
"183 259 CURVE SMOOTH",
"183 657 LINE SMOOTH",
"183 682 OFFCURVE",
"162 703 OFFCURVE",
"137 703 CURVE SMOOTH",
"112 703 OFFCURVE",
"92 682 OFFCURVE",
"92 657 CURVE SMOOTH",
"92 262 LINE SMOOTH",
"92 74 OFFCURVE",
"245 -10 OFFCURVE",
"379 -10 CURVE SMOOTH",
"513 -10 OFFCURVE",
"666 74 OFFCURVE",
"666 262 CURVE SMOOTH",
"666 657 LINE SMOOTH",
"666 682 OFFCURVE",
"645 703 OFFCURVE",
"620 703 CURVE SMOOTH"
);
},
{
closed = 1;
nodes = (
"267 849 OFFCURVE",
"244 826 OFFCURVE",
"244 798 CURVE SMOOTH",
"244 770 OFFCURVE",
"267 747 OFFCURVE",
"295 747 CURVE SMOOTH",
"323 747 OFFCURVE",
"346 770 OFFCURVE",
"346 798 CURVE SMOOTH",
"346 826 OFFCURVE",
"323 849 OFFCURVE",
"295 849 CURVE SMOOTH"
);
},
{
closed = 1;
nodes = (
"436 849 OFFCURVE",
"413 826 OFFCURVE",
"413 798 CURVE SMOOTH",
"413 770 OFFCURVE",
"436 747 OFFCURVE",
"464 747 CURVE SMOOTH",
"492 747 OFFCURVE",
"515 770 OFFCURVE",
"515 798 CURVE SMOOTH",
"515 826 OFFCURVE",
"492 849 OFFCURVE",
"464 849 CURVE SMOOTH"
);
}
);
width = 758;
}
);
leftKerningGroup = U;
note = Udieresis;
rightKerningGroup = U;
unicode = 00DC;
},
{
glyphname = Thorn;
layers = (
{
layerId = "A99C00BB-606F-4263-964D-93C8B7F0BADD";
paths = (
{
closed = 1;
nodes = (
"188 586 LINE",
"188 657 LINE SMOOTH",
"188 682 OFFCURVE",
"167 703 OFFCURVE",
"142 703 CURVE SMOOTH",
"117 703 OFFCURVE",
"97 682 OFFCURVE",
"97 657 CURVE SMOOTH",
"97 40 LINE SMOOTH",
"97 15 OFFCURVE",
"117 -5 OFFCURVE",
"142 -5 CURVE SMOOTH",
"167 -5 OFFCURVE",
"188 15 OFFCURVE",
"188 40 CURVE SMOOTH",
"188 142 LINE",
"370 142 LINE SMOOTH",
"572 142 OFFCURVE",
"637 258 OFFCURVE",
"637 364 CURVE SMOOTH",
"637 470 OFFCURVE",
"572 586 OFFCURVE",
"370 586 CURVE SMOOTH"
);
},
{
closed = 1;
nodes = (
"188 228 LINE",
"188 500 LINE",
"361 500 LINE SMOOTH",
"510 500 OFFCURVE",
"546 429 OFFCURVE",
"546 364 CURVE SMOOTH",
"546 299 OFFCURVE",
"510 228 OFFCURVE",
"361 228 CURVE SMOOTH"
);
}
);
width = 671;
}
);
leftKerningGroup = B;
note = Thorn;
unicode = 00DE;
},
{
glyphname = germandbls;
layers = (
{
layerId = "A99C00BB-606F-4263-964D-93C8B7F0BADD";
paths = (
{
closed = 1;
nodes = (
"467 369 OFFCURVE",
"524 410 OFFCURVE",
"524 512 CURVE SMOOTH",
"524 648 OFFCURVE",
"407 708 OFFCURVE",
"305 708 CURVE SMOOTH",
"173 708 OFFCURVE",
"79 629 OFFCURVE",
"79 486 CURVE SMOOTH",
"79 41 LINE SMOOTH",
"79 16 OFFCURVE",
"99 -4 OFFCURVE",
"124 -4 CURVE SMOOTH",
"149 -4 OFFCURVE",
"170 16 OFFCURVE",
"170 41 CURVE SMOOTH",
"170 475 LINE SMOOTH",
"170 594 OFFCURVE",
"239 623 OFFCURVE",
"304 623 CURVE SMOOTH",
"384 623 OFFCURVE",
"433 577 OFFCURVE",
"433 502 CURVE SMOOTH",
"433 438 OFFCURVE",
"382 392 OFFCURVE",
"300 383 CURVE SMOOTH",
"278 380 OFFCURVE",
"262 366 OFFCURVE",
"262 346 CURVE SMOOTH",
"262 324 OFFCURVE",
"276 309 OFFCURVE",
"300 309 CURVE SMOOTH",
"398 309 OFFCURVE",
"472 263 OFFCURVE",
"472 185 CURVE SMOOTH",
"472 91 OFFCURVE",
"396 71 OFFCURVE",
"358 71 CURVE SMOOTH",
"330 71 OFFCURVE",
"305 74 OFFCURVE",
"284 81 CURVE",
"279 83 OFFCURVE",
"274 84 OFFCURVE",
"269 84 CURVE SMOOTH",
"246 84 OFFCURVE",
"230 67 OFFCURVE",
"230 45 CURVE SMOOTH",
"230 25 OFFCURVE",
"244 13 OFFCURVE",
"262 7 CURVE SMOOTH",
"291 -3 OFFCURVE",
"329 -10 OFFCURVE",
"373 -10 CURVE SMOOTH",
"468 -10 OFFCURVE",
"563 49 OFFCURVE",
"563 174 CURVE SMOOTH",
"563 292 OFFCURVE",
"476 337 OFFCURVE",
"414 352 CURVE"
);
}
);
width = 610;
}
);
leftKerningGroup = f;
note = germandbls;
unicode = 00DF;
},
{
glyphname = aacute;
layers = (
{
layerId = "A99C00BB-606F-4263-964D-93C8B7F0BADD";
paths = (
{
closed = 1;
nodes = (
"200 520 OFFCURVE",
"145 504 OFFCURVE",
"98 484 CURVE SMOOTH",
"81 477 OFFCURVE",
"72 463 OFFCURVE",
"72 446 CURVE SMOOTH",
"72 424 OFFCURVE",
"89 408 OFFCURVE",
"109 408 CURVE SMOOTH",
"113 408 OFFCURVE",
"118 409 OFFCURVE",
"122 410 CURVE",
"159 422 OFFCURVE",
"199 434 OFFCURVE",
"255 434 CURVE SMOOTH",
"345 434 OFFCURVE",
"389 399 OFFCURVE",
"389 310 CURVE SMOOTH",
"389 302 LINE",
"268 302 LINE SMOOTH",
"112 302 OFFCURVE",
"38 234 OFFCURVE",
"38 140 CURVE SMOOTH",
"38 46 OFFCURVE",
"114 -10 OFFCURVE",
"201 -10 CURVE SMOOTH",
"295 -10 OFFCURVE",
"353 29 OFFCURVE",
"389 66 CURVE",
"389 40 LINE SMOOTH",
"389 15 OFFCURVE",
"409 -5 OFFCURVE",
"434 -5 CURVE SMOOTH",
"459 -5 OFFCURVE",
"480 15 OFFCURVE",
"480 40 CURVE SMOOTH",
"480 323 LINE SMOOTH",
"480 421 OFFCURVE",
"417 520 OFFCURVE",
"271 520 CURVE SMOOTH"
);
},
{
closed = 1;
nodes = (
"154 70 OFFCURVE",
"129 107 OFFCURVE",
"129 150 CURVE SMOOTH",
"129 207 OFFCURVE",
"186 229 OFFCURVE",
"280 229 CURVE SMOOTH",
"389 229 LINE",
"389 145 LINE",
"355 106 OFFCURVE",
"297 70 OFFCURVE",
"235 70 CURVE SMOOTH"
);
},
{
closed = 1;
nodes = (
"298 722 OFFCURVE",
"288 714 OFFCURVE",
"282 703 CURVE SMOOTH",
"231 613 LINE",
"229 610 OFFCURVE",
"224 602 OFFCURVE",
"224 594 CURVE SMOOTH",
"224 578 OFFCURVE",
"235 567 OFFCURVE",
"251 567 CURVE SMOOTH",
"261 567 OFFCURVE",
"267 571 OFFCURVE",
"273 578 CURVE SMOOTH",
"342 660 LINE SMOOTH",
"349 668 OFFCURVE",
"352 676 OFFCURVE",
"352 685 CURVE SMOOTH",
"352 707 OFFCURVE",
"337 722 OFFCURVE",
"315 722 CURVE SMOOTH"
);
}
);
width = 555;
}
);
leftKerningGroup = a;
note = aacute;
rightKerningGroup = a;
unicode = 00E1;
},
{
glyphname = atilde;
layers = (
{
layerId = "A99C00BB-606F-4263-964D-93C8B7F0BADD";
paths = (
{
closed = 1;
nodes = (
"200 520 OFFCURVE",
"145 504 OFFCURVE",
"98 484 CURVE SMOOTH",
"81 477 OFFCURVE",
"72 463 OFFCURVE",
"72 446 CURVE SMOOTH",
"72 424 OFFCURVE",
"89 408 OFFCURVE",
"109 408 CURVE SMOOTH",
"113 408 OFFCURVE",
"118 409 OFFCURVE",
"122 410 CURVE",
"159 422 OFFCURVE",
"199 434 OFFCURVE",
"255 434 CURVE SMOOTH",
"345 434 OFFCURVE",
"389 399 OFFCURVE",
"389 310 CURVE SMOOTH",
"389 302 LINE",
"268 302 LINE SMOOTH",
"112 302 OFFCURVE",
"38 234 OFFCURVE",
"38 140 CURVE SMOOTH",
"38 46 OFFCURVE",
"114 -10 OFFCURVE",
"201 -10 CURVE SMOOTH",
"295 -10 OFFCURVE",
"353 29 OFFCURVE",
"389 66 CURVE",
"389 40 LINE SMOOTH",
"389 15 OFFCURVE",
"409 -5 OFFCURVE",
"434 -5 CURVE SMOOTH",
"459 -5 OFFCURVE",
"480 15 OFFCURVE",
"480 40 CURVE SMOOTH",
"480 323 LINE SMOOTH",
"480 421 OFFCURVE",
"417 520 OFFCURVE",
"271 520 CURVE SMOOTH"
);
},
{
closed = 1;
nodes = (
"154 70 OFFCURVE",
"129 107 OFFCURVE",
"129 150 CURVE SMOOTH",
"129 207 OFFCURVE",
"186 229 OFFCURVE",
"280 229 CURVE SMOOTH",
"389 229 LINE",
"389 145 LINE",
"355 106 OFFCURVE",
"297 70 OFFCURVE",
"235 70 CURVE SMOOTH"
);
},
{
closed = 1;
nodes = (
"431 680 OFFCURVE",
"423 690 OFFCURVE",
"409 690 CURVE SMOOTH",
"394 690 OFFCURVE",
"388 680 OFFCURVE",
"384 669 CURVE SMOOTH",
"378 652 OFFCURVE",
"368 642 OFFCURVE",
"347 642 CURVE SMOOTH",
"293 642 OFFCURVE",
"251 689 OFFCURVE",
"193 689 CURVE SMOOTH",
"141 689 OFFCURVE",
"109 634 OFFCURVE",
"109 594 CURVE SMOOTH",
"109 581 OFFCURVE",
"120 571 OFFCURVE",
"132 571 CURVE SMOOTH",
"145 571 OFFCURVE",
"152 580 OFFCURVE",
"155 589 CURVE",
"163 608 OFFCURVE",
"174 621 OFFCURVE",
"194 621 CURVE SMOOTH",
"246 621 OFFCURVE",
"289 573 OFFCURVE",
"348 573 CURVE SMOOTH",
"398 573 OFFCURVE",
"432 625 OFFCURVE",
"432 668 CURVE"
);
}
);
width = 555;
}
);
leftKerningGroup = a;
note = atilde;
rightKerningGroup = a;
unicode = 00E3;
},
{
glyphname = aring;
layers = (
{
layerId = "A99C00BB-606F-4263-964D-93C8B7F0BADD";
paths = (
{
closed = 1;
nodes = (
"200 520 OFFCURVE",
"145 504 OFFCURVE",
"98 484 CURVE SMOOTH",
"81 477 OFFCURVE",
"72 463 OFFCURVE",
"72 446 CURVE SMOOTH",
"72 424 OFFCURVE",
"89 408 OFFCURVE",
"109 408 CURVE SMOOTH",
"113 408 OFFCURVE",
"118 409 OFFCURVE",
"122 410 CURVE",
"159 422 OFFCURVE",
"199 434 OFFCURVE",
"255 434 CURVE SMOOTH",
"345 434 OFFCURVE",
"389 399 OFFCURVE",
"389 310 CURVE SMOOTH",
"389 302 LINE",
"268 302 LINE SMOOTH",
"112 302 OFFCURVE",
"38 234 OFFCURVE",
"38 140 CURVE SMOOTH",
"38 46 OFFCURVE",
"114 -10 OFFCURVE",
"201 -10 CURVE SMOOTH",
"295 -10 OFFCURVE",
"353 29 OFFCURVE",
"389 66 CURVE",
"389 40 LINE SMOOTH",
"389 15 OFFCURVE",
"409 -5 OFFCURVE",
"434 -5 CURVE SMOOTH",
"459 -5 OFFCURVE",
"480 15 OFFCURVE",
"480 40 CURVE SMOOTH",
"480 323 LINE SMOOTH",
"480 421 OFFCURVE",
"417 520 OFFCURVE",
"271 520 CURVE SMOOTH"
);
},
{
closed = 1;
nodes = (
"154 70 OFFCURVE",
"129 107 OFFCURVE",
"129 150 CURVE SMOOTH",
"129 207 OFFCURVE",
"186 229 OFFCURVE",
"280 229 CURVE SMOOTH",
"389 229 LINE",
"389 145 LINE",
"355 106 OFFCURVE",
"297 70 OFFCURVE",
"235 70 CURVE SMOOTH"
);
},
{
closed = 1;
nodes = (
"217 739 OFFCURVE",
"175 697 OFFCURVE",
"175 645 CURVE SMOOTH",
"175 593 OFFCURVE",
"217 551 OFFCURVE",
"269 551 CURVE SMOOTH",
"321 551 OFFCURVE",
"363 593 OFFCURVE",
"363 645 CURVE SMOOTH",
"363 697 OFFCURVE",
"321 739 OFFCURVE",
"269 739 CURVE SMOOTH"
);
},
{
closed = 1;
nodes = (
"242 596 OFFCURVE",
"220 618 OFFCURVE",
"220 645 CURVE SMOOTH",
"220 672 OFFCURVE",
"242 694 OFFCURVE",
"269 694 CURVE SMOOTH",
"296 694 OFFCURVE",
"318 672 OFFCURVE",
"318 645 CURVE SMOOTH",
"318 618 OFFCURVE",
"296 596 OFFCURVE",
"269 596 CURVE SMOOTH"
);
}
);
width = 555;
}
);
leftKerningGroup = a;
note = aring;
rightKerningGroup = a;
unicode = 00E5;
},
{
glyphname = ae;
layers = (
{
layerId = "A99C00BB-606F-4263-964D-93C8B7F0BADD";
paths = (
{
closed = 1;
nodes = (
"861 413 OFFCURVE",
"771 520 OFFCURVE",
"622 520 CURVE SMOOTH",
"538 520 OFFCURVE",
"479 487 OFFCURVE",
"441 436 CURVE",
"411 485 OFFCURVE",
"357 520 OFFCURVE",
"270 520 CURVE SMOOTH",
"199 520 OFFCURVE",
"144 504 OFFCURVE",
"97 484 CURVE SMOOTH",
"80 477 OFFCURVE",
"71 463 OFFCURVE",
"71 446 CURVE SMOOTH",
"71 424 OFFCURVE",
"88 408 OFFCURVE",
"108 408 CURVE SMOOTH",
"112 408 OFFCURVE",
"117 409 OFFCURVE",
"121 410 CURVE",
"158 422 OFFCURVE",
"198 434 OFFCURVE",
"254 434 CURVE SMOOTH",
"344 434 OFFCURVE",
"388 399 OFFCURVE",
"388 310 CURVE SMOOTH",
"388 299 LINE",
"267 299 LINE SMOOTH",
"111 299 OFFCURVE",
"37 234 OFFCURVE",
"37 140 CURVE SMOOTH",
"37 46 OFFCURVE",
"127 -10 OFFCURVE",
"233 -10 CURVE SMOOTH",
"301 -10 OFFCURVE",
"392 5 OFFCURVE",
"439 77 CURVE",
"482 21 OFFCURVE",
"551 -10 OFFCURVE",
"642 -10 CURVE SMOOTH",
"729 -10 OFFCURVE",
"773 9 OFFCURVE",
"817 34 CURVE SMOOTH",
"831 42 OFFCURVE",
"843 55 OFFCURVE",
"843 71 CURVE SMOOTH",
"843 94 OFFCURVE",
"824 110 OFFCURVE",
"803 110 CURVE SMOOTH",
"796 110 OFFCURVE",
"791 109 OFFCURVE",
"785 106 CURVE SMOOTH",
"748 87 OFFCURVE",
"710 75 OFFCURVE",
"650 75 CURVE SMOOTH",
"534 75 OFFCURVE",
"483 136 OFFCURVE",
"473 226 CURVE",
"817 226 LINE SMOOTH",
"845 226 OFFCURVE",
"861 247 OFFCURVE",
"861 269 CURVE SMOOTH"
);
},
{
closed = 1;
nodes = (
"388 169 LINE SMOOTH",
"388 88 OFFCURVE",
"313 70 OFFCURVE",
"251 70 CURVE SMOOTH",
"170 70 OFFCURVE",
"128 107 OFFCURVE",
"128 150 CURVE SMOOTH",
"128 207 OFFCURVE",
"185 226 OFFCURVE",
"279 226 CURVE SMOOTH",
"388 226 LINE"
);
},
{
closed = 1;
nodes = (
"473 299 LINE",
"479 403 OFFCURVE",
"558 443 OFFCURVE",
"622 443 CURVE SMOOTH",
"686 443 OFFCURVE",
"765 403 OFFCURVE",
"771 299 CURVE"
);
}
);
width = 904;
}
);
leftKerningGroup = a;
note = ae;
rightKerningGroup = e;
unicode = 00E6;
},
{
glyphname = ccedilla;
layers = (
{
layerId = "A99C00BB-606F-4263-964D-93C8B7F0BADD";
paths = (
{
closed = 1;
nodes = (
"307 -59 OFFCURVE",
"297 -60 OFFCURVE",
"285 -63 CURVE",
"315 -10 LINE",
"393 -9 OFFCURVE",
"442 16 OFFCURVE",
"476 38 CURVE SMOOTH",
"488 46 OFFCURVE",
"496 58 OFFCURVE",
"496 73 CURVE SMOOTH",
"496 92 OFFCURVE",
"479 113 OFFCURVE",
"458 113 CURVE SMOOTH",
"450 113 OFFCURVE",
"445 112 OFFCURVE",
"436 107 CURVE SMOOTH",
"401 89 OFFCURVE",
"373 75 OFFCURVE",
"321 75 CURVE SMOOTH",
"205 75 OFFCURVE",
"137 148 OFFCURVE",
"137 255 CURVE SMOOTH",
"137 362 OFFCURVE",
"205 435 OFFCURVE",
"321 435 CURVE SMOOTH",
"373 435 OFFCURVE",
"401 421 OFFCURVE",
"436 403 CURVE SMOOTH",
"445 398 OFFCURVE",
"450 397 OFFCURVE",
"458 397 CURVE SMOOTH",
"479 397 OFFCURVE",
"496 418 OFFCURVE",
"496 437 CURVE SMOOTH",
"496 452 OFFCURVE",
"488 464 OFFCURVE",
"476 472 CURVE SMOOTH",
"442 494 OFFCURVE",
"392 520 OFFCURVE",
"313 520 CURVE SMOOTH",
"171 520 OFFCURVE",
"46 422 OFFCURVE",
"46 255 CURVE SMOOTH",
"46 103 OFFCURVE",
"148 9 OFFCURVE",
"273 -7 CURVE",
"225 -85 LINE",
"223 -88 OFFCURVE",
"221 -92 OFFCURVE",
"221 -99 CURVE SMOOTH",
"221 -108 OFFCURVE",
"230 -115 OFFCURVE",
"239 -115 CURVE SMOOTH",
"243 -115 OFFCURVE",
"247 -113 OFFCURVE",
"249 -112 CURVE SMOOTH",
"267 -103 OFFCURVE",
"279 -101 OFFCURVE",
"293 -101 CURVE SMOOTH",
"313 -101 OFFCURVE",
"329 -112 OFFCURVE",
"329 -132 CURVE SMOOTH",
"329 -167 OFFCURVE",
"304 -178 OFFCURVE",
"272 -178 CURVE SMOOTH",
"255 -178 OFFCURVE",
"235 -173 OFFCURVE",
"213 -161 CURVE",
"211 -160 OFFCURVE",
"207 -158 OFFCURVE",
"203 -158 CURVE SMOOTH",
"190 -158 OFFCURVE",
"184 -168 OFFCURVE",
"184 -178 CURVE SMOOTH",
"184 -185 OFFCURVE",
"190 -192 OFFCURVE",
"195 -195 CURVE SMOOTH",
"229 -216 OFFCURVE",
"263 -221 OFFCURVE",
"285 -221 CURVE SMOOTH",
"356 -221 OFFCURVE",
"396 -191 OFFCURVE",
"396 -129 CURVE SMOOTH",
"396 -87 OFFCURVE",
"364 -59 OFFCURVE",
"319 -59 CURVE SMOOTH"
);
}
);
width = 537;
}
);
leftKerningGroup = c;
note = ccedilla;
rightKerningGroup = c;
unicode = 00E7;
},
{
glyphname = eacute;
layers = (
{
layerId = "A99C00BB-606F-4263-964D-93C8B7F0BADD";
paths = (
{
closed = 1;
nodes = (
"462 110 OFFCURVE",
"457 109 OFFCURVE",
"451 106 CURVE SMOOTH",
"414 87 OFFCURVE",
"376 75 OFFCURVE",
"316 75 CURVE SMOOTH",
"208 75 OFFCURVE",
"151 133 OFFCURVE",
"141 223 CURVE",
"480 223 LINE SMOOTH",
"508 223 OFFCURVE",
"526 243 OFFCURVE",
"526 268 CURVE SMOOTH",
"526 401 OFFCURVE",
"442 520 OFFCURVE",
"288 520 CURVE SMOOTH",
"122 520 OFFCURVE",
"49 390 OFFCURVE",
"49 255 CURVE SMOOTH",
"49 87 OFFCURVE",
"145 -10 OFFCURVE",
"308 -10 CURVE SMOOTH",
"395 -10 OFFCURVE",
"439 9 OFFCURVE",
"483 34 CURVE SMOOTH",
"497 42 OFFCURVE",
"509 55 OFFCURVE",
"509 71 CURVE SMOOTH",
"509 94 OFFCURVE",
"490 110 OFFCURVE",
"469 110 CURVE SMOOTH"
);
},
{
closed = 1;
nodes = (
"352 443 OFFCURVE",
"430 401 OFFCURVE",
"436 297 CURVE",
"141 297 LINE",
"147 401 OFFCURVE",
"224 443 OFFCURVE",
"288 443 CURVE SMOOTH"
);
},
{
closed = 1;
nodes = (
"312 722 OFFCURVE",
"302 714 OFFCURVE",
"296 703 CURVE SMOOTH",
"245 613 LINE",
"243 610 OFFCURVE",
"238 602 OFFCURVE",
"238 594 CURVE SMOOTH",
"238 578 OFFCURVE",
"249 567 OFFCURVE",
"265 567 CURVE SMOOTH",
"275 567 OFFCURVE",
"281 571 OFFCURVE",
"287 578 CURVE SMOOTH",
"356 660 LINE SMOOTH",
"363 668 OFFCURVE",
"366 676 OFFCURVE",
"366 685 CURVE SMOOTH",
"366 707 OFFCURVE",
"351 722 OFFCURVE",
"329 722 CURVE SMOOTH"
);
}
);
width = 570;
}
);
leftKerningGroup = c;
note = eacute;
rightKerningGroup = e;
unicode = 00E9;
},
{
glyphname = edieresis;
layers = (
{
layerId = "A99C00BB-606F-4263-964D-93C8B7F0BADD";
paths = (
{
closed = 1;
nodes = (
"462 110 OFFCURVE",
"457 109 OFFCURVE",
"451 106 CURVE SMOOTH",
"414 87 OFFCURVE",
"376 75 OFFCURVE",
"316 75 CURVE SMOOTH",
"208 75 OFFCURVE",
"151 133 OFFCURVE",
"141 223 CURVE",
"480 223 LINE SMOOTH",
"508 223 OFFCURVE",
"526 243 OFFCURVE",
"526 268 CURVE SMOOTH",
"526 401 OFFCURVE",
"442 520 OFFCURVE",
"288 520 CURVE SMOOTH",
"122 520 OFFCURVE",
"49 390 OFFCURVE",
"49 255 CURVE SMOOTH",
"49 87 OFFCURVE",
"145 -10 OFFCURVE",
"308 -10 CURVE SMOOTH",
"395 -10 OFFCURVE",
"439 9 OFFCURVE",
"483 34 CURVE SMOOTH",
"497 42 OFFCURVE",
"509 55 OFFCURVE",
"509 71 CURVE SMOOTH",
"509 94 OFFCURVE",
"490 110 OFFCURVE",
"469 110 CURVE SMOOTH"
);
},
{
closed = 1;
nodes = (
"352 443 OFFCURVE",
"430 401 OFFCURVE",
"436 297 CURVE",
"141 297 LINE",
"147 401 OFFCURVE",
"224 443 OFFCURVE",
"288 443 CURVE SMOOTH"
);
},
{
closed = 1;
nodes = (
"175 677 OFFCURVE",
"152 654 OFFCURVE",
"152 626 CURVE SMOOTH",
"152 598 OFFCURVE",
"175 575 OFFCURVE",
"203 575 CURVE SMOOTH",
"231 575 OFFCURVE",
"254 598 OFFCURVE",
"254 626 CURVE SMOOTH",
"254 654 OFFCURVE",
"231 677 OFFCURVE",
"203 677 CURVE SMOOTH"
);
},
{
closed = 1;
nodes = (
"344 677 OFFCURVE",
"321 654 OFFCURVE",
"321 626 CURVE SMOOTH",
"321 598 OFFCURVE",
"344 575 OFFCURVE",
"372 575 CURVE SMOOTH",
"400 575 OFFCURVE",
"423 598 OFFCURVE",
"423 626 CURVE SMOOTH",
"423 654 OFFCURVE",
"400 677 OFFCURVE",
"372 677 CURVE SMOOTH"
);
}
);
width = 570;
}
);
leftKerningGroup = c;
note = edieresis;
rightKerningGroup = e;
unicode = 00EB;
},
{
glyphname = igrave;
layers = (
{
layerId = "A99C00BB-606F-4263-964D-93C8B7F0BADD";
paths = (
{
closed = 1;
nodes = (
"103 515 OFFCURVE",
"83 495 OFFCURVE",
"83 469 CURVE SMOOTH",
"83 40 LINE SMOOTH",
"83 15 OFFCURVE",
"103 -5 OFFCURVE",
"128 -5 CURVE SMOOTH",
"154 -5 OFFCURVE",
"174 15 OFFCURVE",
"174 40 CURVE SMOOTH",
"174 469 LINE SMOOTH",
"174 495 OFFCURVE",
"154 515 OFFCURVE",
"128 515 CURVE SMOOTH"
);
},
{
closed = 1;
nodes = (
"57 722 OFFCURVE",
"42 707 OFFCURVE",
"42 685 CURVE SMOOTH",
"42 676 OFFCURVE",
"45 668 OFFCURVE",
"52 660 CURVE SMOOTH",
"121 578 LINE SMOOTH",
"127 571 OFFCURVE",
"133 567 OFFCURVE",
"143 567 CURVE SMOOTH",
"159 567 OFFCURVE",
"170 578 OFFCURVE",
"170 594 CURVE SMOOTH",
"170 602 OFFCURVE",
"165 610 OFFCURVE",
"163 613 CURVE",
"112 703 LINE SMOOTH",
"106 714 OFFCURVE",
"96 722 OFFCURVE",
"79 722 CURVE SMOOTH"
);
}
);
width = 257;
}
);
leftKerningGroup = i;
note = igrave;
rightKerningGroup = i;
unicode = 00EC;
},
{
glyphname = iacute;
layers = (
{
layerId = "A99C00BB-606F-4263-964D-93C8B7F0BADD";
paths = (
{
closed = 1;
nodes = (
"103 515 OFFCURVE",
"83 495 OFFCURVE",
"83 469 CURVE SMOOTH",
"83 40 LINE SMOOTH",
"83 15 OFFCURVE",
"103 -5 OFFCURVE",
"128 -5 CURVE SMOOTH",
"154 -5 OFFCURVE",
"174 15 OFFCURVE",
"174 40 CURVE SMOOTH",
"174 469 LINE SMOOTH",
"174 495 OFFCURVE",
"154 515 OFFCURVE",
"128 515 CURVE SMOOTH"
);
},
{
closed = 1;
nodes = (
"161 722 OFFCURVE",
"151 714 OFFCURVE",
"145 703 CURVE SMOOTH",
"94 613 LINE",
"92 610 OFFCURVE",
"87 602 OFFCURVE",
"87 594 CURVE SMOOTH",
"87 578 OFFCURVE",
"98 567 OFFCURVE",
"114 567 CURVE SMOOTH",
"124 567 OFFCURVE",
"130 571 OFFCURVE",
"136 578 CURVE SMOOTH",
"205 660 LINE SMOOTH",
"212 668 OFFCURVE",
"215 676 OFFCURVE",
"215 685 CURVE SMOOTH",
"215 707 OFFCURVE",
"200 722 OFFCURVE",
"178 722 CURVE SMOOTH"
);
}
);
width = 257;
}
);
leftKerningGroup = i;
note = iacute;
rightKerningGroup = i;
unicode = 00ED;
},
{
glyphname = icircumflex;
layers = (
{
layerId = "A99C00BB-606F-4263-964D-93C8B7F0BADD";
paths = (
{
closed = 1;
nodes = (
"103 515 OFFCURVE",
"83 495 OFFCURVE",
"83 469 CURVE SMOOTH",
"83 40 LINE SMOOTH",
"83 15 OFFCURVE",
"103 -5 OFFCURVE",
"128 -5 CURVE SMOOTH",
"154 -5 OFFCURVE",
"174 15 OFFCURVE",
"174 40 CURVE SMOOTH",
"174 469 LINE SMOOTH",
"174 495 OFFCURVE",
"154 515 OFFCURVE",
"128 515 CURVE SMOOTH"
);
},
{
closed = 1;
nodes = (
"263 603 OFFCURVE",
"260 610 OFFCURVE",
"255 615 CURVE SMOOTH",
"187 685 LINE SMOOTH",
"177 696 OFFCURVE",
"166 705 OFFCURVE",
"147 705 CURVE SMOOTH",
"109 705 LINE SMOOTH",
"90 705 OFFCURVE",
"79 696 OFFCURVE",
"69 685 CURVE SMOOTH",
"1 615 LINE SMOOTH",
"-4 610 OFFCURVE",
"-7 603 OFFCURVE",
"-7 596 CURVE",
"-8 581 OFFCURVE",
"6 566 OFFCURVE",
"23 566 CURVE SMOOTH",
"29 566 OFFCURVE",
"37 569 OFFCURVE",
"41 573 CURVE",
"128 647 LINE",
"215 573 LINE",
"219 569 OFFCURVE",
"227 566 OFFCURVE",
"233 566 CURVE SMOOTH",
"250 566 OFFCURVE",
"264 581 OFFCURVE",
"263 596 CURVE"
);
}
);
width = 257;
}
);
leftKerningGroup = i;
note = icircumflex;
rightKerningGroup = i;
unicode = 00EE;
},
{
glyphname = idieresis;
layers = (
{
layerId = "A99C00BB-606F-4263-964D-93C8B7F0BADD";
paths = (
{
closed = 1;
nodes = (
"103 515 OFFCURVE",
"83 495 OFFCURVE",
"83 469 CURVE SMOOTH",
"83 40 LINE SMOOTH",
"83 15 OFFCURVE",
"103 -5 OFFCURVE",
"128 -5 CURVE SMOOTH",
"154 -5 OFFCURVE",
"174 15 OFFCURVE",
"174 40 CURVE SMOOTH",
"174 469 LINE SMOOTH",
"174 495 OFFCURVE",
"154 515 OFFCURVE",
"128 515 CURVE SMOOTH"
);
},
{
closed = 1;
nodes = (
"16 677 OFFCURVE",
"-7 654 OFFCURVE",
"-7 626 CURVE SMOOTH",
"-7 598 OFFCURVE",
"16 575 OFFCURVE",
"44 575 CURVE SMOOTH",
"72 575 OFFCURVE",
"95 598 OFFCURVE",
"95 626 CURVE SMOOTH",
"95 654 OFFCURVE",
"72 677 OFFCURVE",
"44 677 CURVE SMOOTH"
);
},
{
closed = 1;
nodes = (
"185 677 OFFCURVE",
"162 654 OFFCURVE",
"162 626 CURVE SMOOTH",
"162 598 OFFCURVE",
"185 575 OFFCURVE",
"213 575 CURVE SMOOTH",
"241 575 OFFCURVE",
"264 598 OFFCURVE",
"264 626 CURVE SMOOTH",
"264 654 OFFCURVE",
"241 677 OFFCURVE",
"213 677 CURVE SMOOTH"
);
}
);
width = 257;
}
);
leftKerningGroup = i;
note = idieresis;
rightKerningGroup = i;
unicode = 00EF;
},
{
glyphname = eth;
layers = (
{
layerId = "A99C00BB-606F-4263-964D-93C8B7F0BADD";
paths = (
{
closed = 1;
nodes = (
"418 670 LINE SMOOTH",
"426 675 OFFCURVE",
"430 683 OFFCURVE",
"430 692 CURVE SMOOTH",
"430 706 OFFCURVE",
"419 717 OFFCURVE",
"405 717 CURVE SMOOTH",
"399 717 OFFCURVE",
"395 715 OFFCURVE",
"390 712 CURVE SMOOTH",
"322 671 LINE",
"281 704 OFFCURVE",
"242 729 OFFCURVE",
"214 746 CURVE SMOOTH",
"207 750 OFFCURVE",
"200 752 OFFCURVE",
"192 752 CURVE SMOOTH",
"169 752 OFFCURVE",
"150 734 OFFCURVE",
"150 710 CURVE SMOOTH",
"150 696 OFFCURVE",
"158 681 OFFCURVE",
"170 675 CURVE SMOOTH",
"196 661 OFFCURVE",
"221 644 OFFCURVE",
"246 627 CURVE",
"178 587 LINE SMOOTH",
"169 582 OFFCURVE",
"163 574 OFFCURVE",
"163 564 CURVE SMOOTH",
"163 550 OFFCURVE",
"174 539 OFFCURVE",
"188 539 CURVE SMOOTH",
"194 539 OFFCURVE",
"200 542 OFFCURVE",
"205 545 CURVE SMOOTH",
"289 594 LINE",
"329 560 OFFCURVE",
"367 520 OFFCURVE",
"396 477 CURVE",
"365 493 OFFCURVE",
"328 505 OFFCURVE",
"283 505 CURVE SMOOTH",
"133 505 OFFCURVE",
"49 381 OFFCURVE",
"49 248 CURVE SMOOTH",
"49 94 OFFCURVE",
"147 -10 OFFCURVE",
"297 -10 CURVE SMOOTH",
"476 -10 OFFCURVE",
"546 120 OFFCURVE",
"546 274 CURVE SMOOTH",
"546 430 OFFCURVE",
"455 553 OFFCURVE",
"362 637 CURVE"
);
},
{
closed = 1;
nodes = (
"223 70 OFFCURVE",
"137 120 OFFCURVE",
"137 252 CURVE SMOOTH",
"137 382 OFFCURVE",
"223 431 OFFCURVE",
"297 431 CURVE SMOOTH",
"371 431 OFFCURVE",
"458 382 OFFCURVE",
"458 252 CURVE SMOOTH",
"458 120 OFFCURVE",
"371 70 OFFCURVE",
"297 70 CURVE SMOOTH"
);
}
);
width = 599;
}
);
leftKerningGroup = c;
note = eth;
unicode = 00F0;
},
{
glyphname = oacute;
layers = (
{
layerId = "A99C00BB-606F-4263-964D-93C8B7F0BADD";
paths = (
{
closed = 1;
nodes = (
"149 520 OFFCURVE",
"48 413 OFFCURVE",
"48 255 CURVE SMOOTH",
"48 97 OFFCURVE",
"149 -10 OFFCURVE",
"304 -10 CURVE SMOOTH",
"458 -10 OFFCURVE",
"560 97 OFFCURVE",
"560 255 CURVE SMOOTH",
"560 413 OFFCURVE",
"458 520 OFFCURVE",
"304 520 CURVE SMOOTH"
);
},
{
closed = 1;
nodes = (
"227 73 OFFCURVE",
"139 123 OFFCURVE",
"139 256 CURVE SMOOTH",
"139 388 OFFCURVE",
"227 437 OFFCURVE",
"304 437 CURVE SMOOTH",
"380 437 OFFCURVE",
"469 388 OFFCURVE",
"469 256 CURVE SMOOTH",
"469 123 OFFCURVE",
"380 73 OFFCURVE",
"304 73 CURVE SMOOTH"
);
},
{
closed = 1;
nodes = (
"336 722 OFFCURVE",
"326 714 OFFCURVE",
"320 703 CURVE SMOOTH",
"269 613 LINE",
"267 610 OFFCURVE",
"262 602 OFFCURVE",
"262 594 CURVE SMOOTH",
"262 578 OFFCURVE",
"273 567 OFFCURVE",
"289 567 CURVE SMOOTH",
"299 567 OFFCURVE",
"305 571 OFFCURVE",
"311 578 CURVE SMOOTH",
"380 660 LINE SMOOTH",
"387 668 OFFCURVE",
"390 676 OFFCURVE",
"390 685 CURVE SMOOTH",
"390 707 OFFCURVE",
"375 722 OFFCURVE",
"353 722 CURVE SMOOTH"
);
}
);
width = 608;
}
);
leftKerningGroup = c;
note = oacute;
rightKerningGroup = b;
unicode = 00F3;
},
{
glyphname = otilde;
layers = (
{
layerId = "A99C00BB-606F-4263-964D-93C8B7F0BADD";
paths = (
{
closed = 1;
nodes = (
"149 520 OFFCURVE",
"48 413 OFFCURVE",
"48 255 CURVE SMOOTH",
"48 97 OFFCURVE",
"149 -10 OFFCURVE",
"304 -10 CURVE SMOOTH",
"458 -10 OFFCURVE",
"560 97 OFFCURVE",
"560 255 CURVE SMOOTH",
"560 413 OFFCURVE",
"458 520 OFFCURVE",
"304 520 CURVE SMOOTH"
);
},
{
closed = 1;
nodes = (
"227 73 OFFCURVE",
"139 123 OFFCURVE",
"139 256 CURVE SMOOTH",
"139 388 OFFCURVE",
"227 437 OFFCURVE",
"304 437 CURVE SMOOTH",
"380 437 OFFCURVE",
"469 388 OFFCURVE",
"469 256 CURVE SMOOTH",
"469 123 OFFCURVE",
"380 73 OFFCURVE",
"304 73 CURVE SMOOTH"
);
},
{
closed = 1;
nodes = (
"466 680 OFFCURVE",
"458 690 OFFCURVE",
"444 690 CURVE SMOOTH",
"429 690 OFFCURVE",
"423 680 OFFCURVE",
"419 669 CURVE SMOOTH",
"413 652 OFFCURVE",
"403 642 OFFCURVE",
"382 642 CURVE SMOOTH",
"328 642 OFFCURVE",
"286 689 OFFCURVE",
"228 689 CURVE SMOOTH",
"176 689 OFFCURVE",
"144 634 OFFCURVE",
"144 594 CURVE SMOOTH",
"144 581 OFFCURVE",
"155 571 OFFCURVE",
"167 571 CURVE SMOOTH",
"180 571 OFFCURVE",
"187 580 OFFCURVE",
"190 589 CURVE",
"198 608 OFFCURVE",
"209 621 OFFCURVE",
"229 621 CURVE SMOOTH",
"281 621 OFFCURVE",
"324 573 OFFCURVE",
"383 573 CURVE SMOOTH",
"433 573 OFFCURVE",
"467 625 OFFCURVE",
"467 668 CURVE"
);
}
);
width = 608;
}
);
leftKerningGroup = c;
note = otilde;
rightKerningGroup = b;
unicode = 00F5;
},
{
glyphname = divide;
layers = (
{
layerId = "A99C00BB-606F-4263-964D-93C8B7F0BADD";
paths = (
{
closed = 1;
nodes = (
"328 197 OFFCURVE",
"305 174 OFFCURVE",
"305 146 CURVE SMOOTH",
"305 118 OFFCURVE",
"328 95 OFFCURVE",
"356 95 CURVE SMOOTH",
"384 95 OFFCURVE",
"407 118 OFFCURVE",
"407 146 CURVE SMOOTH",
"407 174 OFFCURVE",
"384 197 OFFCURVE",
"356 197 CURVE SMOOTH"
);
},
{
closed = 1;
nodes = (
"384 465 OFFCURVE",
"407 488 OFFCURVE",
"407 516 CURVE SMOOTH",
"407 544 OFFCURVE",
"384 567 OFFCURVE",
"356 567 CURVE SMOOTH",
"328 567 OFFCURVE",
"305 544 OFFCURVE",
"305 516 CURVE SMOOTH",
"305 488 OFFCURVE",
"328 465 OFFCURVE",
"356 465 CURVE SMOOTH"
);
},
{
closed = 1;
nodes = (
"113 372 LINE SMOOTH",
"90 372 OFFCURVE",
"73 354 OFFCURVE",
"73 331 CURVE SMOOTH",
"73 308 OFFCURVE",
"90 291 OFFCURVE",
"113 291 CURVE SMOOTH",
"598 291 LINE SMOOTH",
"621 291 OFFCURVE",
"639 308 OFFCURVE",
"639 331 CURVE SMOOTH",
"639 354 OFFCURVE",
"621 372 OFFCURVE",
"598 372 CURVE SMOOTH"
);
}
);
width = 712;
}
);
note = divide;
unicode = 00F7;
},
{
glyphname = oslash;
layers = (
{
layerId = "A99C00BB-606F-4263-964D-93C8B7F0BADD";
paths = (
{
closed = 1;
nodes = (
"149 520 OFFCURVE",
"48 413 OFFCURVE",
"48 255 CURVE SMOOTH",
"48 169 OFFCURVE",
"78 98 OFFCURVE",
"130 51 CURVE",
"101 10 LINE SMOOTH",
"97 4 OFFCURVE",
"95 -1 OFFCURVE",
"95 -7 CURVE SMOOTH",
"95 -20 OFFCURVE",
"105 -31 OFFCURVE",
"120 -31 CURVE SMOOTH",
"128 -31 OFFCURVE",
"136 -28 OFFCURVE",
"141 -21 CURVE SMOOTH",
"171 22 LINE",
"209 1 OFFCURVE",
"253 -10 OFFCURVE",
"304 -10 CURVE SMOOTH",
"458 -10 OFFCURVE",
"560 97 OFFCURVE",
"560 255 CURVE SMOOTH",
"560 341 OFFCURVE",
"530 412 OFFCURVE",
"477 458 CURVE",
"505 498 LINE SMOOTH",
"509 504 OFFCURVE",
"511 509 OFFCURVE",
"511 515 CURVE SMOOTH",
"511 528 OFFCURVE",
"501 539 OFFCURVE",
"486 539 CURVE SMOOTH",
"478 539 OFFCURVE",
"470 536 OFFCURVE",
"465 529 CURVE SMOOTH",
"436 488 LINE",
"398 508 OFFCURVE",
"354 520 OFFCURVE",
"304 520 CURVE SMOOTH"
);
},
{
closed = 1;
nodes = (
"139 388 OFFCURVE",
"227 437 OFFCURVE",
"304 437 CURVE SMOOTH",
"331 437 OFFCURVE",
"360 430 OFFCURVE",
"386 416 CURVE",
"182 125 LINE",
"156 154 OFFCURVE",
"139 197 OFFCURVE",
"139 256 CURVE SMOOTH"
);
},
{
closed = 1;
nodes = (
"276 73 OFFCURVE",
"248 79 OFFCURVE",
"222 94 CURVE",
"426 385 LINE",
"451 356 OFFCURVE",
"469 314 OFFCURVE",
"469 256 CURVE SMOOTH",
"469 123 OFFCURVE",
"380 73 OFFCURVE",
"304 73 CURVE SMOOTH"
);
}
);
width = 608;
}
);
leftKerningGroup = c;
note = oslash;
rightKerningGroup = b;
unicode = 00F8;
},
{
glyphname = uacute;
layers = (
{
layerId = "A99C00BB-606F-4263-964D-93C8B7F0BADD";
paths = (
{
closed = 1;
nodes = (
"343 -10 OFFCURVE",
"398 36 OFFCURVE",
"440 82 CURVE",
"440 41 LINE SMOOTH",
"440 15 OFFCURVE",
"461 -5 OFFCURVE",
"486 -5 CURVE SMOOTH",
"511 -5 OFFCURVE",
"531 15 OFFCURVE",
"531 41 CURVE SMOOTH",
"531 470 LINE SMOOTH",
"531 495 OFFCURVE",
"511 515 OFFCURVE",
"486 515 CURVE SMOOTH",
"461 515 OFFCURVE",
"440 495 OFFCURVE",
"440 470 CURVE SMOOTH",
"440 170 LINE",
"400 120 OFFCURVE",
"348 74 OFFCURVE",
"276 74 CURVE SMOOTH",
"198 74 OFFCURVE",
"166 120 OFFCURVE",
"166 196 CURVE SMOOTH",
"166 470 LINE SMOOTH",
"166 495 OFFCURVE",
"146 515 OFFCURVE",
"121 515 CURVE SMOOTH",
"96 515 OFFCURVE",
"75 495 OFFCURVE",
"75 470 CURVE SMOOTH",
"75 186 LINE SMOOTH",
"75 79 OFFCURVE",
"140 -10 OFFCURVE",
"254 -10 CURVE SMOOTH"
);
},
{
closed = 1;
nodes = (
"335 722 OFFCURVE",
"325 714 OFFCURVE",
"319 703 CURVE SMOOTH",
"268 613 LINE",
"266 610 OFFCURVE",
"261 602 OFFCURVE",
"261 594 CURVE SMOOTH",
"261 578 OFFCURVE",
"272 567 OFFCURVE",
"288 567 CURVE SMOOTH",
"298 567 OFFCURVE",
"304 571 OFFCURVE",
"310 578 CURVE SMOOTH",
"379 660 LINE SMOOTH",
"386 668 OFFCURVE",
"389 676 OFFCURVE",
"389 685 CURVE SMOOTH",
"389 707 OFFCURVE",
"374 722 OFFCURVE",
"352 722 CURVE SMOOTH"
);
}
);
width = 610;
}
);
leftKerningGroup = u;
note = uacute;
rightKerningGroup = g;
unicode = 00FA;
},
{
glyphname = udieresis;
layers = (
{
layerId = "A99C00BB-606F-4263-964D-93C8B7F0BADD";
paths = (
{
closed = 1;
nodes = (
"343 -10 OFFCURVE",
"398 36 OFFCURVE",
"440 82 CURVE",
"440 41 LINE SMOOTH",
"440 15 OFFCURVE",
"461 -5 OFFCURVE",
"486 -5 CURVE SMOOTH",
"511 -5 OFFCURVE",
"531 15 OFFCURVE",
"531 41 CURVE SMOOTH",
"531 470 LINE SMOOTH",
"531 495 OFFCURVE",
"511 515 OFFCURVE",
"486 515 CURVE SMOOTH",
"461 515 OFFCURVE",
"440 495 OFFCURVE",
"440 470 CURVE SMOOTH",
"440 170 LINE",
"400 120 OFFCURVE",
"348 74 OFFCURVE",
"276 74 CURVE SMOOTH",
"198 74 OFFCURVE",
"166 120 OFFCURVE",
"166 196 CURVE SMOOTH",
"166 470 LINE SMOOTH",
"166 495 OFFCURVE",
"146 515 OFFCURVE",
"121 515 CURVE SMOOTH",
"96 515 OFFCURVE",
"75 495 OFFCURVE",
"75 470 CURVE SMOOTH",
"75 186 LINE SMOOTH",
"75 79 OFFCURVE",
"140 -10 OFFCURVE",
"254 -10 CURVE SMOOTH"
);
},
{
closed = 1;
nodes = (
"191 677 OFFCURVE",
"168 654 OFFCURVE",
"168 626 CURVE SMOOTH",
"168 598 OFFCURVE",
"191 575 OFFCURVE",
"219 575 CURVE SMOOTH",
"247 575 OFFCURVE",
"270 598 OFFCURVE",
"270 626 CURVE SMOOTH",
"270 654 OFFCURVE",
"247 677 OFFCURVE",
"219 677 CURVE SMOOTH"
);
},
{
closed = 1;
nodes = (
"360 677 OFFCURVE",
"337 654 OFFCURVE",
"337 626 CURVE SMOOTH",
"337 598 OFFCURVE",
"360 575 OFFCURVE",
"388 575 CURVE SMOOTH",
"416 575 OFFCURVE",
"439 598 OFFCURVE",
"439 626 CURVE SMOOTH",
"439 654 OFFCURVE",
"416 677 OFFCURVE",
"388 677 CURVE SMOOTH"
);
}
);
width = 610;
}
);
leftKerningGroup = u;
note = udieresis;
rightKerningGroup = g;
unicode = 00FC;
},
{
glyphname = thorn;
layers = (
{
layerId = "A99C00BB-606F-4263-964D-93C8B7F0BADD";
paths = (
{
closed = 1;
nodes = (
"271 520 OFFCURVE",
"216 492 OFFCURVE",
"170 444 CURVE",
"170 689 LINE SMOOTH",
"170 715 OFFCURVE",
"150 735 OFFCURVE",
"124 735 CURVE SMOOTH",
"99 735 OFFCURVE",
"79 715 OFFCURVE",
"79 689 CURVE SMOOTH",
"79 -189 LINE SMOOTH",
"79 -215 OFFCURVE",
"99 -235 OFFCURVE",
"124 -235 CURVE SMOOTH",
"150 -235 OFFCURVE",
"170 -215 OFFCURVE",
"170 -189 CURVE SMOOTH",
"170 66 LINE",
"216 18 OFFCURVE",
"271 -10 OFFCURVE",
"341 -10 CURVE SMOOTH",
"462 -10 OFFCURVE",
"583 85 OFFCURVE",
"583 255 CURVE SMOOTH",
"583 425 OFFCURVE",
"462 520 OFFCURVE",
"341 520 CURVE SMOOTH"
);
},
{
closed = 1;
nodes = (
"263 75 OFFCURVE",
"209 107 OFFCURVE",
"170 150 CURVE",
"170 360 LINE",
"209 403 OFFCURVE",
"263 435 OFFCURVE",
"328 435 CURVE SMOOTH",
"423 435 OFFCURVE",
"492 373 OFFCURVE",
"492 255 CURVE SMOOTH",
"492 137 OFFCURVE",
"423 75 OFFCURVE",
"328 75 CURVE SMOOTH"
);
}
);
width = 631;
}
);
leftKerningGroup = b;
note = thorn;
rightKerningGroup = b;
unicode = 00FE;
},
{
glyphname = ydieresis;
layers = (
{
layerId = "A99C00BB-606F-4263-964D-93C8B7F0BADD";
paths = (
{
closed = 1;
nodes = (
"509 494 OFFCURVE",
"489 515 OFFCURVE",
"464 515 CURVE SMOOTH",
"444 515 OFFCURVE",
"430 503 OFFCURVE",
"422 485 CURVE SMOOTH",
"265 105 LINE",
"111 487 LINE SMOOTH",
"104 503 OFFCURVE",
"88 515 OFFCURVE",
"69 515 CURVE SMOOTH",
"44 515 OFFCURVE",
"24 494 OFFCURVE",
"24 469 CURVE SMOOTH",
"24 462 OFFCURVE",
"26 455 OFFCURVE",
"28 450 CURVE SMOOTH",
"216 -8 LINE",
"151 -175 LINE SMOOTH",
"149 -180 OFFCURVE",
"148 -186 OFFCURVE",
"148 -191 CURVE SMOOTH",
"148 -215 OFFCURVE",
"167 -235 OFFCURVE",
"191 -235 CURVE SMOOTH",
"212 -235 OFFCURVE",
"225 -222 OFFCURVE",
"233 -204 CURVE SMOOTH",
"506 452 LINE SMOOTH",
"508 457 OFFCURVE",
"509 463 OFFCURVE",
"509 469 CURVE SMOOTH"
);
},
{
closed = 1;
nodes = (
"153 677 OFFCURVE",
"130 654 OFFCURVE",
"130 626 CURVE SMOOTH",
"130 598 OFFCURVE",
"153 575 OFFCURVE",
"181 575 CURVE SMOOTH",
"209 575 OFFCURVE",
"232 598 OFFCURVE",
"232 626 CURVE SMOOTH",
"232 654 OFFCURVE",
"209 677 OFFCURVE",
"181 677 CURVE SMOOTH"
);
},
{
closed = 1;
nodes = (
"322 677 OFFCURVE",
"299 654 OFFCURVE",
"299 626 CURVE SMOOTH",
"299 598 OFFCURVE",
"322 575 OFFCURVE",
"350 575 CURVE SMOOTH",
"378 575 OFFCURVE",
"401 598 OFFCURVE",
"401 626 CURVE SMOOTH",
"401 654 OFFCURVE",
"378 677 OFFCURVE",
"350 677 CURVE SMOOTH"
);
}
);
width = 533;
}
);
leftKerningGroup = y;
note = ydieresis;
rightKerningGroup = y;
unicode = 00FF;
},
{
glyphname = longs;
layers = (
{
layerId = "A99C00BB-606F-4263-964D-93C8B7F0BADD";
paths = (
{
closed = 1;
nodes = (
"309 653 OFFCURVE",
"324 647 OFFCURVE",
"340 647 CURVE SMOOTH",
"361 647 OFFCURVE",
"377 666 OFFCURVE",
"377 685 CURVE SMOOTH",
"377 701 OFFCURVE",
"366 714 OFFCURVE",
"354 720 CURVE SMOOTH",
"330 732 OFFCURVE",
"300 740 OFFCURVE",
"267 740 CURVE SMOOTH",
"196 740 OFFCURVE",
"117 694 OFFCURVE",
"117 568 CURVE SMOOTH",
"117 510 LINE",
"58 510 LINE SMOOTH",
"36 510 OFFCURVE",
"19 493 OFFCURVE",
"19 471 CURVE SMOOTH",
"19 449 OFFCURVE",
"36 432 OFFCURVE",
"58 432 CURVE SMOOTH",
"117 432 LINE",
"117 40 LINE SMOOTH",
"117 15 OFFCURVE",
"137 -5 OFFCURVE",
"162 -5 CURVE SMOOTH",
"188 -5 OFFCURVE",
"208 15 OFFCURVE",
"208 40 CURVE SMOOTH",
"208 565 LINE SMOOTH",
"208 636 OFFCURVE",
"240 653 OFFCURVE",
"290 653 CURVE SMOOTH"
);
}
);
width = 287;
}
);
leftKerningGroup = f;
note = longs;
unicode = 017F;
},
{
glyphname = florin;
layers = (
{
layerId = "A99C00BB-606F-4263-964D-93C8B7F0BADD";
paths = (
{
closed = 1;
nodes = (
"400 743 OFFCURVE",
"373 746 OFFCURVE",
"343 746 CURVE SMOOTH",
"272 746 OFFCURVE",
"186 704 OFFCURVE",
"168 578 CURVE SMOOTH",
"147 427 LINE",
"60 427 LINE SMOOTH",
"43 427 OFFCURVE",
"29 413 OFFCURVE",
"29 396 CURVE SMOOTH",
"29 379 OFFCURVE",
"42 365 OFFCURVE",
"60 365 CURVE SMOOTH",
"138 365 LINE",
"89 15 LINE SMOOTH",
"79 -56 OFFCURVE",
"45 -73 OFFCURVE",
"-5 -73 CURVE SMOOTH",
"-12 -73 LINE SMOOTH",
"-35 -73 OFFCURVE",
"-53 -92 OFFCURVE",
"-53 -115 CURVE SMOOTH",
"-53 -138 OFFCURVE",
"-35 -156 OFFCURVE",
"-12 -156 CURVE SMOOTH",
"6 -156 LINE SMOOTH",
"77 -156 OFFCURVE",
"162 -114 OFFCURVE",
"180 12 CURVE SMOOTH",
"230 365 LINE",
"355 365 LINE SMOOTH",
"372 365 OFFCURVE",
"386 378 OFFCURVE",
"386 396 CURVE SMOOTH",
"386 412 OFFCURVE",
"373 427 OFFCURVE",
"355 427 CURVE SMOOTH",
"238 427 LINE",
"259 575 LINE SMOOTH",
"269 646 OFFCURVE",
"303 663 OFFCURVE",
"353 663 CURVE SMOOTH",
"377 663 OFFCURVE",
"392 657 OFFCURVE",
"404 657 CURVE SMOOTH",
"426 657 OFFCURVE",
"444 674 OFFCURVE",
"444 697 CURVE SMOOTH",
"444 713 OFFCURVE",
"434 727 OFFCURVE",
"421 733 CURVE SMOOTH"
);
}
);
width = 403;
}
);
note = florin;
unicode = 0192;
},
{
glyphname = AEacute;
layers = (
{
layerId = "A99C00BB-606F-4263-964D-93C8B7F0BADD";
paths = (
{
closed = 1;
nodes = (
"590 85 LINE",
"590 307 LINE",
"909 307 LINE SMOOTH",
"933 307 OFFCURVE",
"952 325 OFFCURVE",
"952 349 CURVE SMOOTH",
"952 373 OFFCURVE",
"933 392 OFFCURVE",
"909 392 CURVE SMOOTH",
"590 392 LINE",
"590 613 LINE",
"945 613 LINE SMOOTH",
"969 613 OFFCURVE",
"988 631 OFFCURVE",
"988 655 CURVE SMOOTH",
"988 679 OFFCURVE",
"969 698 OFFCURVE",
"945 698 CURVE SMOOTH",
"457 698 LINE SMOOTH",
"438 698 OFFCURVE",
"421 688 OFFCURVE",
"411 673 CURVE SMOOTH",
"12 68 LINE SMOOTH",
"6 59 OFFCURVE",
"2 51 OFFCURVE",
"2 40 CURVE SMOOTH",
"2 15 OFFCURVE",
"22 -5 OFFCURVE",
"48 -5 CURVE SMOOTH",
"66 -5 OFFCURVE",
"80 7 OFFCURVE",
"89 21 CURVE SMOOTH",
"191 179 LINE",
"499 179 LINE",
"499 45 LINE SMOOTH",
"499 20 OFFCURVE",
"519 0 OFFCURVE",
"544 0 CURVE SMOOTH",
"945 0 LINE SMOOTH",
"969 0 OFFCURVE",
"988 18 OFFCURVE",
"988 42 CURVE SMOOTH",
"988 66 OFFCURVE",
"969 85 OFFCURVE",
"945 85 CURVE SMOOTH"
);
},
{
closed = 1;
nodes = (
"499 262 LINE",
"245 262 LINE",
"474 613 LINE",
"499 613 LINE"
);
},
{
closed = 1;
nodes = (
"560 894 OFFCURVE",
"550 886 OFFCURVE",
"544 875 CURVE SMOOTH",
"493 785 LINE",
"491 782 OFFCURVE",
"486 774 OFFCURVE",
"486 766 CURVE SMOOTH",
"486 750 OFFCURVE",
"497 739 OFFCURVE",
"513 739 CURVE SMOOTH",
"523 739 OFFCURVE",
"529 743 OFFCURVE",
"535 750 CURVE SMOOTH",
"604 832 LINE SMOOTH",
"611 840 OFFCURVE",
"614 848 OFFCURVE",
"614 857 CURVE SMOOTH",
"614 879 OFFCURVE",
"599 894 OFFCURVE",
"577 894 CURVE SMOOTH"
);
}
);
width = 1040;
}
);
leftKerningGroup = AE;
note = AEacute;
rightKerningGroup = E;
unicode = 01FC;
},
{
glyphname = Oslashacute;
layers = (
{
layerId = "A99C00BB-606F-4263-964D-93C8B7F0BADD";
paths = (
{
closed = 1;
nodes = (
"192 708 OFFCURVE",
"59 558 OFFCURVE",
"55 349 CURVE",
"57 230 OFFCURVE",
"101 130 OFFCURVE",
"178 66 CURVE",
"139 11 LINE SMOOTH",
"135 5 OFFCURVE",
"133 0 OFFCURVE",
"133 -6 CURVE SMOOTH",
"133 -19 OFFCURVE",
"143 -30 OFFCURVE",
"158 -30 CURVE SMOOTH",
"166 -30 OFFCURVE",
"174 -27 OFFCURVE",
"179 -20 CURVE SMOOTH",
"219 37 LINE",
"271 7 OFFCURVE",
"334 -10 OFFCURVE",
"406 -10 CURVE SMOOTH",
"619 -10 OFFCURVE",
"753 140 OFFCURVE",
"757 349 CURVE",
"754 467 OFFCURVE",
"711 566 OFFCURVE",
"635 630 CURVE",
"674 686 LINE SMOOTH",
"678 692 OFFCURVE",
"680 697 OFFCURVE",
"680 703 CURVE SMOOTH",
"680 716 OFFCURVE",
"670 727 OFFCURVE",
"655 727 CURVE SMOOTH",
"647 727 OFFCURVE",
"639 724 OFFCURVE",
"634 717 CURVE SMOOTH",
"594 659 LINE",
"542 690 OFFCURVE",
"478 708 OFFCURVE",
"406 708 CURVE SMOOTH"
);
},
{
closed = 1;
nodes = (
"146 503 OFFCURVE",
"240 623 OFFCURVE",
"406 623 CURVE SMOOTH",
"459 623 OFFCURVE",
"505 610 OFFCURVE",
"543 588 CURVE",
"229 139 LINE",
"175 189 OFFCURVE",
"146 263 OFFCURVE",
"146 349 CURVE SMOOTH"
);
},
{
closed = 1;
nodes = (
"353 75 OFFCURVE",
"307 87 OFFCURVE",
"269 109 CURVE",
"584 558 LINE",
"637 508 OFFCURVE",
"666 433 OFFCURVE",
"666 349 CURVE SMOOTH",
"666 195 OFFCURVE",
"571 75 OFFCURVE",
"406 75 CURVE SMOOTH"
);
},
{
closed = 1;
nodes = (
"436 894 OFFCURVE",
"426 886 OFFCURVE",
"420 875 CURVE SMOOTH",
"369 785 LINE",
"367 782 OFFCURVE",
"362 774 OFFCURVE",
"362 766 CURVE SMOOTH",
"362 750 OFFCURVE",
"373 739 OFFCURVE",
"389 739 CURVE SMOOTH",
"399 739 OFFCURVE",
"405 743 OFFCURVE",
"411 750 CURVE SMOOTH",
"480 832 LINE SMOOTH",
"487 840 OFFCURVE",
"490 848 OFFCURVE",
"490 857 CURVE SMOOTH",
"490 879 OFFCURVE",
"475 894 OFFCURVE",
"453 894 CURVE SMOOTH"
);
}
);
width = 811;
}
);
leftKerningGroup = C;
note = Oslashacute;
rightKerningGroup = O;
unicode = 01FE;
},
{
glyphname = Scommaaccent;
layers = (
{
layerId = "A99C00BB-606F-4263-964D-93C8B7F0BADD";
paths = (
{
closed = 1;
nodes = (
"309 -47 LINE SMOOTH",
"281 -47 OFFCURVE",
"258 -70 OFFCURVE",
"258 -98 CURVE SMOOTH",
"258 -103 LINE SMOOTH",
"258 -131 OFFCURVE",
"281 -153 OFFCURVE",
"309 -153 CURVE SMOOTH",
"312 -153 LINE",
"312 -202 OFFCURVE",
"293 -221 OFFCURVE",
"267 -236 CURVE",
"258 -242 OFFCURVE",
"253 -249 OFFCURVE",
"253 -259 CURVE SMOOTH",
"253 -273 OFFCURVE",
"264 -286 OFFCURVE",
"279 -286 CURVE SMOOTH",
"285 -286 OFFCURVE",
"292 -283 OFFCURVE",
"294 -281 CURVE",
"329 -260 OFFCURVE",
"368 -222 OFFCURVE",
"368 -150 CURVE SMOOTH",
"368 -103 LINE",
"368 -98 LINE SMOOTH",
"368 -70 OFFCURVE",
"345 -47 OFFCURVE",
"318 -47 CURVE SMOOTH"
);
},
{
closed = 1;
nodes = (
"149 585 OFFCURVE",
"226 624 OFFCURVE",
"327 624 CURVE SMOOTH",
"388 624 OFFCURVE",
"442 613 OFFCURVE",
"488 597 CURVE",
"493 595 OFFCURVE",
"499 593 OFFCURVE",
"504 593 CURVE SMOOTH",
"529 593 OFFCURVE",
"544 615 OFFCURVE",
"544 635 CURVE SMOOTH",
"544 659 OFFCURVE",
"530 670 OFFCURVE",
"516 675 CURVE SMOOTH",
"462 695 OFFCURVE",
"395 708 OFFCURVE",
"317 708 CURVE SMOOTH",
"148 708 OFFCURVE",
"58 614 OFFCURVE",
"58 503 CURVE SMOOTH",
"58 257 OFFCURVE",
"483 339 OFFCURVE",
"483 191 CURVE SMOOTH",
"483 104 OFFCURVE",
"407 76 OFFCURVE",
"308 76 CURVE SMOOTH",
"222 76 OFFCURVE",
"156 97 OFFCURVE",
"111 117 CURVE SMOOTH",
"104 120 OFFCURVE",
"98 121 OFFCURVE",
"92 121 CURVE SMOOTH",
"67 121 OFFCURVE",
"51 101 OFFCURVE",
"51 79 CURVE SMOOTH",
"51 61 OFFCURVE",
"64 44 OFFCURVE",
"79 38 CURVE SMOOTH",
"137 13 OFFCURVE",
"217 -10 OFFCURVE",
"317 -10 CURVE SMOOTH",
"472 -10 OFFCURVE",
"573 72 OFFCURVE",
"573 185 CURVE SMOOTH",
"573 449 OFFCURVE",
"149 337 OFFCURVE",
"149 510 CURVE SMOOTH"
);
}
);
width = 617;
}
);
leftKerningGroup = S;
note = Scommaaccent;
rightKerningGroup = S;
unicode = 0218;
},
{
glyphname = scommaaccent;
layers = (
{
layerId = "A99C00BB-606F-4263-964D-93C8B7F0BADD";
paths = (
{
closed = 1;
nodes = (
"241 -47 LINE SMOOTH",
"213 -47 OFFCURVE",
"190 -70 OFFCURVE",
"190 -98 CURVE SMOOTH",
"190 -103 LINE SMOOTH",
"190 -131 OFFCURVE",
"213 -153 OFFCURVE",
"241 -153 CURVE SMOOTH",
"244 -153 LINE",
"244 -202 OFFCURVE",
"225 -221 OFFCURVE",
"199 -236 CURVE",
"190 -242 OFFCURVE",
"185 -249 OFFCURVE",
"185 -259 CURVE SMOOTH",
"185 -273 OFFCURVE",
"196 -286 OFFCURVE",
"211 -286 CURVE SMOOTH",
"217 -286 OFFCURVE",
"224 -283 OFFCURVE",
"226 -281 CURVE",
"261 -260 OFFCURVE",
"300 -222 OFFCURVE",
"300 -150 CURVE SMOOTH",
"300 -103 LINE",
"300 -98 LINE SMOOTH",
"300 -70 OFFCURVE",
"277 -47 OFFCURVE",
"250 -47 CURVE SMOOTH"
);
},
{
closed = 1;
nodes = (
"139 407 OFFCURVE",
"180 437 OFFCURVE",
"254 437 CURVE SMOOTH",
"298 437 OFFCURVE",
"336 429 OFFCURVE",
"368 419 CURVE",
"372 418 OFFCURVE",
"376 417 OFFCURVE",
"381 417 CURVE SMOOTH",
"404 417 OFFCURVE",
"421 436 OFFCURVE",
"421 457 CURVE SMOOTH",
"421 472 OFFCURVE",
"411 489 OFFCURVE",
"392 495 CURVE",
"351 510 OFFCURVE",
"302 520 OFFCURVE",
"247 520 CURVE SMOOTH",
"117 520 OFFCURVE",
"52 452 OFFCURVE",
"52 362 CURVE SMOOTH",
"52 180 OFFCURVE",
"352 231 OFFCURVE",
"352 145 CURVE SMOOTH",
"352 100 OFFCURVE",
"318 74 OFFCURVE",
"241 74 CURVE SMOOTH",
"182 74 OFFCURVE",
"141 88 OFFCURVE",
"105 104 CURVE SMOOTH",
"98 107 OFFCURVE",
"93 108 OFFCURVE",
"87 108 CURVE SMOOTH",
"64 108 OFFCURVE",
"48 88 OFFCURVE",
"48 68 CURVE SMOOTH",
"48 54 OFFCURVE",
"55 42 OFFCURVE",
"65 35 CURVE",
"116 7 OFFCURVE",
"174 -10 OFFCURVE",
"247 -10 CURVE SMOOTH",
"375 -10 OFFCURVE",
"440 57 OFFCURVE",
"440 138 CURVE SMOOTH",
"440 334 OFFCURVE",
"139 263 OFFCURVE",
"139 367 CURVE SMOOTH"
);
}
);
width = 480;
}
);
leftKerningGroup = s;
note = scommaaccent;
rightKerningGroup = s;
unicode = 0219;
},
{
glyphname = uni021A;
layers = (
{
layerId = "A99C00BB-606F-4263-964D-93C8B7F0BADD";
paths = (
{
closed = 1;
nodes = (
"300 -47 LINE SMOOTH",
"272 -47 OFFCURVE",
"249 -70 OFFCURVE",
"249 -98 CURVE SMOOTH",
"249 -103 LINE SMOOTH",
"249 -131 OFFCURVE",
"272 -153 OFFCURVE",
"300 -153 CURVE SMOOTH",
"303 -153 LINE",
"303 -202 OFFCURVE",
"284 -221 OFFCURVE",
"258 -236 CURVE",
"249 -242 OFFCURVE",
"244 -249 OFFCURVE",
"244 -259 CURVE SMOOTH",
"244 -273 OFFCURVE",
"255 -286 OFFCURVE",
"270 -286 CURVE SMOOTH",
"276 -286 OFFCURVE",
"283 -283 OFFCURVE",
"285 -281 CURVE",
"320 -260 OFFCURVE",
"359 -222 OFFCURVE",
"359 -150 CURVE SMOOTH",
"359 -103 LINE",
"359 -98 LINE SMOOTH",
"359 -70 OFFCURVE",
"336 -47 OFFCURVE",
"309 -47 CURVE SMOOTH"
);
},
{
closed = 1;
nodes = (
"55 698 LINE SMOOTH",
"31 698 OFFCURVE",
"13 679 OFFCURVE",
"13 655 CURVE SMOOTH",
"13 631 OFFCURVE",
"31 613 OFFCURVE",
"55 613 CURVE SMOOTH",
"259 613 LINE",
"259 40 LINE SMOOTH",
"259 15 OFFCURVE",
"279 -5 OFFCURVE",
"304 -5 CURVE SMOOTH",
"329 -5 OFFCURVE",
"350 15 OFFCURVE",
"350 40 CURVE SMOOTH",
"350 613 LINE",
"553 613 LINE SMOOTH",
"577 613 OFFCURVE",
"596 631 OFFCURVE",
"596 655 CURVE SMOOTH",
"596 679 OFFCURVE",
"577 698 OFFCURVE",
"553 698 CURVE SMOOTH"
);
}
);
width = 609;
}
);
leftKerningGroup = T;
note = uni021A;
rightKerningGroup = T;
unicode = 021A;
},
{
glyphname = uni021B;
layers = (
{
layerId = "A99C00BB-606F-4263-964D-93C8B7F0BADD";
paths = (
{
closed = 1;
nodes = (
"187 -47 LINE SMOOTH",
"159 -47 OFFCURVE",
"136 -70 OFFCURVE",
"136 -98 CURVE SMOOTH",
"136 -103 LINE SMOOTH",
"136 -131 OFFCURVE",
"159 -153 OFFCURVE",
"187 -153 CURVE SMOOTH",
"190 -153 LINE",
"190 -202 OFFCURVE",
"171 -221 OFFCURVE",
"145 -236 CURVE",
"136 -242 OFFCURVE",
"131 -249 OFFCURVE",
"131 -259 CURVE SMOOTH",
"131 -273 OFFCURVE",
"142 -286 OFFCURVE",
"157 -286 CURVE SMOOTH",
"163 -286 OFFCURVE",
"170 -283 OFFCURVE",
"172 -281 CURVE",
"207 -260 OFFCURVE",
"246 -222 OFFCURVE",
"246 -150 CURVE SMOOTH",
"246 -103 LINE",
"246 -98 LINE SMOOTH",
"246 -70 OFFCURVE",
"223 -47 OFFCURVE",
"196 -47 CURVE SMOOTH"
);
},
{
closed = 1;
nodes = (
"310 79 OFFCURVE",
"299 70 OFFCURVE",
"267 70 CURVE SMOOTH",
"242 70 OFFCURVE",
"202 71 OFFCURVE",
"202 130 CURVE SMOOTH",
"202 432 LINE",
"315 432 LINE SMOOTH",
"337 432 OFFCURVE",
"354 449 OFFCURVE",
"354 471 CURVE SMOOTH",
"354 493 OFFCURVE",
"337 510 OFFCURVE",
"315 510 CURVE SMOOTH",
"202 510 LINE",
"202 590 LINE SMOOTH",
"202 601 OFFCURVE",
"194 610 OFFCURVE",
"183 610 CURVE SMOOTH",
"175 610 OFFCURVE",
"169 604 OFFCURVE",
"166 601 CURVE SMOOTH",
"30 468 LINE",
"24 463 OFFCURVE",
"21 457 OFFCURVE",
"21 451 CURVE SMOOTH",
"21 440 OFFCURVE",
"29 432 OFFCURVE",
"40 432 CURVE SMOOTH",
"111 432 LINE",
"111 122 LINE SMOOTH",
"111 -2 OFFCURVE",
"210 -10 OFFCURVE",
"257 -10 CURVE SMOOTH",
"289 -10 OFFCURVE",
"316 -3 OFFCURVE",
"340 8 CURVE SMOOTH",
"354 15 OFFCURVE",
"363 26 OFFCURVE",
"363 43 CURVE SMOOTH",
"363 64 OFFCURVE",
"345 79 OFFCURVE",
"327 79 CURVE SMOOTH"
);
}
);
width = 383;
}
);
leftKerningGroup = t;
note = uni021B;
rightKerningGroup = t;
unicode = 021B;
},
